<svg width="106" height="91" fill="none" xmlns="http://www.w3.org/2000/svg"><path fill-rule="evenodd" clip-rule="evenodd" d="M37 36c0-1.717.22-3.041.697-3.993a1 1 0 1 1 1.788.895C39.173 33.526 39 34.566 39 36c0 6.627 5.373 12 12 12s12-5.373 12-12-5.373-12-12-12c-1.227 0-2.428.184-3.575.541a1 1 0 0 1-.595-1.91C48.169 22.216 49.57 22 51 22c7.732 0 14 6.268 14 14s-6.268 14-14 14-14-6.268-14-14Zm5.713-11.006a14.765 14.765 0 0 0-3.172 3.347 1 1 0 1 0 1.646 1.136 12.766 12.766 0 0 1 2.742-2.894 1 1 0 0 0-1.216-1.588Z" fill="#ffd000"></path><rect x="46.088" y="34.588" width="1.882" height="9.412" rx="0.941" fill="#ffd000"></rect><rect x="49.853" y="31.765" width="1.882" height="12.235" rx="0.941" fill="#ffd000"></rect><rect x="53.618" y="28" width="1.882" height="16" rx="0.941" fill="#ffd000"></rect><g filter="url(#menu-2-hover_svg__a)"><path fill-rule="evenodd" clip-rule="evenodd" d="M50 54.882c11.046 0 20-3.555 20-7.94C70 42.554 61.046 39 50 39s-20 3.555-20 7.941c0 4.386 8.954 7.941 20 7.941Z" fill="#ffd000"></path></g><defs><filter id="menu-2-hover_svg__a" x="-5.338" y="3.662" width="110.675" height="86.558" filterUnits="userSpaceOnUse" color-interpolation-filters="sRGB"><feFlood flood-opacity="0" result="BackgroundImageFix"></feFlood><feBlend in="SourceGraphic" in2="BackgroundImageFix" result="shape"></feBlend><feGaussianBlur stdDeviation="17.669" result="effect1_foregroundBlur_845_44470"></feGaussianBlur></filter></defs></svg>