<svg width="80" height="81" fill="none" xmlns="http://www.w3.org/2000/svg"><path fill-rule="evenodd" clip-rule="evenodd" d="M27 36c0-1.717.22-3.041.697-3.993a1 1 0 1 1 1.788.895C29.173 33.526 29 34.566 29 36c0 6.627 5.373 12 12 12s12-5.373 12-12-5.373-12-12-12c-1.227 0-2.428.184-3.575.541a1 1 0 0 1-.595-1.91C38.169 22.216 39.57 22 41 22c7.732 0 14 6.268 14 14s-6.268 14-14 14-14-6.268-14-14Zm5.713-11.006a14.765 14.765 0 0 0-3.172 3.347 1 1 0 1 0 1.646 1.136 12.766 12.766 0 0 1 2.742-2.894 1 1 0 0 0-1.216-1.588Z" fill="#3A4D69"></path><rect x="36.088" y="34.588" width="1.882" height="9.412" rx="0.941" fill="#3A4D69"></rect><rect x="39.853" y="31.765" width="1.882" height="12.235" rx="0.941" fill="#3A4D69"></rect><rect x="43.618" y="28" width="1.882" height="16" rx="0.941" fill="#3A4D69"></rect></svg>