<svg width="32" height="33" fill="none" xmlns="http://www.w3.org/2000/svg"><path fill-rule="evenodd" clip-rule="evenodd" d="M16 32.5c8.837 0 16-7.163 16-16S24.837.5 16 .5 0 7.663 0 16.5s7.163 16 16 16Zm2.526-24.006-2.388-1.38a.514.514 0 0 0-.515 0l-2.388 1.38a.386.386 0 0 0-.193.334v2.83c0 .14.075.267.196.336l2.389 1.353c.157.09.35.09.507 0l2.39-1.353a.386.386 0 0 0 .195-.336v-2.83a.386.386 0 0 0-.193-.334Zm-2.177-.591c0 .13-.21.234-.469.234-.258 0-.468-.105-.468-.234 0-.13.21-.234.468-.234.259 0 .469.104.469.234Zm-.469.936c.259 0 .469-.105.469-.235 0-.129-.21-.234-.469-.234-.258 0-.468.105-.468.234 0 .13.21.235.468.235Zm.469.469c0 .129-.21.234-.469.234-.258 0-.468-.105-.468-.234 0-.13.21-.235.468-.235.259 0 .469.105.469.235Zm.936-.47c.259 0 .468-.104.468-.234 0-.129-.21-.234-.468-.234-.259 0-.468.105-.468.234 0 .13.21.235.468.235Zm-2.341-.234c0 .13-.21.235-.468.235-.259 0-.469-.105-.469-.235 0-.129.21-.234.469-.234.258 0 .468.105.468.234Zm2.322 2.37c-.036.312.047.546.186.524.14-.023.28-.266.315-.542.034-.276-.049-.51-.186-.523-.137-.012-.277.23-.314.542Zm-3.527-.143c-.144.016-.269-.16-.28-.391-.011-.232.09-.436.227-.456.137-.02.262.155.28.391.019.237-.083.44-.227.456Zm.277.186c.017.236.152.418.301.406.149-.011.25-.217.226-.458-.024-.24-.16-.423-.302-.406-.142.016-.243.221-.225.458Zm.912 1.027c-.153.008-.297-.181-.32-.423-.024-.242.076-.448.224-.46.148-.014.292.175.321.422.03.246-.072.453-.225.46Zm1.093-2.029a.258.258 0 0 1-.211.002l-1.351-.595a.073.073 0 0 0-.066.13l1.23.688a.257.257 0 0 1 .13.209l.088 1.452a.086.086 0 0 0 .17-.001l.069-1.452a.257.257 0 0 1 .127-.21l1.17-.685a.074.074 0 0 0-.067-.13l-1.289.592Zm-3.544 10.426 2.244-4.872a.231.231 0 0 1 .074-.09.23.23 0 0 1 .127-.073c.335-.067.653-.1.955-.1h.119c.3 0 .618.033.953.1a.231.231 0 0 1 .128.073.231.231 0 0 1 .074.09l2.243 4.872 1.444-6.923a.232.232 0 0 1 .173-.178c.334-.08.831-.12 1.492-.12.568 0 .985.03 1.252.089a.231.231 0 0 1 .175.276l-2.017 9.13a.463.463 0 0 1-.368.355 7.108 7.108 0 0 1-1.824.099 7.406 7.406 0 0 1-1.46-.262 1.39 1.39 0 0 1-.908-.812l-1.417-3.475-1.417 3.475a1.39 1.39 0 0 1-.909.812 7.406 7.406 0 0 1-1.46.262 7.107 7.107 0 0 1-1.823-.099.463.463 0 0 1-.369-.355l-2.017-9.13a.231.231 0 0 1 .176-.276c.266-.06.684-.09 1.252-.09.66 0 1.158.04 1.492.12.087.022.154.091.173.179l1.443 6.923ZM17.78 2.382l-1.134-.14a.571.571 0 0 0-.14 1.134l1.134.14a.571.571 0 0 0 .14-1.134Zm2.438.473 1.062.421a.571.571 0 0 1-.421 1.063l-1.063-.422a.571.571 0 0 1 .422-1.062Zm4.132 2.102-.928-.668a.571.571 0 1 0-.668.928l.928.668a.571.571 0 0 0 .668-.928Zm1.929 1.602.73.88a.571.571 0 0 1-.88.73l-.73-.88a.571.571 0 0 1 .88-.73Zm2.646 3.879-.49-1.032a.571.571 0 1 0-1.033.49l.49 1.032a.571.571 0 1 0 1.033-.49Zm.907 2.31.214 1.122a.572.572 0 0 1-1.123.214l-.213-1.122a.571.571 0 0 1 1.122-.214Zm.44 4.697.07-1.141a.572.572 0 0 0-1.14-.07l-.07 1.14a.571.571 0 0 0 1.14.07Zm-.32 2.467-.356 1.086a.572.572 0 0 1-1.086-.355l.355-1.086a.571.571 0 1 1 1.086.355Zm-1.835 4.239.608-.968a.571.571 0 0 0-.968-.608l-.608.968a.571.571 0 0 0 .968.608Zm-1.488 2.037-.833.782a.572.572 0 0 1-.783-.832l.833-.783a.571.571 0 1 1 .783.833Zm-3.699 2.874 1-.554a.572.572 0 0 0-.554-1l-1 .554a.571.571 0 1 0 .554 1Zm-2.266 1.058-1.107.282a.571.571 0 1 1-.283-1.107l1.108-.283a.571.571 0 0 1 .282 1.108Zm-3.508.726h-1.143a.571.571 0 0 1 0-1.143h1.143a.571.571 0 0 1 0 1.143ZM13.052 2.534l1.134-.144a.571.571 0 1 1 .145 1.133l-1.134.145a.571.571 0 0 1-.145-1.134Zm-2.346.758-1.06.425a.571.571 0 1 0 .424 1.06l1.061-.424a.572.572 0 0 0-.425-1.061ZM6.665 5.697l.922-.675a.571.571 0 1 1 .675.923l-.923.674a.571.571 0 0 1-.674-.922ZM4.954 7.515 4.23 8.4a.571.571 0 0 0 .884.724l.724-.885a.571.571 0 0 0-.884-.724Zm-2.38 4.052.484-1.036a.571.571 0 1 1 1.035.483l-.482 1.036a.571.571 0 0 1-1.036-.483ZM1.97 13.92l-.21 1.123a.571.571 0 0 0 1.124.21l.21-1.123a.571.571 0 1 0-1.124-.21Zm-.136 4.74-.076-1.14a.571.571 0 1 1 1.14-.075l.076 1.14a.572.572 0 0 1-1.14.076Zm.608 2.377.358 1.085a.571.571 0 0 0 1.085-.358l-.357-1.085a.571.571 0 1 0-1.086.358Zm2.152 4.185-.617-.962a.571.571 0 1 1 .962-.617l.617.962a.571.571 0 1 1-.962.617Zm1.703 1.81.838.778a.571.571 0 1 0 .777-.838l-.838-.777a.571.571 0 1 0-.777.837Zm3.991 2.67-1.008-.54a.571.571 0 0 1 .54-1.007l1.007.54a.571.571 0 1 1-.539 1.007Zm2.222.71 1.108.28a.571.571 0 1 0 .28-1.108l-1.109-.28a.572.572 0 0 0-.279 1.109Z" fill="#344359"></path></svg>