<svg xmlns="http://www.w3.org/2000/svg" width="80" height="80" fill="none"><g stroke="#ffd000" stroke-linecap="round" stroke-linejoin="round" stroke-miterlimit="10" stroke-width="1.67" clip-path="url(#menu-8-hover_svg__a)"><path d="M52.156 28.016H31.844M33.875 32.078h-.813a3.047 3.047 0 0 0 0 6.094h1.158"></path><path d="M49.78 38.172h1.157a3.047 3.047 0 0 0 0-6.094h-.812v4.063a6.086 6.086 0 0 1-6.094 6.093v3.657c0 1.121.91 2.03 2.032 2.03 1.117 0 2.03.915 2.03 2.032a2.037 2.037 0 0 1-2.03 2.031h-8.126a2.037 2.037 0 0 1-2.03-2.03c0-1.118.913-2.032 2.03-2.032 1.122 0 2.032-.91 2.032-2.031v-3.657a6.086 6.086 0 0 1-6.094-6.093v-8.125"></path><path d="M39.969 34.11c1.122 0 2.031-.91 2.031-2.032v6.094M37.938 47.922h8.124"></path></g><defs><clipPath id="menu-8-hover_svg__a"><path fill="#fff" d="M29 27h26v26H29z"></path></clipPath></defs></svg>