<svg width="104" height="99" fill="none" xmlns="http://www.w3.org/2000/svg"><path fill-rule="evenodd" clip-rule="evenodd" d="M33.375 35.28c0-1.886 0-2.83.154-3.614a8.25 8.25 0 0 1 6.512-6.512C40.826 25 41.77 25 43.656 25h12.572c1.886 0 2.83 0 3.614.154a8.25 8.25 0 0 1 6.513 6.512c.153.785.153 1.728.153 3.614v.229l.004.027 1.39 13.188c.264 2.498-1.235 4.828-3.585 5.573-2.352.746-4.907-.301-6.108-2.505l-3.302-6.053a.906.906 0 0 1-.074-.178H43.656c-1.887 0-2.83 0-3.615-.154a8.25 8.25 0 0 1-5.455-3.794l-.756 7.195c-.168 1.604.802 3.1 2.32 3.58 1.552.492 3.233-.218 3.986-1.681l1.193-2.382a.906.906 0 0 1 1.62.811l-1.207 2.41c-1.16 2.255-3.749 3.348-6.139 2.592-2.34-.74-3.833-3.045-3.574-5.516L33.375 35.8v-.519Zm26.467 10.127a8.25 8.25 0 0 0 5.494-3.858l.777 7.359c.172 1.631-.807 3.152-2.342 3.64-1.537.486-3.205-.198-3.99-1.636l-2.918-5.351c1.474-.002 2.288-.019 2.98-.154Zm-2.114-13.401a1.506 1.506 0 1 1-3.013 0 1.506 1.506 0 0 1 3.012 0Zm1.505 4.78a1.506 1.506 0 1 0 0-3.012 1.506 1.506 0 0 0 0 3.012Zm-1.505 1.506a1.506 1.506 0 1 1-3.013 0 1.506 1.506 0 0 1 3.012 0Zm-4.78-1.637a1.506 1.506 0 1 0 0-3.012 1.506 1.506 0 0 0 0 3.012ZM42.09 32.4a1.506 1.506 0 0 1 3.012 0v1.56l1.559-.013a1.506 1.506 0 0 1 .024 3.012l-1.583.013v1.583a1.506 1.506 0 0 1-3.012 0v-1.559l-1.56.013a1.506 1.506 0 0 1-.024-3.013l1.584-.012v-1.584Z" fill="#ffd000"></path><g filter="url(#menu-1-hover_svg__a)"><path fill-rule="evenodd" clip-rule="evenodd" d="M48 62.882c11.046 0 20-3.555 20-7.94C68 50.554 59.046 47 48 47s-20 3.555-20 7.941c0 4.386 8.954 7.941 20 7.941Z" fill="#ffd000"></path></g><defs><filter id="menu-1-hover_svg__a" x="-7.338" y="11.662" width="110.675" height="86.558" filterUnits="userSpaceOnUse" color-interpolation-filters="sRGB"><feFlood flood-opacity="0" result="BackgroundImageFix"></feFlood><feBlend in="SourceGraphic" in2="BackgroundImageFix" result="shape"></feBlend><feGaussianBlur stdDeviation="17.669" result="effect1_foregroundBlur_845_44452"></feGaussianBlur></filter></defs></svg>