<svg width="112" height="97" fill="none" xmlns="http://www.w3.org/2000/svg"><g filter="url(#menu-5-hover_svg__a)"><ellipse cx="56" cy="53" rx="20" ry="8" fill="#ffd000"></ellipse></g><path fill-rule="evenodd" clip-rule="evenodd" d="M58.98 50.931 56 49.07l-4.833 2.644c-1.166.638-2.608.172-3.22-1.041a2.57 2.57 0 0 1-.24-1.575l.923-5.6-3.91-3.968a2.554 2.554 0 0 1-.043-3.509c.366-.39.846-.645 1.364-.724l2.376-.359 3.028-.458 2.417-5.096c.582-1.23 2.012-1.734 3.193-1.127.47.241.85.637 1.083 1.127l2.416 5.096 5.404.817c1.303.198 2.206 1.457 2.017 2.813-.075.54-.32 1.04-.695 1.42l-3.91 3.967.923 5.602c.222 1.35-.65 2.633-1.947 2.865-1.298.232-2.248-.335-3.366-1.033Z" fill="#ffd000" stroke="#ffd000" stroke-width="2" stroke-linecap="round" stroke-linejoin="round"></path><path fill-rule="evenodd" clip-rule="evenodd" d="M56.494 34.497a.5.5 0 0 0-.503-.497 1.677 1.677 0 0 0-1.284.617.5.5 0 1 0 .773.635c.13-.16.32-.25.517-.252a.5.5 0 0 0 .497-.503Zm-2.742 2.012a.5.5 0 1 1 .904.429l-.43.903a.5.5 0 0 1-.902-.428l.428-.904Zm-1.391 1.435a.5.5 0 0 0-.57-.42l-.852.129a1.65 1.65 0 0 0-.205.045.5.5 0 0 0 .278.961.646.646 0 0 1 .08-.018l.85-.128a.5.5 0 0 0 .419-.57Zm-2.67 2.234a.5.5 0 0 1 .892-.452c.035.068.08.13.133.184l.435.44a.5.5 0 0 1-.712.703l-.435-.44a1.738 1.738 0 0 1-.312-.435Zm2.091 2.224a.5.5 0 0 1 .773-.627l.116.117a.5.5 0 0 1 .137.433l-.135.823a.5.5 0 0 1-.987-.162l.096-.584Zm.153 2.145a.5.5 0 0 1 .412.575.818.818 0 0 0 .093.52c.02.035.044.068.07.099a.5.5 0 1 1-.773.635 1.779 1.779 0 0 1-.175-.256c-.199-.389-.265-.773-.202-1.16a.5.5 0 0 1 .575-.413Zm4.283.617a.5.5 0 0 0 .159.688l.848.53c.061.038.127.061.193.07.04.056.093.105.157.142.419.24.764.371 1.154.4a.5.5 0 0 0 .075-.997c-.215-.016-.43-.097-.73-.27a.497.497 0 0 0-.178-.062.5.5 0 0 0-.141-.132l-.849-.529a.5.5 0 0 0-.688.16Zm1.678.501a.5.5 0 0 0-.478.788.5.5 0 0 0 .478-.788Zm-4.303.679a.5.5 0 0 0 .678.199l.878-.48a.5.5 0 1 0-.48-.877l-.877.48a.5.5 0 0 0-.2.678Zm4.712-9.714a.5.5 0 0 1-.903.429l-.429-.903a.5.5 0 1 1 .904-.43l.428.904Zm2.455 1.483a.5.5 0 0 0-.42-.569l-.988-.15a.5.5 0 1 0-.15.99l.99.149a.5.5 0 0 0 .568-.42Zm1.456 2.225a.5.5 0 0 1-.84-.544.867.867 0 0 0 .123-.383.776.776 0 0 0-.035-.272.5.5 0 0 1 .954-.3c.063.2.09.41.077.658-.044.354-.128.608-.28.841Zm-2.865 2.243a.5.5 0 0 0 .707-.005l.703-.712a.5.5 0 1 0-.712-.702l-.703.712a.5.5 0 0 0 .005.707Zm1.31 2.57a.5.5 0 1 1-.999.057.787.787 0 0 0-.01-.085l-.14-.85a.5.5 0 0 1 .987-.163l.14.85c.011.064.018.127.022.19Z" fill="#ffd000"></path><defs><filter id="menu-5-hover_svg__a" x="0.662" y="9.662" width="110.675" height="86.675" filterUnits="userSpaceOnUse" color-interpolation-filters="sRGB"><feFlood flood-opacity="0" result="BackgroundImageFix"></feFlood><feBlend in="SourceGraphic" in2="BackgroundImageFix" result="shape"></feBlend><feGaussianBlur stdDeviation="17.669" result="effect1_foregroundBlur"></feGaussianBlur></filter></defs></svg>