<svg width="38" height="39" fill="none" xmlns="http://www.w3.org/2000/svg"><path d="M22.227 21.438h-5.332a2.665 2.665 0 1 1 0-5.331h7.997a3.554 3.554 0 0 1 3.554 3.554v3.465a9.15 9.15 0 0 1-4.443 7.847v3.704H11.564v-3.704a9.1 9.1 0 0 1-2.666-6.435v-7.543" stroke="#344359" stroke-width="2.375" stroke-miterlimit="10" stroke-linecap="round" stroke-linejoin="round"></path><path d="M22.228 21.438a3.554 3.554 0 0 0-3.554 3.554M11.564 20.55a2.666 2.666 0 0 0 2.666-2.665v-1.777a2.666 2.666 0 1 0-5.331 0v1.777a2.666 2.666 0 0 0 2.665 2.666Z" stroke="#344359" stroke-width="2.375" stroke-miterlimit="10" stroke-linecap="round" stroke-linejoin="round"></path><path d="m13.567 14.349-1.424-7.595a2.606 2.606 0 0 1 2.562-3.087h.084c1.229 0 2.29.86 2.548 2.06l2.224 10.38M24.893 16.107l1.99-9.287a2.606 2.606 0 1 0-5.097-1.092l-2.224 10.379" stroke="#344359" stroke-width="2.375" stroke-miterlimit="10" stroke-linecap="round" stroke-linejoin="round"></path></svg>