<svg xmlns="http://www.w3.org/2000/svg" width="28" height="28" fill="none"><path fill="#3A4D69" fill-rule="evenodd" d="M14 28c7.732 0 14-6.268 14-14S21.732 0 14 0 0 6.268 0 14s6.268 14 14 14Zm0-1.4C7.041 26.6 1.4 20.959 1.4 14S7.041 1.4 14 1.4 26.6 7.041 26.6 14 20.959 26.6 14 26.6ZM11.355 3.421a.5.5 0 0 1 .485-.621h4.32a.5.5 0 0 1 .485.621l-.45 1.8a.5.5 0 0 1-.485.379h-3.42a.5.5 0 0 1-.485-.379l-.45-1.8Zm8.825 1.232a.5.5 0 0 0-.782.096L18.4 6.411a.5.5 0 0 0 .075.61l2.503 2.503a.5.5 0 0 0 .61.075l1.662-.997a.5.5 0 0 0 .096-.782L20.18 4.653Zm4.399 6.702a.5.5 0 0 1 .621.485v4.32a.5.5 0 0 1-.621.485l-1.8-.45a.5.5 0 0 1-.379-.485v-3.42a.5.5 0 0 1 .379-.485l1.8-.45Zm-1.232 8.825a.5.5 0 0 0-.096-.782l-1.662-.997a.5.5 0 0 0-.61.075l-2.503 2.503a.5.5 0 0 0-.075.61l.997 1.662a.5.5 0 0 0 .782.096l3.167-3.167Zm-6.702 4.399a.5.5 0 0 1-.485.621h-4.32a.5.5 0 0 1-.485-.621l.45-1.8a.5.5 0 0 1 .485-.379h3.42a.5.5 0 0 1 .485.379l.45 1.8ZM7.82 23.347a.5.5 0 0 0 .782-.096l.997-1.662a.5.5 0 0 0-.075-.61l-2.502-2.503a.5.5 0 0 0-.611-.075l-1.662.997a.5.5 0 0 0-.096.782l3.167 3.167ZM3.42 16.645a.5.5 0 0 1-.621-.485v-4.32a.5.5 0 0 1 .621-.485l1.8.45a.5.5 0 0 1 .379.485v3.42a.5.5 0 0 1-.379.485l-1.8.45ZM4.653 7.82a.5.5 0 0 0 .096.782l1.662.997a.5.5 0 0 0 .61-.075l2.503-2.502a.5.5 0 0 0 .075-.611l-.997-1.662a.5.5 0 0 0-.782-.096L4.653 7.82Zm9.067 9.256a3 3 0 0 0-2.737-2.736l-3.317-.28 3.317-.28a3 3 0 0 0 2.737-2.737L14 7.726l.28 3.317a3 3 0 0 0 2.737 2.736l3.316.28-3.316.28a3 3 0 0 0-2.737 2.737L14 20.393l-.28-3.317Zm-.005-2.77-.538-.294.539-.295.294-.539.295.54.538.294-.538.294-.295.54-.294-.54Z" clip-rule="evenodd"></path></svg>