<svg width="80" height="80" fill="none" xmlns="http://www.w3.org/2000/svg"><path fill-rule="evenodd" clip-rule="evenodd" d="M26.697 36.007C26.22 36.96 26 38.283 26 40c0 7.732 6.268 14 14 14s14-6.268 14-14-6.268-14-14-14c-1.43 0-2.831.215-4.17.632a1 1 0 1 0 .595 1.91A11.996 11.996 0 0 1 40 28c6.627 0 12 5.373 12 12s-5.373 12-12 12-12-5.373-12-12c0-1.434.173-2.474.485-3.098a1 1 0 0 0-1.788-.895Zm1.844-3.666a14.765 14.765 0 0 1 3.172-3.347 1 1 0 1 1 1.216 1.589 12.766 12.766 0 0 0-2.742 2.894 1 1 0 1 1-1.646-1.136Zm11.58-.553 2.09 1.206c.104.06.168.172.168.293v2.476a.338.338 0 0 1-.171.294l-2.091 1.184a.45.45 0 0 1-.444 0l-2.09-1.184a.338.338 0 0 1-.172-.294v-2.476c0-.121.065-.233.17-.293l2.089-1.206a.45.45 0 0 1 .45 0Zm-.226.894c.226 0 .41-.092.41-.205 0-.113-.184-.205-.41-.205-.226 0-.41.092-.41.205 0 .113.184.205.41.205Zm.41.41c0 .113-.184.205-.41.205-.226 0-.41-.092-.41-.205 0-.114.184-.205.41-.205.226 0 .41.091.41.205Zm-.41.82c.226 0 .41-.093.41-.206 0-.113-.184-.205-.41-.205-.226 0-.41.092-.41.205 0 .113.184.205.41.205Zm1.639-.82c0 .113-.183.205-.41.205-.226 0-.41-.092-.41-.205 0-.114.184-.205.41-.205.227 0 .41.091.41.205Zm-2.868.205c.226 0 .41-.092.41-.205 0-.114-.184-.205-.41-.205-.226 0-.41.091-.41.205 0 .113.184.205.41.205Zm2.605 2.325c-.123.02-.196-.185-.163-.457.032-.273.156-.485.275-.474.12.01.193.216.163.457-.03.242-.153.454-.276.474Zm-3.495-.926c.01.203.12.356.245.343.126-.014.215-.192.2-.399-.016-.206-.126-.36-.246-.342-.12.017-.208.196-.199.398Zm.751.861c-.13.01-.248-.149-.264-.355-.015-.207.073-.386.198-.401.124-.014.243.145.264.356.021.21-.068.39-.198.4Zm.255.173c.02.212.146.377.28.37.134-.007.223-.188.197-.403-.026-.216-.152-.381-.281-.37-.13.011-.217.192-.196.403Zm1.051-1.403a.225.225 0 0 0 .185-.001l1.128-.52a.064.064 0 0 1 .06.115l-1.025.6a.225.225 0 0 0-.112.183l-.06 1.27a.075.075 0 0 1-.149.002l-.076-1.27a.225.225 0 0 0-.115-.184l-1.075-.601a.064.064 0 0 1 .057-.115l1.182.521Zm-.953 4.858-1.962 4.263-1.264-6.057a.203.203 0 0 0-.15-.156c-.293-.07-.728-.105-1.306-.105-.498 0-.863.026-1.096.078a.203.203 0 0 0-.153.241l1.765 7.99c.035.158.162.28.322.31a6.221 6.221 0 0 0 1.595.086 6.489 6.489 0 0 0 1.278-.228c.36-.102.653-.364.795-.711l1.24-3.04 1.24 3.04c.141.347.434.609.795.71a6.22 6.22 0 0 0 2.873.143.405.405 0 0 0 .322-.31l1.765-7.99a.203.203 0 0 0-.154-.241c-.233-.052-.598-.078-1.095-.078-.578 0-1.014.035-1.306.105a.203.203 0 0 0-.15.156l-1.264 6.057-1.963-4.263a.202.202 0 0 0-.065-.079.203.203 0 0 0-.111-.063 4.285 4.285 0 0 0-.94-.088c-.263 0-.54.03-.834.088a.197.197 0 0 0-.112.063.203.203 0 0 0-.065.08Z" fill="#3A4D69"></path></svg>