<svg width="112" height="97" fill="none" xmlns="http://www.w3.org/2000/svg"><g filter="url(#menu-3-hover_svg__a)"><ellipse cx="56" cy="53" rx="20" ry="8" fill="#ffd000"></ellipse></g><path fill-rule="evenodd" clip-rule="evenodd" d="M70 40c0 7.732-6.268 14-14 14s-14-6.268-14-14 6.268-14 14-14 14 6.268 14 14Zm-11.79-7.006-2.09-1.206a.45.45 0 0 0-.45 0l-2.09 1.206a.338.338 0 0 0-.169.293v2.476c0 .122.066.234.172.294l2.09 1.184a.45.45 0 0 0 .444 0l2.09-1.184a.338.338 0 0 0 .172-.294v-2.476a.338.338 0 0 0-.169-.293Zm-1.905-.517c0 .113-.184.205-.41.205-.226 0-.41-.092-.41-.205 0-.113.184-.205.41-.205.226 0 .41.092.41.205Zm-.41.82c.226 0 .41-.092.41-.205 0-.114-.184-.205-.41-.205-.226 0-.41.091-.41.205 0 .113.184.205.41.205Zm.41.41c0 .112-.184.204-.41.204-.226 0-.41-.092-.41-.205 0-.113.184-.205.41-.205.226 0 .41.092.41.205Zm.82-.41c.226 0 .409-.092.409-.205 0-.114-.183-.205-.41-.205-.226 0-.41.091-.41.205 0 .113.184.205.41.205Zm-2.05-.205c0 .113-.183.205-.41.205-.225 0-.409-.092-.409-.205 0-.114.184-.205.41-.205.226 0 .41.091.41.205Zm2.033 2.073c-.032.272.04.477.163.457.122-.02.245-.232.275-.474.03-.241-.043-.446-.163-.457-.12-.011-.243.201-.275.474Zm-3.086-.126c-.126.013-.236-.14-.245-.343-.01-.202.079-.38.198-.398.12-.018.23.136.246.342.016.207-.074.385-.2.399Zm.241.163c.016.206.134.366.264.355.13-.01.22-.19.198-.4-.021-.211-.14-.37-.264-.356-.125.014-.213.194-.198.4Zm.799.898c-.134.007-.26-.158-.28-.37-.02-.211.067-.392.196-.403.129-.011.255.154.281.37.026.215-.063.396-.197.403Zm.956-1.774a.225.225 0 0 1-.185.001l-1.182-.52a.064.064 0 0 0-.057.114l1.075.601c.067.038.11.107.115.183l.076 1.27a.075.075 0 0 0 .15 0l.06-1.27a.225.225 0 0 1 .11-.184l1.025-.6a.064.064 0 0 0-.06-.114l-1.127.519Zm-3.1 9.122 1.962-4.263a.203.203 0 0 1 .065-.079.201.201 0 0 1 .112-.063 4.286 4.286 0 0 1 .939-.088c.263 0 .541.03.834.088a.2.2 0 0 1 .112.063c.028.02.05.048.065.08l1.963 4.262 1.263-6.057a.203.203 0 0 1 .151-.156c.292-.07.728-.105 1.306-.105.497 0 .862.026 1.095.078.11.024.178.132.154.241l-1.765 7.99a.405.405 0 0 1-.323.31 6.22 6.22 0 0 1-1.595.086 6.489 6.489 0 0 1-1.277-.228 1.215 1.215 0 0 1-.795-.711l-1.24-3.04-1.24 3.04a1.216 1.216 0 0 1-.795.71 6.221 6.221 0 0 1-2.873.143.405.405 0 0 1-.322-.31l-1.765-7.99a.203.203 0 0 1 .153-.241c.233-.052.598-.078 1.096-.078.578 0 1.013.035 1.305.105a.203.203 0 0 1 .151.156l1.264 6.057Zm4.638-15.8-.992-.123a.5.5 0 0 0-.123.992l.993.123a.5.5 0 1 0 .122-.993Zm2.134.413.93.369a.5.5 0 1 1-.37.929l-.93-.369a.5.5 0 1 1 .37-.93Zm3.615 1.84-.812-.585a.5.5 0 0 0-.584.812l.812.584a.5.5 0 1 0 .584-.812Zm1.688 1.401.639.77a.5.5 0 0 1-.77.639l-.638-.77a.5.5 0 0 1 .77-.639Zm2.315 3.395-.429-.904a.5.5 0 1 0-.903.43l.429.902a.5.5 0 1 0 .903-.428Zm.794 2.02.188.982a.5.5 0 1 1-.983.187l-.187-.982a.5.5 0 0 1 .982-.187Zm.385 4.11.061-.998a.5.5 0 1 0-.998-.062l-.061.999a.5.5 0 0 0 .998.06Zm-.28 2.158-.311.95a.5.5 0 0 1-.95-.31l.31-.95a.5.5 0 0 1 .95.31Zm-1.605 3.71.532-.846a.5.5 0 0 0-.847-.533l-.532.847a.5.5 0 1 0 .847.532Zm-1.303 1.782-.728.684a.5.5 0 0 1-.685-.728l.729-.685a.5.5 0 1 1 .684.729Zm-3.236 2.515.875-.485a.5.5 0 1 0-.485-.874l-.875.484a.5.5 0 1 0 .485.875Zm-1.983.925-.968.248a.5.5 0 0 1-.248-.97l.97-.247a.5.5 0 0 1 .246.97Zm-3.07.635h-1a.5.5 0 1 1 0-1h1a.5.5 0 0 1 0 1ZM53.42 27.78l.993-.126a.5.5 0 1 1 .126.992l-.992.126a.5.5 0 1 1-.126-.992Zm-2.052.663-.928.372a.5.5 0 0 0 .371.928l.929-.371a.5.5 0 1 0-.372-.929Zm-3.537 2.104.808-.59a.5.5 0 1 1 .59.807l-.807.59a.5.5 0 1 1-.59-.807Zm-1.497 1.592-.633.773a.5.5 0 1 0 .774.634l.633-.774a.5.5 0 1 0-.773-.633Zm-2.081 3.544.422-.906a.5.5 0 0 1 .907.422l-.423.907a.5.5 0 1 1-.906-.423Zm-.53 2.06-.183.982a.5.5 0 0 0 .983.184l.184-.983a.5.5 0 0 0-.983-.184Zm-.118 4.147-.066-.997a.5.5 0 0 1 .997-.067l.067.998a.5.5 0 0 1-.998.066Zm.532 2.079.313.95a.5.5 0 1 0 .95-.314l-.313-.95a.5.5 0 1 0-.95.314Zm1.883 3.663-.54-.842a.5.5 0 0 1 .842-.54l.54.842a.5.5 0 0 1-.842.54Zm1.49 1.585.733.68a.5.5 0 1 0 .68-.733l-.733-.68a.5.5 0 1 0-.68.733Zm3.492 2.335-.882-.472a.5.5 0 1 1 .472-.881l.882.471a.5.5 0 0 1-.472.882Zm1.944.622.97.244a.5.5 0 0 0 .245-.97l-.97-.244a.5.5 0 0 0-.245.97Z" fill="#ffd000"></path><defs><filter id="menu-3-hover_svg__a" x="0.662" y="9.662" width="110.675" height="86.675" filterUnits="userSpaceOnUse" color-interpolation-filters="sRGB"><feFlood flood-opacity="0" result="BackgroundImageFix"></feFlood><feBlend in="SourceGraphic" in2="BackgroundImageFix" result="shape"></feBlend><feGaussianBlur stdDeviation="17.669" result="effect1_foregroundBlur"></feGaussianBlur></filter></defs></svg>