<svg width="1048" height="1048" viewBox="0 0 1048 1048" fill="none" xmlns="http://www.w3.org/2000/svg">
<path fill-rule="evenodd" clip-rule="evenodd" d="M524 1048C813.397 1048 1048 813.397 1048 524C1048 234.603 813.397 0 524 0C234.603 0 0 234.603 0 524C0 813.397 234.603 1048 524 1048Z" fill="#1C2536"/>
<path fill-rule="evenodd" clip-rule="evenodd" d="M524 896C747.675 896 929 714.675 929 491C929 267.325 747.675 86 524 86C300.325 86 119 267.325 119 491C119 714.675 300.325 896 524 896Z" fill="#1A2333"/>
<path fill-rule="evenodd" clip-rule="evenodd" d="M519 801C683.581 801 817 667.581 817 503C817 338.419 683.581 205 519 205C354.419 205 221 338.419 221 503C221 667.581 354.419 801 519 801Z" fill="#192131"/>
<path fill-rule="evenodd" clip-rule="evenodd" d="M519 697C626.143 697 713 610.143 713 503C713 395.857 626.143 309 519 309C411.857 309 325 395.857 325 503C325 610.143 411.857 697 519 697Z" fill="#171E2D"/>
<g opacity="0.7">
<path d="M811.153 444.939C826.702 450.598 842.37 446.768 846.149 436.384C847.082 433.82 848.496 430.363 848.496 430.363C848.496 430.363 837.336 408.595 825.626 404.333C813.613 399.96 792.482 408.934 792.482 408.934C792.482 408.934 790.703 413.529 789.844 415.89C786.064 426.274 795.605 439.279 811.153 444.939Z" fill="#0A0F18"/>
<path d="M812.705 436.426C827.496 441.809 842.243 438.6 845.643 429.259C849.043 419.917 839.809 407.98 825.018 402.597C810.227 397.213 795.48 400.422 792.08 409.764C788.68 419.105 797.914 431.042 812.705 436.426Z" fill="#182134"/>
<path fill-rule="evenodd" clip-rule="evenodd" d="M791.79 410.836C795.603 400.361 811.101 396.572 826.786 402.281C842.471 407.99 851.908 420.854 848.095 431.329C844.283 441.804 828.785 445.593 813.1 439.884C797.415 434.175 787.977 421.311 791.79 410.836ZM799.834 413.763C797.096 421.284 803.794 430.413 815.055 434.512C826.316 438.611 837.315 435.922 840.052 428.402C842.789 420.881 836.092 411.752 824.831 407.653C813.57 403.554 802.571 406.243 799.834 413.763Z" fill="#35435A"/>
<path fill-rule="evenodd" clip-rule="evenodd" d="M827.411 414.77L824.271 412.027C824.062 411.844 823.761 411.734 823.484 411.74L819.314 411.824C819.106 411.828 818.946 411.918 818.895 412.059L817.838 414.96C817.787 415.103 817.853 415.276 818.013 415.414L821.163 418.132C821.371 418.311 821.666 418.418 821.939 418.414L826.1 418.357C826.311 418.355 826.473 418.265 826.525 418.122L827.581 415.221C827.633 415.079 827.568 414.908 827.411 414.77ZM819.095 419.854C819.038 419.86 818.987 419.878 818.948 419.906L813.698 423.651L814.072 415.749C814.077 415.649 814 415.541 813.874 415.471C813.393 415.203 812.647 414.885 811.636 414.517C810.766 414.2 810.117 413.998 809.688 413.911C809.487 413.87 809.32 413.953 809.316 414.096L808.995 424.58C808.988 424.789 809.158 425.014 809.426 425.15C810.315 425.603 811.232 425.975 812.179 426.266C812.937 426.499 813.714 426.681 814.51 426.811C815.184 426.921 815.808 426.801 816.204 426.484L819.669 423.711L820.54 428.063C820.64 428.559 821.041 429.053 821.627 429.401C822.321 429.813 823.033 430.174 823.764 430.482C824.676 430.868 825.618 431.173 826.59 431.397C826.882 431.465 827.157 431.402 827.286 431.238L833.78 423C833.868 422.887 833.794 422.717 833.614 422.619C833.229 422.41 832.601 422.148 831.732 421.831C830.721 421.463 829.945 421.227 829.404 421.123C829.263 421.096 829.134 421.13 829.073 421.21L824.281 427.503L822.666 421.259C822.654 421.212 822.627 421.167 822.587 421.126C822.562 421.087 822.526 421.049 822.479 421.016C822.46 421.003 822.44 420.99 822.419 420.979C821.931 420.725 821.457 420.513 820.996 420.346C820.966 420.335 820.936 420.324 820.905 420.313C820.875 420.302 820.845 420.291 820.815 420.28C820.354 420.112 819.855 419.969 819.317 419.851C819.294 419.846 819.271 419.842 819.248 419.84C819.191 419.835 819.139 419.841 819.095 419.854ZM823.496 412.931C823.891 413.075 824.251 413.085 824.3 412.952C824.348 412.819 824.066 412.595 823.671 412.451C823.275 412.307 822.915 412.298 822.867 412.43C822.818 412.563 823.1 412.787 823.496 412.931ZM824.037 413.672C823.989 413.805 823.629 413.795 823.234 413.651C822.838 413.507 822.556 413.283 822.605 413.151C822.653 413.018 823.013 413.027 823.408 413.171C823.804 413.315 824.086 413.54 824.037 413.672ZM822.972 414.371C823.367 414.515 823.727 414.525 823.775 414.392C823.824 414.26 823.542 414.035 823.146 413.891C822.751 413.747 822.391 413.738 822.342 413.871C822.294 414.003 822.576 414.227 822.972 414.371ZM826.187 414.454C826.139 414.587 825.779 414.578 825.383 414.434C824.987 414.29 824.706 414.065 824.754 413.933C824.802 413.8 825.162 413.81 825.558 413.954C825.953 414.098 826.235 414.322 826.187 414.454ZM821.084 412.869C821.48 413.013 821.84 413.022 821.888 412.89C821.936 412.757 821.655 412.533 821.259 412.389C820.863 412.245 820.503 412.236 820.455 412.368C820.407 412.501 820.689 412.725 821.084 412.869ZM824.647 417.252C824.425 417.197 824.385 416.911 824.558 416.612C824.731 416.313 825.037 416.143 825.241 416.232C825.446 416.321 825.486 416.608 825.33 416.872C825.175 417.136 824.869 417.306 824.647 417.252ZM818.932 413.943C818.862 414.187 818.989 414.436 819.214 414.5C819.44 414.565 819.672 414.412 819.733 414.16C819.793 413.908 819.666 413.658 819.45 413.603C819.233 413.547 819.002 413.7 818.932 413.943ZM819.877 415.43C819.645 415.359 819.507 415.097 819.568 414.845C819.629 414.593 819.859 414.439 820.083 414.501C820.307 414.564 820.447 414.825 820.394 415.086C820.341 415.347 820.11 415.501 819.877 415.43ZM820.249 415.794C820.195 416.055 820.343 416.329 820.581 416.406C820.819 416.483 821.05 416.328 821.098 416.059C821.144 415.79 820.994 415.516 820.764 415.447C820.533 415.378 820.303 415.534 820.249 415.794ZM822.686 414.82C822.778 414.888 822.896 414.93 823.01 414.936L825.203 415.045C825.266 415.049 825.327 415.089 825.339 415.137C825.35 415.181 825.316 415.215 825.259 415.217L823.211 415.267C823.079 415.271 822.977 415.325 822.938 415.412L822.292 416.862C822.271 416.909 822.196 416.924 822.124 416.896C822.059 416.869 822.018 416.814 822.03 416.768L822.438 415.231C822.463 415.139 822.417 415.03 822.316 414.944L820.692 413.555C820.645 413.515 820.643 413.462 820.686 413.437C820.727 413.413 820.794 413.422 820.841 413.457L822.686 414.82Z" fill="#0A0F18"/>
<path fill-rule="evenodd" clip-rule="evenodd" d="M826.827 413.972L823.687 411.228C823.478 411.045 823.178 410.936 822.9 410.942L818.731 411.025C818.522 411.03 818.362 411.119 818.311 411.261L817.255 414.162C817.203 414.305 817.269 414.478 817.429 414.615L820.58 417.334C820.787 417.513 821.082 417.62 821.356 417.616L825.517 417.559C825.727 417.556 825.89 417.466 825.941 417.324L826.997 414.422C827.049 414.281 826.984 414.109 826.827 413.972ZM818.511 419.056C818.454 419.062 818.404 419.08 818.364 419.107L813.114 422.853L813.488 414.951C813.493 414.851 813.416 414.743 813.29 414.673C812.809 414.405 812.063 414.086 811.052 413.719C810.183 413.402 809.533 413.2 809.104 413.113C808.903 413.072 808.736 413.154 808.732 413.298L808.411 423.782C808.405 423.991 808.575 424.215 808.843 424.352C809.731 424.804 810.648 425.176 811.595 425.468C812.354 425.701 813.131 425.883 813.926 426.013C814.6 426.123 815.225 426.002 815.62 425.686L819.085 422.913L819.957 427.265C820.056 427.761 820.457 428.255 821.044 428.603C821.737 429.015 822.449 429.376 823.18 429.684C824.092 430.07 825.035 430.374 826.006 430.599C826.299 430.666 826.573 430.604 826.703 430.439L833.196 422.202C833.285 422.089 833.21 421.919 833.03 421.821C832.645 421.612 832.018 421.349 831.148 421.033C830.137 420.665 829.361 420.429 828.82 420.325C828.679 420.298 828.55 420.332 828.49 420.411L823.697 426.705L822.083 420.461C822.071 420.414 822.043 420.368 822.003 420.327C821.978 420.288 821.942 420.251 821.895 420.218C821.876 420.205 821.856 420.192 821.835 420.181C821.347 419.926 820.873 419.715 820.412 419.547C820.382 419.536 820.352 419.526 820.322 419.515C820.291 419.504 820.261 419.492 820.231 419.481C819.77 419.314 819.271 419.171 818.734 419.052C818.71 419.047 818.687 419.044 818.664 419.042C818.607 419.037 818.555 419.043 818.511 419.056ZM822.912 412.133C823.308 412.277 823.668 412.286 823.716 412.154C823.764 412.021 823.482 411.797 823.087 411.653C822.691 411.509 822.331 411.5 822.283 411.632C822.235 411.765 822.516 411.989 822.912 412.133ZM823.454 412.874C823.406 413.006 823.046 412.997 822.65 412.853C822.254 412.709 821.973 412.485 822.021 412.352C822.069 412.22 822.429 412.229 822.825 412.373C823.22 412.517 823.502 412.741 823.454 412.874ZM822.388 413.573C822.784 413.717 823.143 413.727 823.192 413.594C823.24 413.461 822.958 413.237 822.563 413.093C822.167 412.949 821.807 412.94 821.759 413.072C821.71 413.205 821.992 413.429 822.388 413.573ZM825.603 413.656C825.555 413.789 825.195 413.779 824.799 413.635C824.404 413.491 824.122 413.267 824.17 413.135C824.218 413.002 824.578 413.011 824.974 413.155C825.37 413.299 825.651 413.524 825.603 413.656ZM820.501 412.071C820.896 412.215 821.256 412.224 821.304 412.092C821.353 411.959 821.071 411.735 820.675 411.591C820.28 411.447 819.92 411.437 819.871 411.57C819.823 411.703 820.105 411.927 820.501 412.071ZM824.063 416.453C823.841 416.399 823.801 416.113 823.974 415.814C824.147 415.515 824.453 415.345 824.658 415.434C824.862 415.523 824.902 415.809 824.747 416.074C824.591 416.338 824.285 416.508 824.063 416.453ZM818.348 413.145C818.279 413.389 818.405 413.638 818.631 413.702C818.856 413.766 819.089 413.614 819.149 413.362C819.209 413.11 819.082 412.86 818.866 412.804C818.649 412.749 818.418 412.901 818.348 413.145ZM819.294 414.632C819.061 414.561 818.923 414.299 818.984 414.047C819.045 413.795 819.276 413.641 819.5 413.703C819.724 413.765 819.863 414.027 819.811 414.288C819.758 414.549 819.526 414.703 819.294 414.632ZM819.665 414.996C819.611 415.257 819.759 415.531 819.997 415.608C820.235 415.685 820.467 415.53 820.514 415.26C820.561 414.992 820.411 414.718 820.18 414.649C819.949 414.58 819.719 414.735 819.665 414.996ZM822.102 414.021C822.194 414.089 822.312 414.132 822.426 414.137L824.619 414.247C824.682 414.25 824.743 414.291 824.755 414.339C824.767 414.383 824.732 414.417 824.675 414.419L822.627 414.469C822.496 414.472 822.393 414.527 822.354 414.614L821.708 416.064C821.687 416.111 821.612 416.126 821.541 416.097C821.475 416.071 821.434 416.016 821.446 415.97L821.855 414.433C821.879 414.34 821.833 414.232 821.732 414.145L820.108 412.757C820.062 412.717 820.059 412.664 820.102 412.639C820.143 412.615 820.21 412.624 820.257 412.659L822.102 414.021Z" fill="#525F78"/>
<path fill-rule="evenodd" clip-rule="evenodd" d="M825.503 407.159L825.405 407.124C823.743 406.519 822.058 406.059 820.377 405.747C819.499 405.585 818.792 405.963 818.797 406.593C818.802 407.222 819.517 407.865 820.395 408.027C821.817 408.29 823.243 408.68 824.652 409.193L824.735 409.223C825.586 409.536 826.449 409.328 826.661 408.758C826.873 408.188 826.354 407.472 825.503 407.159ZM832.555 410.826C833.96 411.815 835.23 412.902 836.339 414.06C836.903 414.649 836.814 415.35 836.141 415.626C835.468 415.902 834.466 415.649 833.903 415.06C832.964 414.08 831.889 413.16 830.701 412.325C829.988 411.823 829.825 411.081 830.337 410.667C830.849 410.254 831.842 410.325 832.555 410.826ZM841.119 423.406C840.994 422.146 840.652 420.862 840.103 419.586C839.823 418.937 838.923 418.445 838.091 418.488C837.259 418.53 836.81 419.091 837.09 419.739C837.554 420.819 837.844 421.904 837.949 422.97C838.012 423.609 838.772 424.224 839.648 424.345C840.523 424.465 841.182 424.045 841.119 423.406ZM840.218 428.736C839.698 429.828 838.976 430.819 838.071 431.694C837.608 432.141 836.629 432.12 835.883 431.648C835.137 431.175 834.907 430.43 835.369 429.983C836.135 429.244 836.745 428.406 837.186 427.481C837.448 426.931 838.339 426.766 839.177 427.112C840.014 427.459 840.481 428.185 840.218 428.736ZM828.332 435.747C829.93 435.58 831.441 435.255 832.828 434.78C833.533 434.539 833.68 433.854 833.157 433.251C832.634 432.647 831.639 432.353 830.934 432.594C829.76 432.996 828.48 433.271 827.127 433.412C826.315 433.497 825.926 434.088 826.259 434.733C826.592 435.378 827.52 435.831 828.332 435.747ZM815.615 434.019C817.31 434.636 819.03 435.102 820.745 435.414C821.622 435.573 822.326 435.191 822.317 434.561C822.307 433.931 821.588 433.29 820.711 433.131C819.261 432.868 817.805 432.473 816.368 431.95C816.345 431.942 816.33 431.936 816.317 431.932C816.294 431.923 816.278 431.917 816.235 431.901C815.384 431.587 814.52 431.793 814.306 432.362C814.091 432.93 814.607 433.647 815.458 433.961C815.497 433.976 815.517 433.983 815.537 433.99C815.556 433.997 815.574 434.004 815.611 434.018C814.761 433.706 814.24 432.993 814.448 432.423C814.656 431.851 815.516 431.64 816.368 431.95C817.221 432.26 817.743 432.975 817.535 433.546C817.327 434.118 816.468 434.329 815.615 434.019ZM808.272 406.334C809.664 405.865 811.179 405.547 812.781 405.386C813.594 405.304 814.52 405.761 814.849 406.406C815.178 407.051 814.785 407.64 813.972 407.722C812.616 407.858 811.333 408.128 810.154 408.525C809.446 408.763 808.452 408.466 807.932 407.861C807.413 407.256 807.565 406.573 808.272 406.334ZM803.002 409.397C802.09 410.268 801.36 411.255 800.831 412.343C800.565 412.892 801.027 413.619 801.863 413.968C802.7 414.317 803.593 414.156 803.86 413.607C804.307 412.686 804.924 411.851 805.695 411.115C806.161 410.671 805.936 409.926 805.193 409.452C804.449 408.977 803.468 408.953 803.002 409.397ZM800.885 421.482C800.344 420.205 800.01 418.922 799.894 417.662C799.835 417.024 800.497 416.607 801.373 416.731C802.249 416.854 803.006 417.472 803.065 418.11C803.163 419.175 803.445 420.259 803.903 421.339C804.178 421.988 803.725 422.546 802.892 422.586C802.058 422.625 801.16 422.13 800.885 421.482ZM804.616 427.015C805.718 428.176 806.983 429.266 808.383 430.258C809.094 430.762 810.087 430.837 810.602 430.425C811.118 430.014 810.96 429.272 810.249 428.769C809.065 427.93 807.995 427.008 807.062 426.025C806.502 425.435 805.5 425.178 804.825 425.452C804.149 425.725 804.055 426.425 804.616 427.015Z" fill="#4D5A71"/>
</g>
<g opacity="0.2">
<path d="M288.112 579.27C300.194 573.721 306.985 562.682 303.279 554.613C302.365 552.621 301.219 549.847 301.219 549.847C301.219 549.847 282.546 543.71 273.447 547.889C264.111 552.175 257.104 569.239 257.104 569.239C257.104 569.239 258.683 572.871 259.525 574.705C263.231 582.774 276.029 584.818 288.112 579.27Z" fill="#0A0F18"/>
<path d="M284.19 573.528C295.684 568.25 302.299 558.087 298.966 550.828C295.632 543.568 283.612 541.962 272.118 547.24C260.625 552.518 254.009 562.682 257.343 569.941C260.676 577.2 272.696 578.806 284.19 573.528Z" fill="#182134"/>
<path fill-rule="evenodd" clip-rule="evenodd" d="M257.783 570.717C254.045 562.577 260.762 551.658 272.951 546.061C285.139 540.464 297.799 542.485 301.537 550.625C305.275 558.765 298.558 569.685 286.369 575.282C274.18 580.879 261.521 578.858 257.783 570.717ZM264.033 567.847C266.717 573.691 275.701 575.126 284.452 571.108C293.203 567.089 297.97 559.34 295.286 553.496C292.603 547.652 283.618 546.217 274.868 550.236C266.117 554.254 261.35 562.003 264.033 567.847Z" fill="#35435A"/>
<path fill-rule="evenodd" clip-rule="evenodd" d="M280.36 552.845L277.015 553.05C276.793 553.064 276.559 553.171 276.404 553.331L274.068 555.734C273.952 555.854 273.911 555.995 273.961 556.105L274.997 558.36C275.047 558.471 275.183 558.532 275.352 558.521L278.688 558.294C278.908 558.28 279.137 558.174 279.291 558.018L281.637 555.635C281.756 555.514 281.798 555.371 281.747 555.26L280.712 553.006C280.661 552.896 280.527 552.834 280.36 552.845ZM278.479 560.447C278.45 560.483 278.431 560.521 278.424 560.559L277.539 565.666L273.29 560.938C273.236 560.879 273.13 560.86 273.019 560.891C272.593 561.01 271.987 561.249 271.201 561.61C270.525 561.92 270.04 562.172 269.745 562.364C269.607 562.454 269.559 562.596 269.637 562.68L275.376 568.853C275.49 568.976 275.714 569.008 275.945 568.935C276.708 568.692 277.442 568.386 278.148 568.018C278.713 567.723 279.26 567.388 279.788 567.013C280.235 566.695 280.524 566.273 280.571 565.869L280.985 562.327L283.941 564.322C284.278 564.549 284.787 564.605 285.319 564.473C285.948 564.317 286.558 564.12 287.15 563.884C287.89 563.589 288.6 563.231 289.282 562.81C289.487 562.684 289.609 562.493 289.59 562.326L288.648 553.95C288.635 553.836 288.496 553.78 288.338 553.826C288 553.924 287.493 554.129 286.817 554.439C286.032 554.8 285.455 555.103 285.087 555.349C284.991 555.414 284.937 555.505 284.947 555.585L285.763 561.889L281.313 559.233C281.28 559.213 281.239 559.202 281.193 559.201C281.156 559.193 281.114 559.192 281.069 559.2C281.051 559.203 281.032 559.207 281.014 559.213C280.591 559.342 280.201 559.49 279.843 559.654C279.819 559.665 279.796 559.676 279.773 559.687C279.749 559.697 279.725 559.708 279.702 559.719C279.344 559.883 278.978 560.083 278.604 560.319C278.588 560.329 278.572 560.341 278.558 560.353C278.523 560.382 278.496 560.414 278.479 560.447ZM277.084 554.005C277.391 553.864 277.602 553.666 277.555 553.563C277.507 553.46 277.22 553.49 276.912 553.632C276.605 553.773 276.394 553.971 276.441 554.074C276.489 554.177 276.776 554.146 277.084 554.005ZM277.812 554.122C277.859 554.225 277.648 554.423 277.341 554.564C277.033 554.706 276.746 554.737 276.699 554.634C276.651 554.531 276.862 554.333 277.17 554.191C277.477 554.05 277.765 554.019 277.812 554.122ZM277.597 555.123C277.904 554.982 278.115 554.784 278.068 554.681C278.021 554.578 277.733 554.609 277.425 554.75C277.118 554.892 276.907 555.09 276.954 555.193C277.002 555.296 277.289 555.265 277.597 555.123ZM279.482 553.355C279.53 553.458 279.319 553.656 279.011 553.798C278.704 553.939 278.416 553.97 278.369 553.867C278.322 553.764 278.532 553.566 278.84 553.424C279.147 553.283 279.435 553.252 279.482 553.355ZM275.671 555.331C275.978 555.19 276.189 554.992 276.142 554.889C276.094 554.786 275.807 554.817 275.499 554.958C275.192 555.099 274.981 555.297 275.028 555.4C275.076 555.503 275.363 555.472 275.671 555.331ZM280.181 555.823C280.024 555.918 279.839 555.777 279.769 555.508C279.699 555.24 279.778 554.97 279.945 554.905C280.112 554.84 280.297 554.981 280.357 555.22C280.418 555.459 280.339 555.729 280.181 555.823ZM275.047 557.161C275.145 557.34 275.358 557.411 275.523 557.32C275.688 557.229 275.735 557.011 275.627 556.833C275.519 556.654 275.305 556.584 275.15 556.674C274.995 556.764 274.949 556.983 275.047 557.161ZM276.426 557.476C276.254 557.567 276.027 557.496 275.919 557.317C275.812 557.138 275.856 556.92 276.02 556.829C276.183 556.738 276.411 556.809 276.528 556.988C276.645 557.167 276.599 557.386 276.426 557.476ZM276.845 557.475C276.961 557.654 277.2 557.727 277.38 557.637C277.559 557.547 277.604 557.327 277.479 557.146C277.354 556.966 277.113 556.894 276.943 556.985C276.772 557.076 276.728 557.295 276.845 557.475ZM277.687 555.541C277.778 555.528 277.87 555.486 277.938 555.425L279.254 554.248C279.291 554.215 279.349 554.204 279.383 554.224C279.414 554.243 279.414 554.282 279.382 554.315L278.24 555.501C278.167 555.577 278.139 555.666 278.166 555.737L278.616 556.931C278.63 556.97 278.596 557.021 278.539 557.045C278.487 557.067 278.432 557.058 278.413 557.025L277.779 555.916C277.74 555.849 277.653 555.814 277.546 555.821L275.834 555.945C275.784 555.948 275.753 555.919 275.764 555.881C275.773 555.844 275.817 555.811 275.863 555.804L277.687 555.541Z" fill="#0A0F18"/>
<path fill-rule="evenodd" clip-rule="evenodd" d="M279.576 552.718L276.232 552.924C276.009 552.937 275.775 553.044 275.62 553.205L273.284 555.607C273.168 555.727 273.127 555.869 273.177 555.979L274.213 558.234C274.264 558.344 274.399 558.406 274.568 558.394L277.904 558.168C278.124 558.153 278.353 558.048 278.507 557.891L280.853 555.508C280.972 555.388 281.014 555.245 280.963 555.134L279.928 552.879C279.877 552.769 279.743 552.708 279.576 552.718ZM277.695 560.321C277.666 560.356 277.647 560.395 277.64 560.433L276.755 565.539L272.506 560.812C272.452 560.752 272.347 560.734 272.235 560.765C271.809 560.883 271.203 561.123 270.417 561.484C269.742 561.794 269.256 562.045 268.962 562.238C268.823 562.328 268.775 562.469 268.853 562.554L274.592 568.727C274.706 568.85 274.93 568.882 275.161 568.809C275.924 568.565 276.658 568.26 277.364 567.891C277.929 567.597 278.476 567.261 279.004 566.886C279.451 566.569 279.74 566.147 279.787 565.743L280.201 562.201L283.157 564.195C283.495 564.423 284.003 564.479 284.535 564.346C285.164 564.19 285.774 563.994 286.366 563.758C287.106 563.462 287.816 563.104 288.498 562.684C288.704 562.557 288.825 562.366 288.806 562.199L287.864 553.824C287.851 553.709 287.712 553.654 287.554 553.7C287.216 553.798 286.709 554.002 286.033 554.312C285.248 554.673 284.671 554.977 284.303 555.223C284.207 555.287 284.153 555.379 284.163 555.459L284.979 561.763L280.529 559.106C280.496 559.086 280.455 559.076 280.409 559.075C280.372 559.067 280.33 559.066 280.285 559.073C280.267 559.076 280.248 559.081 280.23 559.086C279.807 559.216 279.417 559.363 279.059 559.528C279.036 559.538 279.012 559.549 278.989 559.56C278.965 559.571 278.941 559.582 278.918 559.592C278.56 559.757 278.194 559.957 277.82 560.193C277.804 560.203 277.789 560.214 277.774 560.226C277.739 560.256 277.712 560.288 277.695 560.321ZM276.3 553.878C276.607 553.737 276.818 553.539 276.771 553.436C276.723 553.333 276.436 553.364 276.128 553.505C275.821 553.647 275.61 553.844 275.657 553.948C275.705 554.051 275.992 554.02 276.3 553.878ZM277.028 553.996C277.075 554.099 276.864 554.297 276.557 554.438C276.25 554.579 275.962 554.61 275.915 554.507C275.867 554.404 276.078 554.206 276.386 554.065C276.693 553.924 276.981 553.893 277.028 553.996ZM276.813 554.997C277.12 554.856 277.331 554.658 277.284 554.555C277.237 554.452 276.949 554.483 276.642 554.624C276.334 554.765 276.123 554.963 276.17 555.066C276.218 555.169 276.505 555.138 276.813 554.997ZM278.698 553.229C278.746 553.332 278.535 553.53 278.227 553.671C277.92 553.812 277.632 553.843 277.585 553.74C277.538 553.637 277.748 553.439 278.056 553.298C278.363 553.157 278.651 553.126 278.698 553.229ZM274.887 555.205C275.194 555.064 275.405 554.866 275.358 554.763C275.31 554.66 275.023 554.691 274.715 554.832C274.408 554.973 274.197 555.171 274.244 555.274C274.292 555.377 274.579 555.346 274.887 555.205ZM279.397 555.697C279.24 555.791 279.055 555.65 278.985 555.382C278.915 555.114 278.994 554.843 279.161 554.779C279.328 554.714 279.513 554.855 279.573 555.094C279.634 555.333 279.555 555.603 279.397 555.697ZM274.263 557.035C274.361 557.213 274.574 557.284 274.739 557.194C274.904 557.103 274.951 556.885 274.843 556.706C274.735 556.528 274.522 556.457 274.366 556.548C274.211 556.638 274.165 556.856 274.263 557.035ZM275.642 557.35C275.47 557.441 275.243 557.369 275.135 557.191C275.028 557.012 275.072 556.794 275.236 556.703C275.399 556.612 275.627 556.683 275.744 556.861C275.861 557.04 275.815 557.259 275.642 557.35ZM276.061 557.348C276.177 557.528 276.417 557.601 276.596 557.511C276.775 557.42 276.82 557.2 276.695 557.02C276.57 556.84 276.329 556.768 276.159 556.859C275.988 556.95 275.944 557.169 276.061 557.348ZM276.903 555.415C276.995 555.402 277.086 555.359 277.154 555.298L278.47 554.122C278.507 554.088 278.565 554.077 278.599 554.097C278.63 554.116 278.63 554.156 278.598 554.189L277.456 555.374C277.383 555.45 277.355 555.539 277.382 555.611L277.832 556.805C277.846 556.844 277.812 556.894 277.755 556.918C277.703 556.941 277.648 556.932 277.629 556.899L276.995 555.79C276.956 555.723 276.869 555.687 276.762 555.695L275.05 555.818C275 555.822 274.969 555.793 274.98 555.754C274.989 555.718 275.033 555.685 275.079 555.678L276.903 555.415Z" fill="#525F78"/>
<path fill-rule="evenodd" clip-rule="evenodd" d="M274.971 549.573L274.895 549.608C273.604 550.201 272.381 550.89 271.244 551.662C270.651 552.064 270.46 552.68 270.819 553.037C271.177 553.394 271.949 553.357 272.542 552.954C273.503 552.301 274.538 551.718 275.634 551.215L275.698 551.186C276.361 550.884 276.736 550.278 276.536 549.833C276.335 549.387 275.634 549.271 274.971 549.573ZM281.073 547.685C282.434 547.457 283.774 547.36 285.062 547.395C285.717 547.414 286.062 547.864 285.833 548.402C285.605 548.94 284.889 549.362 284.235 549.343C283.144 549.313 282.011 549.395 280.86 549.588C280.169 549.705 279.657 549.373 279.716 548.847C279.774 548.321 280.382 547.801 281.073 547.685ZM293.072 550.037C292.289 549.387 291.368 548.847 290.333 548.428C289.807 548.214 289.015 548.442 288.563 548.937C288.112 549.431 288.172 550.004 288.698 550.217C289.574 550.572 290.352 551.029 291.014 551.578C291.411 551.908 292.193 551.83 292.762 551.404C293.33 550.979 293.469 550.367 293.072 550.037ZM295.568 553.591C295.888 554.509 296.035 555.484 296.012 556.495C296 557.012 295.428 557.553 294.735 557.704C294.042 557.856 293.49 557.56 293.502 557.043C293.522 556.188 293.397 555.365 293.127 554.588C292.966 554.125 293.382 553.527 294.056 553.252C294.73 552.977 295.407 553.129 295.568 553.591ZM292.735 564.312C293.554 563.314 294.234 562.275 294.759 561.22C295.025 560.684 294.722 560.21 294.083 560.16C293.443 560.11 292.708 560.505 292.441 561.041C291.997 561.934 291.421 562.814 290.727 563.659C290.311 564.166 290.423 564.723 290.978 564.904C291.532 565.084 292.319 564.819 292.735 564.312ZM284.522 570.494C285.828 569.893 287.064 569.192 288.211 568.408C288.803 568.003 288.989 567.388 288.628 567.033C288.266 566.678 287.494 566.718 286.902 567.123C285.925 567.791 284.87 568.388 283.754 568.901C283.746 568.904 283.737 568.908 283.729 568.912L283.651 568.948C282.987 569.249 282.609 569.854 282.808 570.301C283.007 570.747 283.706 570.865 284.37 570.564C284.401 570.55 284.416 570.543 284.432 570.536C284.447 570.529 284.462 570.522 284.493 570.508C284.503 570.504 284.512 570.499 284.522 570.494ZM284.522 570.494C285.166 570.186 285.524 569.591 285.323 569.153C285.119 568.71 284.417 568.596 283.754 568.9L283.729 568.912C283.082 569.22 282.722 569.817 282.923 570.255C283.127 570.699 283.829 570.812 284.492 570.508C284.502 570.504 284.512 570.499 284.522 570.494ZM264.658 558.834C265.189 557.78 265.875 556.742 266.699 555.746C267.118 555.24 267.905 554.977 268.458 555.16C269.01 555.343 269.118 555.902 268.699 556.408C268.001 557.251 267.42 558.131 266.971 559.024C266.701 559.559 265.965 559.951 265.326 559.899C264.688 559.847 264.389 559.37 264.658 558.834ZM263.377 563.561C263.347 564.574 263.487 565.551 263.8 566.471C263.958 566.935 264.633 567.09 265.308 566.817C265.983 566.544 266.402 565.947 266.245 565.483C265.98 564.704 265.861 563.879 265.886 563.022C265.901 562.505 265.352 562.207 264.659 562.355C263.966 562.504 263.392 563.044 263.377 563.561ZM268.992 571.663C267.961 571.239 267.046 570.695 266.268 570.04C265.874 569.709 266.017 569.096 266.587 568.672C267.157 568.249 267.939 568.174 268.333 568.505C268.99 569.059 269.764 569.519 270.636 569.877C271.16 570.093 271.216 570.668 270.762 571.161C270.308 571.654 269.515 571.879 268.992 571.663ZM274.25 572.718C275.535 572.759 276.874 572.667 278.235 572.444C278.925 572.33 279.535 571.812 279.598 571.286C279.66 570.76 279.15 570.425 278.46 570.539C277.31 570.728 276.177 570.805 275.089 570.771C274.435 570.75 273.718 571.169 273.486 571.707C273.254 572.245 273.596 572.697 274.25 572.718Z" fill="#4D5A71"/>
</g>
<g opacity="0.4">
<path d="M320.469 369.632C339.397 376.522 360.308 366.813 367.174 347.948C374.041 329.083 364.263 308.205 345.334 301.315C326.406 294.426 305.495 304.134 298.629 323C291.762 341.865 301.541 362.743 320.469 369.632Z" fill="#0A0F18"/>
<path d="M321.336 358.56C336.127 363.943 352.482 356.317 357.865 341.526C363.248 326.735 355.622 310.381 340.831 304.997C326.04 299.614 309.686 307.24 304.302 322.031C298.919 336.822 306.545 353.176 321.336 358.56Z" fill="#182134"/>
<path fill-rule="evenodd" clip-rule="evenodd" d="M296.857 319.454C303.783 300.422 324.467 290.819 343.562 297.769C362.657 304.719 372.329 325.371 365.402 344.402C358.475 363.433 337.792 373.036 318.697 366.086C299.602 359.136 289.93 338.485 296.857 319.454ZM306.649 323.018C301.676 336.681 308.54 351.337 322.249 356.327C335.958 361.316 350.637 354.501 355.61 340.838C360.583 327.175 353.719 312.519 340.01 307.529C326.301 302.539 311.622 309.354 306.649 323.018Z" fill="#35435A"/>
<path fill-rule="evenodd" clip-rule="evenodd" d="M341.616 320.41L338.102 316.222C337.868 315.943 337.503 315.81 337.144 315.873L331.76 316.822C331.491 316.87 331.267 317.057 331.174 317.314L329.255 322.586C329.161 322.845 329.213 323.134 329.392 323.344L332.925 327.485C333.158 327.757 333.516 327.888 333.87 327.829L339.238 326.928C339.51 326.882 339.736 326.694 339.83 326.435L341.749 321.163C341.842 320.906 341.792 320.619 341.616 320.41ZM337.961 317.833C337.873 318.074 337.412 318.127 336.93 317.951C336.448 317.776 336.129 317.439 336.216 317.198C336.304 316.957 336.766 316.904 337.247 317.079C337.729 317.255 338.049 317.592 337.961 317.833ZM336.454 319.26C336.935 319.435 337.397 319.382 337.485 319.141C337.572 318.9 337.253 318.563 336.771 318.388C336.29 318.212 335.828 318.265 335.74 318.506C335.653 318.747 335.972 319.084 336.454 319.26ZM337.009 320.449C336.921 320.69 336.459 320.743 335.978 320.568C335.496 320.393 335.176 320.055 335.264 319.815C335.352 319.574 335.813 319.521 336.295 319.696C336.777 319.871 337.096 320.209 337.009 320.449ZM339.07 320.212C339.552 320.387 340.014 320.334 340.101 320.094C340.189 319.853 339.87 319.515 339.388 319.34C338.906 319.165 338.445 319.218 338.357 319.459C338.269 319.699 338.589 320.037 339.07 320.212ZM334.868 318.189C334.78 318.43 334.319 318.483 333.837 318.307C333.355 318.132 333.036 317.795 333.124 317.554C333.211 317.313 333.673 317.26 334.155 317.435C334.636 317.61 334.956 317.948 334.868 318.189ZM337.588 324.176C337.308 324.731 337.304 325.224 337.58 325.276C337.855 325.328 338.282 324.972 338.533 324.481C338.784 323.99 338.788 323.497 338.541 323.381C338.295 323.265 337.868 323.621 337.588 324.176ZM331.115 321.517C330.837 321.449 330.723 321.037 330.859 320.598C330.996 320.159 331.323 319.848 331.591 319.904C331.859 319.959 331.975 320.371 331.848 320.823C331.722 321.275 331.393 321.586 331.115 321.517ZM331.504 322.051C331.377 322.503 331.505 322.934 331.79 323.013C332.075 323.092 332.403 322.778 332.522 322.313C332.64 321.847 332.511 321.417 332.234 321.351C331.958 321.285 331.631 321.599 331.504 322.051ZM332.507 324.583C332.216 324.494 332.078 324.044 332.198 323.578C332.318 323.112 332.644 322.796 332.928 322.872C333.212 322.948 333.352 323.397 333.24 323.876C333.127 324.355 332.799 324.672 332.507 324.583ZM335.918 321.546C335.772 321.558 335.629 321.507 335.523 321.406L333.411 319.381C333.357 319.329 333.272 319.327 333.215 319.376C333.154 319.428 333.148 319.52 333.2 319.581L335.023 321.694C335.136 321.826 335.175 322.006 335.126 322.172L334.304 324.936C334.279 325.018 334.321 325.107 334.401 325.14C334.487 325.176 334.586 325.135 334.622 325.049L335.734 322.392C335.801 322.232 335.943 322.118 336.113 322.087L338.759 321.604C338.833 321.591 338.885 321.523 338.878 321.449C338.872 321.368 338.801 321.309 338.721 321.315L335.918 321.546ZM322.25 338.564L329.731 331.01C329.787 330.953 329.856 330.913 329.93 330.892C329.99 330.86 330.057 330.84 330.13 330.837C330.159 330.836 330.188 330.838 330.217 330.842C330.887 330.946 331.502 331.099 332.063 331.303C332.099 331.317 332.136 331.33 332.173 331.344C332.21 331.357 332.247 331.37 332.283 331.384C332.844 331.588 333.414 331.865 333.993 332.217C334.018 332.232 334.042 332.249 334.063 332.269C334.117 332.318 334.157 332.376 334.182 332.439C334.225 332.503 334.251 332.578 334.258 332.657L335.134 343.253L342.516 331.337C342.61 331.186 342.782 331.102 342.959 331.122C343.635 331.199 344.589 331.462 345.82 331.91C346.878 332.295 347.635 332.633 348.091 332.924C348.304 333.06 348.367 333.344 348.231 333.557L338.284 349.197C338.086 349.508 337.72 349.671 337.356 349.609C336.149 349.405 334.994 349.054 333.894 348.556C333.012 348.158 332.165 347.666 331.351 347.08C330.663 346.584 330.242 345.798 330.21 344.951L329.926 337.517L324.93 343.029C324.361 343.658 323.533 343.989 322.687 343.926C321.687 343.852 320.722 343.685 319.791 343.423C318.628 343.097 317.518 342.624 316.461 342.004C316.143 341.817 315.967 341.458 316.016 341.092L318.449 322.717C318.482 322.466 318.712 322.29 318.963 322.323C319.499 322.393 320.296 322.62 321.355 323.006C322.586 323.454 323.485 323.865 324.053 324.241C324.201 324.339 324.279 324.514 324.254 324.689L322.25 338.564Z" fill="#0A0F18"/>
<path fill-rule="evenodd" clip-rule="evenodd" d="M341.018 319.128L337.504 314.94C337.27 314.661 336.905 314.528 336.546 314.591L331.162 315.541C330.893 315.588 330.67 315.776 330.576 316.032L328.658 321.304C328.563 321.563 328.616 321.853 328.794 322.062L332.328 326.203C332.56 326.476 332.919 326.606 333.272 326.547L338.64 325.646C338.912 325.6 339.138 325.412 339.233 325.153L341.151 319.881C341.245 319.625 341.194 319.337 341.018 319.128ZM337.363 316.551C337.276 316.792 336.814 316.845 336.332 316.67C335.851 316.494 335.531 316.157 335.619 315.916C335.706 315.675 336.168 315.622 336.65 315.797C337.131 315.973 337.451 316.31 337.363 316.551ZM335.856 317.978C336.338 318.153 336.799 318.1 336.887 317.859C336.975 317.619 336.655 317.281 336.174 317.106C335.692 316.93 335.23 316.984 335.143 317.224C335.055 317.465 335.374 317.803 335.856 317.978ZM336.411 319.168C336.323 319.409 335.862 319.462 335.38 319.286C334.898 319.111 334.579 318.774 334.666 318.533C334.754 318.292 335.216 318.239 335.697 318.414C336.179 318.589 336.499 318.927 336.411 319.168ZM338.473 318.93C338.954 319.106 339.416 319.053 339.504 318.812C339.591 318.571 339.272 318.234 338.79 318.058C338.309 317.883 337.847 317.936 337.759 318.177C337.672 318.418 337.991 318.755 338.473 318.93ZM334.27 316.907C334.183 317.148 333.721 317.201 333.239 317.026C332.758 316.85 332.438 316.513 332.526 316.272C332.614 316.031 333.075 315.978 333.557 316.153C334.039 316.329 334.358 316.666 334.27 316.907ZM336.991 322.894C336.71 323.45 336.707 323.942 336.982 323.994C337.258 324.047 337.684 323.691 337.935 323.199C338.186 322.708 338.19 322.215 337.944 322.099C337.697 321.983 337.271 322.339 336.991 322.894ZM330.518 320.235C330.24 320.167 330.125 319.756 330.261 319.317C330.398 318.878 330.726 318.566 330.993 318.622C331.261 318.677 331.377 319.089 331.251 319.541C331.124 319.993 330.796 320.304 330.518 320.235ZM330.906 320.769C330.779 321.222 330.907 321.652 331.192 321.731C331.478 321.81 331.806 321.497 331.924 321.031C332.042 320.566 331.913 320.135 331.636 320.069C331.36 320.004 331.033 320.317 330.906 320.769ZM331.91 323.301C331.619 323.212 331.48 322.762 331.601 322.296C331.72 321.83 332.047 321.514 332.33 321.59C332.614 321.666 332.754 322.116 332.642 322.594C332.529 323.073 332.201 323.39 331.91 323.301ZM335.32 320.264C335.175 320.276 335.031 320.225 334.925 320.124L332.813 318.099C332.759 318.047 332.674 318.045 332.617 318.094C332.557 318.146 332.55 318.238 332.602 318.299L334.425 320.412C334.539 320.544 334.578 320.724 334.528 320.891L333.706 323.654C333.681 323.737 333.723 323.825 333.803 323.858C333.889 323.894 333.989 323.854 334.025 323.767L335.136 321.11C335.203 320.951 335.346 320.836 335.515 320.805L338.162 320.322C338.235 320.309 338.287 320.242 338.281 320.167C338.274 320.087 338.204 320.027 338.123 320.034L335.32 320.264ZM321.652 337.282L329.134 329.728C329.189 329.672 329.258 329.632 329.332 329.61C329.392 329.578 329.46 329.558 329.532 329.556C329.562 329.554 329.591 329.556 329.62 329.561C330.289 329.664 330.904 329.817 331.465 330.022C331.502 330.035 331.538 330.049 331.575 330.063C331.612 330.075 331.649 330.089 331.686 330.102C332.246 330.306 332.816 330.584 333.395 330.935C333.42 330.95 333.444 330.968 333.466 330.987C333.519 331.036 333.559 331.094 333.584 331.158C333.627 331.222 333.654 331.297 333.66 331.376L334.536 341.971L341.919 330.055C342.012 329.904 342.184 329.82 342.361 329.84C343.037 329.918 343.991 330.18 345.222 330.628C346.28 331.013 347.037 331.352 347.493 331.642C347.706 331.779 347.769 332.062 347.633 332.276L337.686 347.915C337.488 348.227 337.122 348.389 336.758 348.327C335.551 348.123 334.397 347.772 333.296 347.274C332.414 346.876 331.567 346.384 330.754 345.798C330.066 345.302 329.644 344.517 329.612 343.669L329.328 336.236L324.333 341.747C323.763 342.376 322.935 342.707 322.089 342.644C321.09 342.571 320.124 342.403 319.193 342.141C318.03 341.815 316.92 341.342 315.864 340.722C315.545 340.536 315.37 340.176 315.418 339.81L317.851 321.436C317.884 321.185 318.115 321.008 318.366 321.041C318.902 321.111 319.699 321.339 320.757 321.724C321.988 322.172 322.887 322.584 323.455 322.959C323.603 323.057 323.681 323.232 323.656 323.408L321.652 337.282Z" fill="#525F78"/>
<path fill-rule="evenodd" clip-rule="evenodd" d="M340.626 307.483L340.508 307.44C338.484 306.703 336.403 306.224 334.298 306.004C333.2 305.89 332.216 306.687 332.101 307.786C331.986 308.884 332.784 309.868 333.883 309.983C335.662 310.169 337.424 310.574 339.139 311.198L339.24 311.235C340.276 311.618 341.426 311.088 341.809 310.052C342.192 309.016 341.662 307.866 340.626 307.483ZM348.999 312.53C350.617 313.986 352.044 315.639 353.249 317.449C353.861 318.368 353.612 319.61 352.692 320.222C351.772 320.834 350.531 320.585 349.919 319.665C348.9 318.133 347.693 316.735 346.324 315.504C345.503 314.765 345.436 313.501 346.174 312.679C346.913 311.858 348.178 311.791 348.999 312.53ZM357.602 332.853C357.684 330.675 357.491 328.5 357.03 326.376C356.795 325.296 355.73 324.611 354.651 324.845C353.571 325.08 352.886 326.145 353.121 327.224C353.511 329.021 353.675 330.86 353.605 332.701C353.563 333.805 354.423 334.734 355.527 334.776C356.631 334.818 357.56 333.957 357.602 332.853ZM355.416 342.335C354.536 344.343 353.415 346.213 352.081 347.916C351.399 348.785 350.142 348.938 349.273 348.257C348.404 347.575 348.251 346.318 348.932 345.449C350.06 344.009 351.008 342.428 351.753 340.729C352.197 339.717 353.376 339.257 354.388 339.7C355.399 340.144 355.86 341.323 355.416 342.335ZM338.762 356.871C340.851 356.272 342.859 355.413 344.736 354.317C345.69 353.76 346.012 352.535 345.455 351.582C344.898 350.628 343.673 350.306 342.719 350.863C341.13 351.791 339.429 352.519 337.659 353.026C336.598 353.33 335.984 354.438 336.288 355.5C336.593 356.562 337.7 357.175 338.762 356.871ZM322.721 356.303C324.785 357.054 326.909 357.537 329.057 357.751C330.156 357.86 331.136 357.058 331.245 355.959C331.354 354.86 330.552 353.88 329.453 353.771C327.637 353.59 325.839 353.181 324.089 352.544C324.049 352.53 324.028 352.522 324.008 352.515C323.988 352.507 323.968 352.5 323.927 352.485C322.892 352.099 321.741 352.625 321.355 353.66C320.969 354.695 321.495 355.847 322.53 356.233C322.578 356.251 322.602 356.259 322.626 356.268C322.65 356.277 322.673 356.286 322.721 356.303ZM322.721 356.303C323.759 356.681 324.907 356.146 325.285 355.108C325.662 354.07 325.127 352.922 324.089 352.544C323.051 352.167 321.904 352.702 321.526 353.74C321.148 354.778 321.683 355.925 322.721 356.303ZM318.6 309.362C320.483 308.274 322.495 307.426 324.588 306.837C325.651 306.537 326.756 307.157 327.055 308.22C327.354 309.283 326.735 310.388 325.672 310.687C323.9 311.186 322.195 311.905 320.601 312.825C319.644 313.378 318.421 313.05 317.869 312.094C317.316 311.137 317.644 309.914 318.6 309.362ZM311.225 315.726C309.883 317.423 308.753 319.288 307.863 321.291C307.414 322.3 307.869 323.482 308.878 323.931C309.888 324.379 311.07 323.924 311.518 322.915C312.271 321.22 313.227 319.643 314.362 318.209C315.047 317.343 314.901 316.085 314.035 315.4C313.169 314.714 311.911 314.86 311.225 315.726ZM306.171 337.242C305.72 335.116 305.537 332.94 305.631 330.762C305.678 329.658 306.611 328.802 307.715 328.849C308.819 328.897 309.675 329.83 309.627 330.933C309.548 332.774 309.703 334.614 310.084 336.412C310.313 337.493 309.623 338.555 308.543 338.784C307.462 339.013 306.4 338.322 306.171 337.242ZM309.909 346.188C311.104 348.003 312.523 349.664 314.134 351.127C314.952 351.87 316.217 351.809 316.96 350.992C317.702 350.174 317.642 348.909 316.824 348.167C315.461 346.929 314.261 345.524 313.249 343.988C312.642 343.065 311.401 342.81 310.479 343.417C309.556 344.025 309.301 345.265 309.909 346.188Z" fill="#4D5A71"/>
</g>
<g opacity="0.3">
<path d="M734.07 361.709C752.999 354.819 762.777 333.941 755.911 315.076C749.044 296.21 728.133 286.502 709.205 293.391C690.277 300.281 680.498 321.159 687.365 340.024C694.231 358.89 715.142 368.598 734.07 361.709Z" fill="#0A0F18"/>
<path d="M727.617 352.669C742.408 347.286 750.034 330.931 744.651 316.14C739.267 301.349 722.913 293.723 708.122 299.107C693.331 304.49 685.705 320.844 691.088 335.635C696.472 350.426 712.826 358.052 727.617 352.669Z" fill="#182134"/>
<path fill-rule="evenodd" clip-rule="evenodd" d="M683.728 338.447C676.801 319.416 686.473 298.764 705.568 291.814C724.663 284.864 745.347 294.467 752.274 313.499C759.2 332.53 749.528 353.182 730.433 360.131C711.339 367.081 690.655 357.478 683.728 338.447ZM693.52 334.883C698.493 348.546 713.172 355.362 726.881 350.372C740.59 345.382 747.454 330.726 742.481 317.063C737.508 303.399 722.829 296.584 709.12 301.574C695.411 306.564 688.547 321.22 693.52 334.883Z" fill="#35435A"/>
<path fill-rule="evenodd" clip-rule="evenodd" d="M718.63 310.409L713.247 309.46C712.888 309.396 712.522 309.529 712.288 309.808L708.774 313.996C708.598 314.206 708.548 314.493 708.641 314.75L710.56 320.021C710.654 320.28 710.88 320.468 711.152 320.514L716.52 321.415C716.874 321.474 717.233 321.344 717.465 321.071L720.998 316.93C721.177 316.721 721.229 316.431 721.135 316.172L719.216 310.901C719.123 310.644 718.9 310.456 718.63 310.409ZM714.174 310.784C714.262 311.025 713.942 311.363 713.46 311.538C712.979 311.713 712.517 311.66 712.429 311.419C712.342 311.178 712.661 310.841 713.143 310.666C713.625 310.49 714.086 310.543 714.174 310.784ZM713.937 312.846C714.418 312.671 714.738 312.334 714.65 312.093C714.562 311.852 714.101 311.799 713.619 311.974C713.137 312.149 712.818 312.487 712.906 312.728C712.993 312.968 713.455 313.022 713.937 312.846ZM715.126 313.401C715.214 313.642 714.894 313.979 714.413 314.155C713.931 314.33 713.469 314.277 713.382 314.036C713.294 313.795 713.614 313.458 714.095 313.282C714.577 313.107 715.039 313.16 715.126 313.401ZM716.553 311.894C717.035 311.719 717.354 311.381 717.267 311.14C717.179 310.899 716.717 310.846 716.236 311.022C715.754 311.197 715.435 311.534 715.522 311.775C715.61 312.016 716.071 312.069 716.553 311.894ZM712.033 313.045C712.121 313.286 711.802 313.623 711.32 313.799C710.838 313.974 710.377 313.921 710.289 313.68C710.201 313.439 710.521 313.102 711.002 312.926C711.484 312.751 711.946 312.804 712.033 313.045ZM717.966 315.883C718.108 316.489 718.422 316.868 718.666 316.731C718.911 316.594 719.009 316.047 718.885 315.509C718.762 314.972 718.448 314.592 718.185 314.661C717.922 314.731 717.824 315.278 717.966 315.883ZM711.298 318.007C711.041 318.133 710.689 317.892 710.511 317.468C710.334 317.044 710.385 316.595 710.625 316.465C710.866 316.335 711.219 316.576 711.413 317.004C711.607 317.431 711.555 317.881 711.298 318.007ZM711.939 318.166C712.132 318.594 712.507 318.842 712.776 318.719C713.046 318.596 713.095 318.145 712.887 317.712C712.678 317.28 712.302 317.033 712.048 317.161C711.794 317.288 711.746 317.738 711.939 318.166ZM714.335 319.46C714.055 319.58 713.66 319.324 713.452 318.889C713.244 318.456 713.291 318.004 713.557 317.879C713.823 317.755 714.22 318.01 714.442 318.448C714.663 318.888 714.615 319.341 714.335 319.46ZM714.996 314.942C714.892 315.045 714.749 315.098 714.603 315.089L711.683 314.895C711.608 314.89 711.542 314.943 711.53 315.017C711.517 315.096 711.571 315.171 711.65 315.184L714.405 315.631C714.577 315.658 714.722 315.772 714.791 315.931L715.938 318.576C715.972 318.655 716.061 318.696 716.144 318.67C716.233 318.643 716.283 318.548 716.255 318.458L715.398 315.708C715.347 315.543 715.383 315.364 715.493 315.231L717.21 313.16C717.257 313.102 717.254 313.018 717.201 312.964C717.144 312.907 717.052 312.907 716.995 312.963L714.996 314.942ZM715.464 336.764L716.339 326.168C716.346 326.089 716.373 326.015 716.416 325.95C716.441 325.887 716.48 325.829 716.534 325.78C716.556 325.76 716.579 325.743 716.604 325.728C717.183 325.377 717.753 325.099 718.314 324.895C718.351 324.881 718.388 324.868 718.425 324.855C718.461 324.841 718.498 324.828 718.535 324.814C719.096 324.61 719.711 324.457 720.38 324.353C720.409 324.349 720.438 324.347 720.467 324.348C720.54 324.351 720.608 324.371 720.668 324.403C720.742 324.424 720.81 324.464 720.866 324.521L728.348 332.075L726.344 318.201C726.318 318.025 726.396 317.85 726.545 317.752C727.112 317.376 728.012 316.965 729.243 316.517C730.301 316.131 731.098 315.904 731.634 315.834C731.885 315.801 732.115 315.978 732.149 316.229L734.582 334.603C734.63 334.969 734.454 335.329 734.136 335.515C733.079 336.135 731.97 336.608 730.807 336.934C729.875 337.196 728.91 337.363 727.91 337.437C727.064 337.5 726.237 337.169 725.667 336.54L720.672 331.028L720.388 338.462C720.355 339.309 719.934 340.095 719.246 340.591C718.433 341.177 717.585 341.669 716.704 342.067C715.603 342.565 714.449 342.916 713.241 343.12C712.877 343.182 712.512 343.019 712.314 342.708L702.366 327.068C702.231 326.855 702.293 326.571 702.507 326.435C702.962 326.144 703.719 325.806 704.778 325.421C706.009 324.973 706.962 324.711 707.639 324.633C707.815 324.613 707.987 324.697 708.081 324.848L715.464 336.764Z" fill="#0A0F18"/>
<path fill-rule="evenodd" clip-rule="evenodd" d="M717.349 309.811L711.965 308.862C711.606 308.799 711.241 308.932 711.006 309.211L707.492 313.399C707.317 313.608 707.266 313.895 707.36 314.152L709.278 319.423C709.373 319.682 709.599 319.871 709.87 319.916L715.239 320.817C715.592 320.877 715.951 320.746 716.183 320.473L719.716 316.333C719.895 316.123 719.948 315.833 719.853 315.574L717.935 310.303C717.841 310.046 717.618 309.859 717.349 309.811ZM712.892 310.187C712.98 310.427 712.66 310.765 712.179 310.94C711.697 311.115 711.235 311.062 711.148 310.821C711.06 310.581 711.379 310.243 711.861 310.068C712.343 309.893 712.804 309.946 712.892 310.187ZM712.655 312.248C713.137 312.073 713.456 311.736 713.368 311.495C713.281 311.254 712.819 311.201 712.337 311.376C711.856 311.552 711.536 311.889 711.624 312.13C711.712 312.371 712.173 312.424 712.655 312.248ZM713.844 312.803C713.932 313.044 713.613 313.381 713.131 313.557C712.649 313.732 712.188 313.679 712.1 313.438C712.012 313.197 712.332 312.86 712.814 312.685C713.295 312.509 713.757 312.562 713.844 312.803ZM715.271 311.296C715.753 311.121 716.073 310.783 715.985 310.543C715.897 310.302 715.436 310.249 714.954 310.424C714.472 310.599 714.153 310.937 714.241 311.177C714.328 311.418 714.79 311.471 715.271 311.296ZM710.752 312.447C710.839 312.688 710.52 313.026 710.038 313.201C709.556 313.376 709.095 313.323 709.007 313.082C708.92 312.841 709.239 312.504 709.721 312.329C710.202 312.153 710.664 312.206 710.752 312.447ZM716.684 315.285C716.826 315.891 717.14 316.27 717.385 316.133C717.629 315.996 717.727 315.449 717.604 314.912C717.48 314.374 717.166 313.994 716.903 314.064C716.64 314.133 716.542 314.68 716.684 315.285ZM710.016 317.409C709.759 317.536 709.407 317.294 709.229 316.87C709.052 316.446 709.103 315.997 709.344 315.867C709.585 315.738 709.938 315.979 710.132 316.406C710.325 316.834 710.274 317.283 710.016 317.409ZM710.657 317.568C710.851 317.997 711.225 318.244 711.495 318.122C711.764 317.999 711.814 317.548 711.605 317.115C711.396 316.682 711.021 316.436 710.766 316.563C710.513 316.69 710.464 317.14 710.657 317.568ZM713.053 318.863C712.773 318.982 712.378 318.726 712.171 318.292C711.963 317.858 712.01 317.406 712.276 317.282C712.542 317.158 712.938 317.412 713.16 317.851C713.382 318.29 713.334 318.744 713.053 318.863ZM713.714 314.344C713.61 314.447 713.467 314.5 713.321 314.491L710.402 314.297C710.327 314.292 710.26 314.345 710.248 314.419C710.236 314.498 710.289 314.573 710.369 314.586L713.123 315.033C713.295 315.061 713.44 315.174 713.51 315.333L714.656 317.978C714.691 318.058 714.779 318.098 714.862 318.073C714.951 318.045 715.001 317.95 714.973 317.861L714.117 315.11C714.065 314.946 714.101 314.766 714.211 314.633L715.928 312.562C715.976 312.505 715.972 312.42 715.919 312.367C715.862 312.309 715.77 312.309 715.713 312.366L713.714 314.344ZM714.182 336.166L715.058 325.571C715.064 325.492 715.091 325.417 715.134 325.353C715.159 325.29 715.199 325.231 715.252 325.182C715.274 325.163 715.298 325.145 715.323 325.13C715.902 324.779 716.471 324.501 717.032 324.297C717.069 324.284 717.106 324.271 717.143 324.258C717.18 324.244 717.216 324.23 717.253 324.217C717.814 324.013 718.429 323.859 719.098 323.756C719.127 323.751 719.156 323.75 719.186 323.751C719.258 323.753 719.326 323.773 719.386 323.805C719.46 323.827 719.529 323.867 719.584 323.923L727.066 331.477L725.062 317.603C725.036 317.427 725.115 317.252 725.263 317.154C725.831 316.779 726.73 316.367 727.961 315.919C729.019 315.534 729.816 315.306 730.352 315.236C730.603 315.203 730.834 315.38 730.867 315.631L733.3 334.005C733.348 334.371 733.173 334.731 732.854 334.918C731.798 335.537 730.688 336.01 729.525 336.336C728.594 336.598 727.628 336.766 726.628 336.839C725.783 336.902 724.955 336.571 724.385 335.942L719.39 330.431L719.106 337.864C719.074 338.712 718.652 339.497 717.964 339.993C717.151 340.579 716.304 341.071 715.422 341.47C714.321 341.967 713.167 342.318 711.96 342.522C711.596 342.584 711.23 342.422 711.032 342.11L701.085 326.471C700.949 326.257 701.012 325.974 701.225 325.837C701.681 325.547 702.438 325.209 703.496 324.823C704.727 324.375 705.681 324.113 706.357 324.036C706.533 324.015 706.706 324.099 706.799 324.25L714.182 336.166Z" fill="#525F78"/>
<path fill-rule="evenodd" clip-rule="evenodd" d="M709.562 301.143L709.444 301.186C707.421 301.922 705.518 302.893 703.765 304.078C702.85 304.696 702.609 305.939 703.227 306.854C703.845 307.77 705.088 308.011 706.004 307.392C707.487 306.391 709.096 305.569 710.812 304.945L710.913 304.908C711.952 304.535 712.493 303.39 712.12 302.351C711.747 301.311 710.602 300.77 709.562 301.143ZM719.221 299.627C721.396 299.702 723.552 300.051 725.638 300.663C726.698 300.974 727.305 302.086 726.994 303.146C726.683 304.205 725.572 304.812 724.512 304.501C722.747 303.983 720.923 303.688 719.083 303.625C717.979 303.587 717.115 302.661 717.153 301.557C717.191 300.453 718.117 299.589 719.221 299.627ZM738.875 309.666C737.538 307.944 735.991 306.402 734.272 305.071C733.399 304.395 732.143 304.555 731.467 305.428C730.79 306.302 730.95 307.558 731.824 308.234C733.277 309.36 734.585 310.664 735.715 312.119C736.392 312.991 737.649 313.15 738.521 312.472C739.394 311.795 739.552 310.538 738.875 309.666ZM743.295 318.334C743.911 320.438 744.255 322.591 744.327 324.753C744.364 325.857 743.499 326.782 742.395 326.819C741.291 326.856 740.367 325.991 740.33 324.887C740.269 323.06 739.978 321.239 739.456 319.458C739.146 318.398 739.754 317.287 740.814 316.977C741.874 316.666 742.985 317.274 743.295 318.334ZM739.881 340.174C741.096 338.373 742.083 336.424 742.816 334.378C743.189 333.338 742.648 332.193 741.608 331.82C740.568 331.448 739.423 331.989 739.05 333.028C738.429 334.761 737.594 336.412 736.565 337.938C735.947 338.853 736.189 340.097 737.104 340.714C738.02 341.332 739.263 341.09 739.881 340.174ZM727.228 350.05C729.291 349.299 731.229 348.304 733.012 347.087C733.924 346.464 734.159 345.22 733.536 344.307C732.913 343.395 731.669 343.16 730.757 343.783C729.249 344.812 727.609 345.655 725.86 346.291C725.819 346.306 725.799 346.314 725.779 346.321C725.758 346.328 725.738 346.335 725.697 346.35C724.657 346.72 724.113 347.863 724.482 348.904C724.852 349.945 725.996 350.489 727.037 350.119C727.084 350.102 727.108 350.093 727.132 350.085C727.156 350.076 727.18 350.068 727.228 350.05ZM727.228 350.05C728.266 349.672 728.801 348.525 728.423 347.487C728.045 346.449 726.898 345.914 725.86 346.291C724.822 346.669 724.287 347.817 724.664 348.855C725.042 349.893 726.19 350.428 727.228 350.05ZM693.898 316.74C694.641 314.697 695.637 312.753 696.861 310.957C697.483 310.044 698.728 309.809 699.64 310.431C700.553 311.053 700.789 312.297 700.166 313.21C699.13 314.731 698.286 316.377 697.657 318.107C697.279 319.145 696.131 319.681 695.093 319.303C694.055 318.925 693.52 317.778 693.898 316.74ZM692.339 326.356C692.401 328.519 692.734 330.674 693.34 332.78C693.645 333.841 694.753 334.455 695.815 334.149C696.876 333.844 697.49 332.736 697.184 331.675C696.672 329.892 696.39 328.07 696.338 326.242C696.306 325.138 695.386 324.268 694.281 324.3C693.177 324.331 692.308 325.252 692.339 326.356ZM702.297 346.087C700.586 344.748 699.047 343.198 697.718 341.47C697.045 340.594 697.21 339.338 698.085 338.665C698.961 337.992 700.217 338.157 700.89 339.032C702.013 340.493 703.314 341.803 704.762 342.936C705.632 343.616 705.785 344.873 705.105 345.743C704.424 346.613 703.168 346.767 702.297 346.087ZM710.911 350.537C712.994 351.159 715.148 351.519 717.323 351.605C718.427 351.648 719.357 350.789 719.4 349.685C719.443 348.581 718.584 347.651 717.48 347.608C715.641 347.536 713.819 347.231 712.056 346.705C710.997 346.388 709.883 346.99 709.567 348.048C709.251 349.107 709.852 350.221 710.911 350.537Z" fill="#4D5A71"/>
</g>
<g opacity="0.6">
<path d="M778.667 545.419C786.251 542.391 790.75 537.896 790.215 535.414C790.051 534.657 788.898 530.854 788.898 530.854C788.898 530.854 778.947 529.798 773.236 532.078C767.376 534.418 761.459 541.602 761.459 541.602C761.459 541.602 762.837 545.678 762.914 545.8C764.531 548.339 771.429 548.309 778.667 545.419Z" fill="#0A0F18"/>
<path d="M776.95 540.951C783.489 538.34 787.857 533.884 786.705 530.999C785.553 528.114 779.318 527.892 772.778 530.503C766.239 533.114 761.871 537.569 763.023 540.455C764.175 543.34 770.41 543.562 776.95 540.951Z" fill="#182134"/>
<path fill-rule="evenodd" clip-rule="evenodd" d="M761.522 542.1C760.362 539.194 765.521 534.456 773.172 531.401C780.822 528.347 787.826 528.229 788.986 531.135C790.147 534.041 784.988 538.779 777.337 541.834C769.686 544.888 762.683 545.006 761.522 542.1ZM765.446 540.534C766.279 542.62 771.249 542.536 776.742 540.343C782.235 538.15 785.896 534.788 785.063 532.701C784.23 530.615 779.26 530.699 773.767 532.892C768.274 535.085 764.613 538.447 765.446 540.534Z" fill="#35435A"/>
<path fill-rule="evenodd" clip-rule="evenodd" d="M776.598 533.516L774.659 533.835C774.53 533.857 774.383 533.915 774.275 533.989L772.649 535.093C772.568 535.148 772.527 535.206 772.543 535.245L772.865 536.05C772.88 536.09 772.951 536.104 773.049 536.088L774.986 535.761C775.113 535.739 775.257 535.682 775.364 535.609L776.994 534.512C777.076 534.457 777.117 534.398 777.102 534.359L776.78 533.554C776.765 533.514 776.695 533.5 776.598 533.516ZM774.607 536.615C774.586 536.631 774.57 536.647 774.562 536.663L773.441 538.717L771.577 537.178C771.554 537.158 771.496 537.159 771.428 537.179C771.17 537.255 770.794 537.392 770.301 537.589C769.877 537.758 769.569 537.891 769.377 537.987C769.287 538.032 769.242 538.091 769.277 538.118L771.819 540.114C771.87 540.154 771.994 540.151 772.135 540.106C772.601 539.956 773.058 539.784 773.507 539.59C773.866 539.435 774.219 539.265 774.566 539.081C774.861 538.925 775.077 538.74 775.152 538.579L775.815 537.168L777.268 537.735C777.433 537.799 777.717 537.784 778.038 537.695C778.417 537.589 778.79 537.469 779.157 537.334C779.616 537.166 780.066 536.976 780.507 536.763C780.64 536.699 780.732 536.616 780.741 536.552L781.21 533.354C781.216 533.31 781.143 533.299 781.047 533.328C780.842 533.39 780.527 533.506 780.103 533.675C779.61 533.872 779.243 534.032 779.003 534.154C778.94 534.186 778.898 534.226 778.894 534.256L778.603 536.656L776.376 535.938C776.359 535.933 776.336 535.932 776.31 535.935C776.29 535.934 776.267 535.937 776.24 535.943C776.229 535.946 776.218 535.949 776.207 535.952C775.949 536.033 775.708 536.118 775.483 536.208L775.439 536.226L775.395 536.243C775.17 536.333 774.936 536.437 774.694 536.556C774.683 536.561 774.673 536.567 774.664 536.572C774.64 536.586 774.621 536.601 774.607 536.615ZM774.583 534.203C774.776 534.126 774.921 534.034 774.906 533.997C774.891 533.96 774.723 533.993 774.53 534.07C774.337 534.147 774.192 534.239 774.207 534.276C774.222 534.313 774.39 534.28 774.583 534.203ZM774.986 534.197C775.001 534.233 774.856 534.326 774.663 534.403C774.47 534.48 774.302 534.512 774.287 534.476C774.272 534.439 774.417 534.347 774.61 534.269C774.803 534.192 774.971 534.16 774.986 534.197ZM774.743 534.602C774.936 534.525 775.08 534.433 775.066 534.396C775.051 534.36 774.883 534.392 774.69 534.469C774.497 534.546 774.352 534.639 774.367 534.675C774.381 534.712 774.55 534.68 774.743 534.602ZM776.034 533.778C776.049 533.815 775.904 533.907 775.711 533.984C775.518 534.061 775.35 534.094 775.335 534.057C775.321 534.02 775.465 533.928 775.658 533.851C775.851 533.774 776.02 533.741 776.034 533.778ZM773.615 534.821C773.808 534.744 773.952 534.652 773.937 534.615C773.923 534.578 773.754 534.611 773.561 534.688C773.368 534.765 773.224 534.857 773.238 534.894C773.253 534.931 773.422 534.898 773.615 534.821ZM776.138 534.69C776.036 534.738 775.948 534.697 775.94 534.597C775.932 534.497 776.01 534.386 776.113 534.349C776.217 534.312 776.305 534.354 776.311 534.443C776.317 534.531 776.24 534.642 776.138 534.69ZM773.038 535.579C773.072 535.642 773.186 535.654 773.291 535.607C773.397 535.56 773.45 535.471 773.409 535.41C773.369 535.348 773.255 535.336 773.155 535.382C773.056 535.428 773.003 535.517 773.038 535.579ZM773.79 535.604C773.68 535.651 773.559 535.64 773.518 535.578C773.478 535.516 773.53 535.427 773.635 535.38C773.739 535.333 773.861 535.345 773.906 535.406C773.952 535.467 773.899 535.556 773.79 535.604ZM774.029 535.573C774.074 535.635 774.203 535.646 774.316 535.598C774.43 535.55 774.482 535.461 774.432 535.4C774.382 535.338 774.253 535.327 774.144 535.375C774.036 535.423 773.984 535.511 774.029 535.573ZM774.744 534.759C774.798 534.747 774.855 534.724 774.901 534.695L775.796 534.143C775.822 534.127 775.856 534.118 775.873 534.124C775.889 534.129 775.884 534.144 775.862 534.159L775.065 534.703C775.014 534.738 774.988 534.775 774.994 534.801L775.108 535.234C775.112 535.248 775.086 535.271 775.051 535.284C775.018 535.296 774.988 535.297 774.981 535.285L774.751 534.898C774.737 534.875 774.691 534.867 774.629 534.878L773.634 535.049C773.606 535.054 773.591 535.045 773.602 535.029C773.612 535.014 773.641 534.998 773.668 534.992L774.744 534.759Z" fill="#0A0F18"/>
<path fill-rule="evenodd" clip-rule="evenodd" d="M776.164 533.523L774.225 533.842C774.096 533.864 773.95 533.922 773.841 533.996L772.215 535.1C772.134 535.155 772.094 535.213 772.109 535.252L772.431 536.057C772.446 536.097 772.517 536.111 772.615 536.094L774.552 535.767C774.679 535.746 774.823 535.688 774.93 535.616L776.56 534.519C776.642 534.464 776.684 534.405 776.668 534.365L776.346 533.56C776.331 533.521 776.261 533.507 776.164 533.523ZM774.173 536.622C774.152 536.638 774.136 536.654 774.128 536.669L773.007 538.724L771.143 537.185C771.12 537.165 771.062 537.165 770.994 537.185C770.736 537.262 770.36 537.399 769.867 537.596C769.443 537.765 769.135 537.898 768.943 537.994C768.853 538.039 768.808 538.098 768.843 538.125L771.385 540.121C771.436 540.161 771.56 540.157 771.701 540.112C772.167 539.963 772.624 539.791 773.073 539.597C773.432 539.442 773.785 539.272 774.133 539.088C774.427 538.932 774.643 538.747 774.718 538.586L775.381 537.175L776.834 537.741C776.999 537.806 777.284 537.791 777.604 537.702C777.983 537.596 778.356 537.476 778.723 537.341C779.182 537.173 779.632 536.983 780.073 536.77C780.206 536.706 780.298 536.623 780.308 536.559L780.776 533.361C780.782 533.317 780.71 533.305 780.613 533.335C780.408 533.397 780.093 533.513 779.669 533.682C779.176 533.879 778.809 534.039 778.569 534.161C778.507 534.193 778.464 534.233 778.461 534.263L778.169 536.663L775.942 535.945C775.925 535.94 775.903 535.939 775.876 535.942C775.857 535.941 775.833 535.944 775.806 535.95C775.795 535.952 775.784 535.955 775.773 535.959C775.515 536.04 775.274 536.125 775.049 536.215L775.005 536.233L774.961 536.25C774.736 536.34 774.503 536.444 774.26 536.563C774.25 536.568 774.239 536.573 774.23 536.579C774.206 536.593 774.187 536.608 774.173 536.622ZM774.149 534.21C774.342 534.133 774.487 534.04 774.472 534.004C774.458 533.967 774.289 533.999 774.096 534.077C773.903 534.154 773.759 534.246 773.773 534.283C773.788 534.319 773.956 534.287 774.149 534.21ZM774.552 534.203C774.567 534.24 774.422 534.332 774.229 534.41C774.036 534.487 773.868 534.519 773.853 534.482C773.838 534.446 773.983 534.353 774.176 534.276C774.369 534.199 774.537 534.167 774.552 534.203ZM774.309 534.609C774.502 534.532 774.646 534.44 774.632 534.403C774.617 534.366 774.449 534.399 774.256 534.476C774.063 534.553 773.918 534.645 773.933 534.682C773.948 534.719 774.116 534.686 774.309 534.609ZM775.6 533.785C775.615 533.822 775.471 533.914 775.278 533.991C775.085 534.068 774.916 534.101 774.901 534.064C774.887 534.027 775.031 533.935 775.224 533.858C775.417 533.781 775.586 533.748 775.6 533.785ZM773.181 534.828C773.374 534.751 773.518 534.659 773.504 534.622C773.489 534.585 773.321 534.618 773.128 534.695C772.935 534.772 772.79 534.864 772.805 534.901C772.819 534.938 772.988 534.905 773.181 534.828ZM775.704 534.697C775.602 534.745 775.514 534.703 775.506 534.604C775.498 534.504 775.576 534.393 775.679 534.356C775.783 534.319 775.872 534.361 775.877 534.449C775.883 534.538 775.806 534.649 775.704 534.697ZM772.604 535.586C772.638 535.649 772.752 535.661 772.857 535.614C772.963 535.567 773.016 535.478 772.975 535.416C772.935 535.355 772.821 535.342 772.722 535.389C772.622 535.435 772.569 535.523 772.604 535.586ZM773.356 535.61C773.246 535.658 773.125 535.646 773.085 535.584C773.045 535.523 773.096 535.434 773.201 535.387C773.305 535.34 773.427 535.351 773.473 535.413C773.518 535.474 773.466 535.563 773.356 535.61ZM773.595 535.58C773.64 535.642 773.769 535.653 773.882 535.605C773.996 535.557 774.048 535.468 773.998 535.406C773.948 535.345 773.819 535.334 773.71 535.382C773.602 535.43 773.55 535.518 773.595 535.58ZM774.31 534.766C774.364 534.754 774.421 534.731 774.468 534.702L775.362 534.149C775.388 534.134 775.422 534.125 775.439 534.131C775.455 534.136 775.45 534.151 775.428 534.166L774.631 534.71C774.58 534.745 774.554 534.782 774.561 534.808L774.674 535.241C774.678 535.255 774.652 535.277 774.617 535.291C774.584 535.303 774.554 535.304 774.547 535.292L774.317 534.905C774.303 534.882 774.257 534.874 774.195 534.885L773.2 535.056C773.172 535.061 773.157 535.052 773.168 535.036C773.178 535.021 773.207 535.005 773.234 534.999L774.31 534.766Z" fill="#525F78"/>
<path fill-rule="evenodd" clip-rule="evenodd" d="M773.907 532.626L773.859 532.645C773.048 532.969 772.265 533.325 771.522 533.707C771.134 533.907 770.951 534.16 771.113 534.274C771.275 534.387 771.721 534.318 772.109 534.118C772.738 533.795 773.401 533.493 774.088 533.219L774.129 533.203C774.545 533.038 774.832 532.775 774.771 532.615C774.71 532.456 774.323 532.461 773.907 532.626ZM777.626 531.453C778.433 531.267 779.212 531.133 779.945 531.055C780.318 531.015 780.461 531.166 780.265 531.392C780.07 531.618 779.609 531.834 779.237 531.874C778.617 531.94 777.958 532.053 777.276 532.211C776.866 532.305 776.613 532.213 776.71 532.004C776.807 531.794 777.217 531.548 777.626 531.453ZM784.213 531.512C783.843 531.314 783.381 531.169 782.839 531.08C782.563 531.035 782.082 531.18 781.764 531.405C781.446 531.63 781.412 531.849 781.687 531.895C782.146 531.971 782.536 532.093 782.849 532.26C783.037 532.36 783.494 532.273 783.871 532.067C784.247 531.86 784.4 531.612 784.213 531.512ZM785.214 532.719C785.286 533.054 785.253 533.423 785.118 533.819C785.049 534.021 784.657 534.273 784.242 534.382C783.827 534.491 783.547 534.415 783.616 534.213C783.73 533.878 783.758 533.565 783.696 533.282C783.66 533.113 783.97 532.85 784.389 532.695C784.808 532.539 785.177 532.55 785.214 532.719ZM782.302 537.101C782.891 536.654 783.406 536.2 783.833 535.751C784.05 535.523 783.934 535.36 783.573 535.386C783.213 535.413 782.745 535.619 782.528 535.847C782.166 536.227 781.73 536.611 781.232 536.99C780.933 537.218 780.93 537.427 781.225 537.458C781.521 537.488 782.003 537.329 782.302 537.101ZM776.838 540.107C777.665 539.777 778.463 539.413 779.22 539.022C779.607 538.822 779.788 538.568 779.624 538.456C779.46 538.343 779.012 538.414 778.625 538.615C777.985 538.945 777.31 539.253 776.609 539.533L776.544 539.559C776.127 539.724 775.839 539.987 775.899 540.147C775.959 540.306 776.345 540.302 776.761 540.138L776.832 540.109C776.418 540.273 776.033 540.279 775.97 540.121C775.907 539.962 776.193 539.699 776.609 539.533C777.025 539.367 777.413 539.361 777.476 539.519C777.54 539.678 777.254 539.941 776.838 540.107ZM766.889 536.975C767.319 536.526 767.837 536.072 768.429 535.625C768.729 535.397 769.212 535.239 769.506 535.271C769.8 535.302 769.795 535.512 769.494 535.74C768.993 536.119 768.554 536.503 768.19 536.883C767.971 537.112 767.502 537.317 767.143 537.342C766.784 537.368 766.67 537.203 766.889 536.975ZM765.586 538.91C765.447 539.307 765.41 539.678 765.479 540.014C765.513 540.184 765.881 540.196 766.3 540.041C766.719 539.886 767.031 539.623 766.997 539.454C766.939 539.169 766.97 538.856 767.088 538.52C767.159 538.317 766.88 538.24 766.465 538.348C766.051 538.455 765.657 538.707 765.586 538.91ZM767.826 541.667C767.287 541.575 766.829 541.429 766.462 541.229C766.276 541.128 766.432 540.879 766.809 540.673C767.187 540.467 767.643 540.382 767.829 540.483C768.139 540.651 768.526 540.775 768.982 540.853C769.256 540.899 769.219 541.119 768.9 541.344C768.581 541.569 768.1 541.713 767.826 541.667ZM770.709 541.702C771.44 541.626 772.217 541.494 773.023 541.31C773.432 541.216 773.844 540.97 773.942 540.761C774.041 540.551 773.79 540.457 773.381 540.551C772.7 540.707 772.042 540.818 771.423 540.882C771.052 540.921 770.591 541.136 770.393 541.362C770.196 541.588 770.337 541.741 770.709 541.702Z" fill="#4D5A71"/>
</g>
<g opacity="0.3">
<path d="M232.592 470.088C238.497 467.079 241.801 463.112 241.184 461.147C240.996 460.547 239.783 457.558 239.783 457.558C239.783 457.558 231.662 457.442 227.215 459.708C222.652 462.032 218.402 468.277 218.402 468.277C218.402 468.277 219.817 471.469 219.889 471.562C221.384 473.494 226.957 472.959 232.592 470.088Z" fill="#0A0F18"/>
<path d="M230.873 466.604C235.965 464.009 239.165 460.085 238.021 457.838C236.876 455.592 231.82 455.874 226.728 458.468C221.636 461.063 218.436 464.987 219.581 467.234C220.726 469.48 225.781 469.198 230.873 466.604Z" fill="#182134"/>
<path fill-rule="evenodd" clip-rule="evenodd" d="M218.49 468.675C217.337 466.412 221.156 462.201 227.113 459.165C233.07 456.13 238.722 455.516 239.875 457.779C241.028 460.042 237.209 464.253 231.252 467.288C225.295 470.324 219.643 470.938 218.49 468.675ZM221.545 467.118C222.373 468.743 226.384 468.307 230.661 466.128C234.938 463.949 237.648 460.96 236.82 459.335C235.992 457.711 231.981 458.147 227.704 460.326C223.427 462.505 220.717 465.494 221.545 467.118Z" fill="#35435A"/>
<path fill-rule="evenodd" clip-rule="evenodd" d="M230.039 460.621L228.495 461.022C228.392 461.049 228.278 461.107 228.196 461.175L226.964 462.187C226.902 462.238 226.874 462.288 226.889 462.319L227.209 462.945C227.224 462.976 227.282 462.982 227.36 462.962L228.902 462.554C229.003 462.527 229.115 462.47 229.196 462.404L230.432 461.397C230.495 461.346 230.524 461.295 230.508 461.264L230.188 460.638C230.173 460.607 230.116 460.601 230.039 460.621ZM228.659 463.273C228.643 463.287 228.631 463.302 228.626 463.315L227.872 465.058L226.252 463.952C226.231 463.938 226.184 463.943 226.131 463.964C225.928 464.045 225.635 464.183 225.251 464.379C224.92 464.547 224.681 464.677 224.533 464.769C224.464 464.812 224.432 464.863 224.462 464.882L226.665 466.307C226.709 466.336 226.809 466.324 226.919 466.277C227.285 466.122 227.642 465.949 227.99 465.759C228.268 465.607 228.541 465.443 228.809 465.269C229.035 465.121 229.196 464.955 229.245 464.82L229.676 463.631L230.892 463.981C231.031 464.02 231.259 463.988 231.512 463.891C231.81 463.778 232.103 463.653 232.39 463.517C232.748 463.347 233.097 463.16 233.438 462.956C233.541 462.894 233.609 462.82 233.612 462.768L233.754 460.148C233.756 460.112 233.696 460.108 233.62 460.139C233.459 460.205 233.213 460.322 232.883 460.49C232.499 460.686 232.215 460.842 232.03 460.958C231.981 460.989 231.95 461.024 231.949 461.049L231.892 463.01L230.038 462.595C230.024 462.592 230.006 462.593 229.985 462.597C229.969 462.598 229.95 462.602 229.929 462.609C229.92 462.612 229.911 462.615 229.902 462.619C229.7 462.703 229.512 462.79 229.337 462.879L229.302 462.897L229.268 462.914C229.093 463.003 228.912 463.105 228.725 463.219C228.716 463.224 228.709 463.229 228.701 463.234C228.683 463.247 228.669 463.26 228.659 463.273ZM228.461 461.325C228.611 461.248 228.721 461.163 228.707 461.135C228.692 461.106 228.558 461.145 228.408 461.221C228.258 461.298 228.148 461.383 228.162 461.412C228.177 461.44 228.311 461.402 228.461 461.325ZM228.786 461.29C228.8 461.319 228.69 461.404 228.54 461.481C228.39 461.557 228.256 461.596 228.242 461.567C228.227 461.539 228.337 461.453 228.487 461.377C228.638 461.3 228.771 461.261 228.786 461.29ZM228.619 461.636C228.77 461.56 228.88 461.474 228.865 461.446C228.851 461.417 228.717 461.456 228.567 461.532C228.416 461.609 228.306 461.694 228.321 461.723C228.335 461.752 228.469 461.713 228.619 461.636ZM229.602 460.874C229.617 460.903 229.507 460.988 229.357 461.065C229.206 461.141 229.073 461.18 229.058 461.151C229.043 461.123 229.153 461.038 229.304 460.961C229.454 460.884 229.588 460.846 229.602 460.874ZM227.724 461.897C227.874 461.82 227.984 461.735 227.97 461.706C227.955 461.677 227.821 461.716 227.671 461.793C227.521 461.869 227.411 461.955 227.425 461.983C227.44 462.012 227.574 461.973 227.724 461.897ZM229.754 461.604C229.675 461.65 229.6 461.623 229.587 461.543C229.573 461.463 229.627 461.368 229.708 461.33C229.789 461.292 229.864 461.319 229.875 461.391C229.887 461.462 229.832 461.557 229.754 461.604ZM227.314 462.552C227.346 462.6 227.439 462.602 227.521 462.556C227.602 462.51 227.639 462.434 227.601 462.387C227.564 462.34 227.471 462.339 227.394 462.384C227.317 462.429 227.281 462.504 227.314 462.552ZM227.923 462.516C227.838 462.563 227.739 462.562 227.702 462.515C227.665 462.468 227.701 462.393 227.781 462.347C227.862 462.301 227.962 462.301 228.003 462.347C228.044 462.394 228.008 462.469 227.923 462.516ZM228.115 462.473C228.156 462.52 228.26 462.52 228.348 462.472C228.437 462.425 228.472 462.349 228.427 462.303C228.382 462.258 228.277 462.258 228.193 462.305C228.109 462.352 228.074 462.427 228.115 462.473ZM228.632 461.763C228.674 461.749 228.719 461.726 228.755 461.7L229.437 461.187C229.456 461.172 229.483 461.162 229.497 461.166C229.511 461.169 229.508 461.181 229.491 461.195L228.888 461.694C228.849 461.726 228.83 461.757 228.838 461.778L228.961 462.12C228.966 462.131 228.946 462.151 228.919 462.164C228.893 462.177 228.869 462.179 228.862 462.171L228.648 461.875C228.635 461.857 228.597 461.854 228.548 461.867L227.757 462.079C227.734 462.085 227.721 462.079 227.729 462.065C227.736 462.052 227.758 462.037 227.78 462.031L228.632 461.763Z" fill="#0A0F18"/>
<path fill-rule="evenodd" clip-rule="evenodd" d="M229.689 460.658L228.145 461.06C228.042 461.087 227.928 461.145 227.846 461.212L226.614 462.225C226.552 462.276 226.524 462.326 226.539 462.356L226.859 462.983C226.874 463.014 226.932 463.02 227.01 462.999L228.551 462.592C228.653 462.565 228.765 462.508 228.846 462.442L230.082 461.434C230.144 461.383 230.173 461.333 230.158 461.302L229.838 460.675C229.823 460.645 229.766 460.638 229.689 460.658ZM228.308 463.31C228.293 463.325 228.281 463.339 228.276 463.352L227.522 465.095L225.902 463.99C225.881 463.976 225.834 463.98 225.781 464.001C225.578 464.082 225.285 464.221 224.901 464.417C224.57 464.585 224.331 464.715 224.183 464.807C224.114 464.85 224.082 464.9 224.112 464.92L226.315 466.345C226.359 466.373 226.459 466.361 226.569 466.315C226.935 466.159 227.292 465.987 227.64 465.796C227.918 465.644 228.191 465.481 228.458 465.306C228.685 465.159 228.846 464.993 228.895 464.857L229.326 463.668L230.542 464.018C230.681 464.058 230.909 464.025 231.162 463.929C231.46 463.815 231.752 463.691 232.039 463.555C232.398 463.385 232.747 463.198 233.088 462.993C233.19 462.931 233.259 462.857 233.262 462.805L233.404 460.186C233.406 460.15 233.346 460.146 233.27 460.177C233.109 460.242 232.863 460.359 232.533 460.528C232.149 460.723 231.864 460.879 231.679 460.996C231.631 461.026 231.6 461.062 231.599 461.087L231.541 463.047L229.688 462.633C229.674 462.629 229.656 462.63 229.635 462.634C229.619 462.636 229.6 462.639 229.578 462.646C229.57 462.649 229.561 462.652 229.552 462.656C229.35 462.741 229.162 462.827 228.987 462.917L228.952 462.934L228.918 462.952C228.743 463.041 228.562 463.142 228.374 463.256C228.366 463.261 228.359 463.266 228.351 463.272C228.333 463.285 228.319 463.298 228.308 463.31ZM228.111 461.363C228.261 461.286 228.371 461.201 228.356 461.172C228.342 461.144 228.208 461.182 228.058 461.259C227.908 461.336 227.798 461.421 227.812 461.449C227.827 461.478 227.961 461.439 228.111 461.363ZM228.436 461.328C228.45 461.356 228.34 461.442 228.19 461.518C228.04 461.595 227.906 461.634 227.892 461.605C227.877 461.576 227.987 461.491 228.137 461.415C228.288 461.338 228.421 461.299 228.436 461.328ZM228.269 461.674C228.42 461.597 228.53 461.512 228.515 461.483C228.5 461.455 228.367 461.493 228.216 461.57C228.066 461.647 227.956 461.732 227.971 461.761C227.985 461.789 228.119 461.75 228.269 461.674ZM229.252 460.912C229.267 460.94 229.157 461.026 229.006 461.102C228.856 461.179 228.722 461.218 228.708 461.189C228.693 461.16 228.803 461.075 228.954 460.999C229.104 460.922 229.238 460.883 229.252 460.912ZM227.374 461.934C227.524 461.858 227.634 461.772 227.619 461.744C227.605 461.715 227.471 461.754 227.321 461.83C227.171 461.907 227.061 461.992 227.075 462.021C227.09 462.05 227.223 462.011 227.374 461.934ZM229.403 461.641C229.325 461.688 229.25 461.661 229.236 461.581C229.223 461.501 229.277 461.405 229.358 461.368C229.439 461.33 229.514 461.357 229.525 461.428C229.537 461.5 229.482 461.595 229.403 461.641ZM226.964 462.589C226.996 462.638 227.089 462.639 227.17 462.593C227.252 462.547 227.289 462.472 227.251 462.425C227.214 462.378 227.121 462.376 227.044 462.421C226.967 462.466 226.931 462.541 226.964 462.589ZM227.573 462.553C227.488 462.6 227.389 462.6 227.352 462.553C227.315 462.506 227.35 462.43 227.431 462.385C227.512 462.339 227.612 462.339 227.653 462.385C227.694 462.431 227.658 462.507 227.573 462.553ZM227.765 462.511C227.805 462.558 227.91 462.557 227.998 462.51C228.086 462.463 228.122 462.387 228.077 462.341C228.032 462.295 227.927 462.296 227.843 462.343C227.759 462.389 227.724 462.464 227.765 462.511ZM228.282 461.8C228.324 461.787 228.369 461.764 228.404 461.737L229.087 461.224C229.106 461.209 229.133 461.2 229.147 461.203C229.16 461.206 229.158 461.219 229.141 461.233L228.538 461.731C228.499 461.763 228.48 461.795 228.487 461.816L228.611 462.157C228.615 462.168 228.596 462.188 228.569 462.202C228.543 462.214 228.519 462.217 228.512 462.208L228.298 461.912C228.285 461.895 228.247 461.892 228.198 461.905L227.406 462.117C227.384 462.123 227.371 462.116 227.379 462.103C227.386 462.09 227.408 462.075 227.43 462.068L228.282 461.8Z" fill="#525F78"/>
<path fill-rule="evenodd" clip-rule="evenodd" d="M227.797 460.101L227.76 460.119C227.129 460.441 226.523 460.787 225.95 461.151C225.651 461.341 225.522 461.56 225.662 461.639C225.801 461.719 226.157 461.63 226.455 461.44C226.94 461.132 227.453 460.839 227.988 460.566L228.019 460.55C228.344 460.386 228.557 460.152 228.495 460.028C228.434 459.904 228.121 459.936 227.797 460.101ZM230.717 458.877C231.355 458.667 231.975 458.501 232.561 458.384C232.86 458.324 232.987 458.435 232.845 458.633C232.704 458.83 232.348 459.038 232.05 459.098C231.553 459.197 231.029 459.337 230.49 459.515C230.166 459.622 229.954 459.566 230.017 459.39C230.08 459.214 230.393 458.984 230.717 458.877ZM236.044 458.437C235.731 458.305 235.347 458.222 234.902 458.19C234.676 458.173 234.298 458.327 234.058 458.532C233.817 458.737 233.806 458.917 234.032 458.934C234.408 458.961 234.733 459.031 234.998 459.142C235.157 459.209 235.52 459.106 235.809 458.911C236.098 458.716 236.203 458.504 236.044 458.437ZM236.943 459.338C237.026 459.604 237.027 459.905 236.947 460.235C236.906 460.403 236.608 460.636 236.281 460.754C235.953 460.873 235.721 460.832 235.762 460.664C235.829 460.385 235.829 460.13 235.758 459.906C235.716 459.772 235.947 459.537 236.275 459.38C236.602 459.223 236.901 459.204 236.943 459.338ZM234.914 463.096C235.357 462.69 235.739 462.286 236.051 461.891C236.21 461.691 236.104 461.567 235.815 461.615C235.525 461.664 235.162 461.865 235.004 462.065C234.739 462.399 234.416 462.742 234.041 463.086C233.816 463.292 233.829 463.461 234.07 463.464C234.311 463.467 234.689 463.302 234.914 463.096ZM230.72 465.93C231.364 465.602 231.982 465.248 232.565 464.876C232.863 464.686 232.991 464.468 232.85 464.389C232.709 464.31 232.353 464.401 232.054 464.591C231.562 464.906 231.038 465.205 230.493 465.483L230.442 465.509C230.118 465.673 229.904 465.907 229.964 466.031C230.025 466.156 230.337 466.124 230.661 465.96L230.716 465.932C230.394 466.095 230.083 466.128 230.02 466.005C229.957 465.882 230.169 465.648 230.493 465.483C230.817 465.318 231.13 465.284 231.193 465.408C231.256 465.531 231.044 465.765 230.72 465.93ZM222.447 464.135C222.762 463.74 223.147 463.335 223.592 462.93C223.818 462.724 224.196 462.56 224.436 462.564C224.676 462.568 224.688 462.738 224.462 462.944C224.085 463.287 223.759 463.63 223.492 463.965C223.332 464.165 222.969 464.366 222.68 464.413C222.392 464.46 222.288 464.336 222.447 464.135ZM221.538 465.795C221.455 466.127 221.453 466.429 221.533 466.696C221.573 466.83 221.871 466.813 222.199 466.657C222.526 466.501 222.759 466.265 222.718 466.131C222.651 465.905 222.653 465.649 222.723 465.369C222.765 465.2 222.534 465.158 222.207 465.276C221.88 465.394 221.58 465.626 221.538 465.795ZM223.553 467.858C223.11 467.824 222.729 467.739 222.418 467.605C222.26 467.537 222.367 467.324 222.657 467.13C222.947 466.935 223.31 466.833 223.467 466.901C223.73 467.014 224.053 467.085 224.427 467.114C224.652 467.132 224.638 467.312 224.397 467.517C224.155 467.723 223.777 467.875 223.553 467.858ZM225.885 467.673C226.47 467.557 227.089 467.393 227.726 467.184C228.05 467.078 228.364 466.849 228.429 466.672C228.493 466.496 228.283 466.438 227.96 466.544C227.42 466.721 226.897 466.86 226.402 466.957C226.104 467.016 225.748 467.224 225.605 467.421C225.462 467.619 225.588 467.731 225.885 467.673Z" fill="#4D5A71"/>
</g>
</svg>
