<svg xmlns="http://www.w3.org/2000/svg" width="20" height="20" fill="none"><g clip-path="url(#ethereum-unit_svg__a)"><path fill="url(#ethereum-unit_svg__b)" fill-rule="evenodd" d="M10 20c5.523 0 10-4.477 10-10S15.523 0 10 0 0 4.477 0 10s4.477 10 10 10Z" clip-rule="evenodd"></path><path fill="#595DE4" fill-opacity="0.9" fill-rule="evenodd" d="M13.333 5.833c0 5.523-4.477 10-10 10-.524 0-1.038-.04-1.54-.117A9.954 9.954 0 0 1 0 10C0 4.477 4.477 0 10 0c.524 0 1.038.04 1.54.118a9.954 9.954 0 0 1 1.793 5.715Z" clip-rule="evenodd"></path><path fill="#232D40" fill-rule="evenodd" d="M10 18.333a8.333 8.333 0 1 0 0-16.666 8.333 8.333 0 0 0 0 16.666Z" clip-rule="evenodd"></path><path fill="#0F141D" d="m6.651 10.525 3.858-6.3 3.857 6.3-3.857 2.247-3.858-2.247Z"></path><path fill="#0F141D" d="m10.51 13.48 3.733-2.318-3.734 5.308-3.822-5.308 3.822 2.318Z"></path><path fill="url(#ethereum-unit_svg__c)" fill-rule="evenodd" d="m10.187 4.118-3.858 6.3 3.858 2.247 3.857-2.247-3.857-6.3Zm3.733 6.937-3.733 2.318-3.822-2.318 3.822 5.308 3.733-5.308Z" clip-rule="evenodd"></path><path fill="#0F141D" fill-rule="evenodd" d="M1.677 10.416a8.334 8.334 0 0 1 16.646.001 8.333 8.333 0 1 0-16.646-.001Z" clip-rule="evenodd"></path><path fill="#fff" fill-rule="evenodd" d="M4.619 5.253a1 1 0 0 0-.706-.705l-1.055-.284c-.098-.027-.098-.167 0-.194l1.055-.284a1 1 0 0 0 .706-.705l.284-1.055c.027-.099.167-.099.193 0L5.38 3.08a1 1 0 0 0 .706.705l1.055.284c.099.027.099.167 0 .194l-1.055.284a1 1 0 0 0-.706.705l-.284 1.055c-.026.1-.166.1-.193 0l-.284-1.055Z" clip-rule="evenodd"></path></g><defs><linearGradient id="ethereum-unit_svg__b" x1="10" x2="10" y1="0.588" y2="20" gradientUnits="userSpaceOnUse"><stop stop-color="#6C79FC"></stop><stop offset="1" stop-color="#817BFC"></stop></linearGradient><linearGradient id="ethereum-unit_svg__c" x1="10.143" x2="10.143" y1="11.055" y2="16.363" gradientUnits="userSpaceOnUse"><stop stop-color="#5069F1"></stop><stop offset="1" stop-color="#807BFC"></stop></linearGradient><clipPath id="ethereum-unit_svg__a"><path fill="#fff" d="M0 0h20v20H0z"></path></clipPath></defs></svg>