<svg width="34" height="34" viewBox="0 0 34 34" fill="none" xmlns="http://www.w3.org/2000/svg">
<circle cx="17" cy="17" r="17" fill="#FFD000"/>
<path fill-rule="evenodd" clip-rule="evenodd" d="M8.5 29.75C17.8888 29.75 25.5 22.1388 25.5 12.75C25.5 7.81845 23.4001 3.37736 20.0457 0.272076C19.0576 0.0933334 18.0397 0 17 0C7.61116 0 0 7.61116 0 17C0 21.9315 2.09988 26.3726 5.45426 29.4779C6.44243 29.6567 7.46031 29.75 8.5 29.75Z" fill="#FFE714"/>
<circle cx="17.0002" cy="17" r="14.1667" fill="#DF9D07"/>
<path fill-rule="evenodd" clip-rule="evenodd" d="M31.1494 17.7083C31.161 17.4737 31.1668 17.2375 31.1668 17C31.1668 9.17598 24.8242 2.83334 17.0002 2.83334C9.17613 2.83334 2.8335 9.17598 2.8335 17C2.8335 17.2375 2.83934 17.4737 2.8509 17.7083C3.21996 10.2134 9.41365 4.25001 17.0002 4.25001C24.5867 4.25001 30.7804 10.2134 31.1494 17.7083Z" fill="#CD8103"/>
<path fill-rule="evenodd" clip-rule="evenodd" d="M20.2201 8.58079L17.2594 6.87143C17.062 6.7575 16.8189 6.7575 16.6216 6.87143L13.6609 8.58079C13.5129 8.66624 13.4217 8.82415 13.4217 8.99505V12.5032C13.4217 12.6755 13.5144 12.8345 13.6643 12.9194L16.6261 14.5971C16.8211 14.7075 17.0598 14.7075 17.2548 14.5971L20.2166 12.9194C20.3666 12.8345 20.4592 12.6755 20.4592 12.5032V8.99505C20.4592 8.82415 20.3681 8.66624 20.2201 8.58079ZM17.5209 7.8482C17.5209 8.00849 17.261 8.13843 16.9405 8.13843C16.6199 8.13843 16.36 8.00849 16.36 7.8482C16.36 7.68792 16.6199 7.55798 16.9405 7.55798C17.261 7.55798 17.5209 7.68792 17.5209 7.8482ZM16.9405 9.0091C17.261 9.0091 17.5209 8.87916 17.5209 8.71887C17.5209 8.55859 17.261 8.42865 16.9405 8.42865C16.6199 8.42865 16.36 8.55859 16.36 8.71887C16.36 8.87916 16.6199 9.0091 16.9405 9.0091ZM17.5209 9.58954C17.5209 9.74983 17.261 9.87977 16.9405 9.87977C16.6199 9.87977 16.36 9.74983 16.36 9.58954C16.36 9.42926 16.6199 9.29932 16.9405 9.29932C17.261 9.29932 17.5209 9.42926 17.5209 9.58954ZM18.6818 9.0091C19.0024 9.0091 19.2623 8.87916 19.2623 8.71887C19.2623 8.55859 19.0024 8.42865 18.6818 8.42865C18.3612 8.42865 18.1014 8.55859 18.1014 8.71887C18.1014 8.87916 18.3612 9.0091 18.6818 9.0091ZM15.7796 8.71887C15.7796 8.87916 15.5197 9.0091 15.1991 9.0091C14.8786 9.0091 14.6187 8.87916 14.6187 8.71887C14.6187 8.55859 14.8786 8.42865 15.1991 8.42865C15.5197 8.42865 15.7796 8.55859 15.7796 8.71887ZM18.6587 11.6555C18.6128 12.0417 18.7159 12.3318 18.889 12.3036C19.062 12.2755 19.2367 11.975 19.279 11.6326C19.3214 11.2902 19.2183 11 19.0487 10.9845C18.8792 10.9689 18.7045 11.2694 18.6587 11.6555ZM14.2862 11.4774C14.1081 11.4966 13.9528 11.2795 13.9391 10.9923C13.9254 10.7051 14.0514 10.4522 14.2206 10.4275C14.3901 10.4028 14.5459 10.6199 14.5685 10.9126C14.5909 11.2053 14.4643 11.4582 14.2862 11.4774ZM14.6289 11.708C14.6508 12.0011 14.818 12.2268 15.0025 12.2122C15.1871 12.1975 15.3128 11.9431 15.2829 11.6442C15.2526 11.3455 15.0846 11.1201 14.9081 11.1405C14.7317 11.161 14.6068 11.415 14.6289 11.708ZM15.76 12.9811C15.5698 12.9912 15.3924 12.7563 15.3634 12.4567C15.334 12.1573 15.4582 11.9018 15.6411 11.8857C15.8241 11.8697 16.0026 12.1039 16.0393 12.4092C16.0754 12.7148 15.9501 12.971 15.76 12.9811ZM17.1146 10.4673C17.0316 10.5055 16.9362 10.5062 16.8526 10.4694L15.1782 9.73107C15.1353 9.71216 15.085 9.72896 15.0621 9.76989C15.0376 9.81371 15.0533 9.86911 15.0971 9.89362L16.6203 10.7455C16.7151 10.7986 16.7765 10.8962 16.783 11.0047L16.891 12.8042C16.8943 12.8582 16.9377 12.9011 16.9917 12.9037C17.0501 12.9064 17.0997 12.8613 17.1025 12.8029L17.1874 11.0034C17.1925 10.8957 17.2518 10.7978 17.3449 10.7433L18.7966 9.89362C18.8371 9.86993 18.853 9.81939 18.8334 9.77677C18.8124 9.73101 18.7582 9.71098 18.7124 9.73204L17.1146 10.4673ZM12.7223 23.3908L15.5032 17.3516C15.5239 17.3066 15.5556 17.2683 15.5946 17.2399C15.6228 17.2081 15.6586 17.1822 15.7006 17.165C15.7175 17.1581 15.7351 17.1529 15.753 17.1493C16.1684 17.0668 16.5627 17.0255 16.9359 17.0255C16.9603 17.0255 16.9848 17.0257 17.0094 17.0261C17.0339 17.0257 17.0584 17.0255 17.0828 17.0255C17.4561 17.0255 17.8503 17.0668 18.2657 17.1493C18.2836 17.1529 18.3012 17.1581 18.3181 17.165C18.3601 17.1822 18.3959 17.2081 18.4241 17.2399C18.4631 17.2683 18.4948 17.3066 18.5156 17.3516L21.2964 23.3908L23.0861 14.8091C23.1088 14.7004 23.1921 14.6145 23.3001 14.5886C23.7141 14.4893 24.3307 14.4397 25.1498 14.4397C25.8541 14.4397 26.3713 14.4764 26.7012 14.5498C26.8558 14.5842 26.9533 14.7373 26.9191 14.8919L24.4189 26.2097C24.3691 26.4352 24.189 26.6089 23.9618 26.6505C23.2085 26.7885 22.4553 26.8291 21.702 26.7723C21.0988 26.7268 20.4956 26.6188 19.8923 26.4484C19.3819 26.3041 18.9664 25.9327 18.7661 25.4415L17.0094 21.1341L15.2527 25.4415C15.0523 25.9327 14.6368 26.3041 14.1264 26.4484C13.5232 26.6188 12.9199 26.7268 12.3167 26.7723C11.5635 26.8291 10.8102 26.7885 10.0569 26.6505C9.82975 26.6089 9.64966 26.4352 9.59984 26.2097L7.09959 14.8919C7.06544 14.7373 7.16294 14.5842 7.31749 14.5498C7.64743 14.4764 8.16457 14.4397 8.86893 14.4397C9.68802 14.4397 10.3046 14.4893 10.7186 14.5886C10.8266 14.6145 10.9099 14.7004 10.9326 14.8091L12.7223 23.3908Z" fill="#CD8103"/>
<path fill-rule="evenodd" clip-rule="evenodd" d="M20.2201 7.16413L17.2594 5.45477C17.062 5.34084 16.8189 5.34084 16.6216 5.45477L13.6609 7.16413C13.5129 7.24958 13.4217 7.4075 13.4217 7.5784V11.0865C13.4217 11.2588 13.5144 11.4178 13.6643 11.5028L16.6261 13.1804C16.8211 13.2909 17.0598 13.2909 17.2548 13.1804L20.2166 11.5028C20.3666 11.4178 20.4592 11.2588 20.4592 11.0865V7.5784C20.4592 7.4075 20.3681 7.24958 20.2201 7.16413ZM17.5209 6.43155C17.5209 6.59183 17.261 6.72177 16.9405 6.72177C16.6199 6.72177 16.36 6.59183 16.36 6.43155C16.36 6.27126 16.6199 6.14132 16.9405 6.14132C17.261 6.14132 17.5209 6.27126 17.5209 6.43155ZM16.9405 7.59244C17.261 7.59244 17.5209 7.4625 17.5209 7.30222C17.5209 7.14193 17.261 7.01199 16.9405 7.01199C16.6199 7.01199 16.36 7.14193 16.36 7.30222C16.36 7.4625 16.6199 7.59244 16.9405 7.59244ZM17.5209 8.17289C17.5209 8.33317 17.261 8.46311 16.9405 8.46311C16.6199 8.46311 16.36 8.33317 16.36 8.17289C16.36 8.0126 16.6199 7.88266 16.9405 7.88266C17.261 7.88266 17.5209 8.0126 17.5209 8.17289ZM18.6818 7.59244C19.0024 7.59244 19.2623 7.4625 19.2623 7.30222C19.2623 7.14193 19.0024 7.01199 18.6818 7.01199C18.3612 7.01199 18.1014 7.14193 18.1014 7.30222C18.1014 7.4625 18.3612 7.59244 18.6818 7.59244ZM15.7796 7.30222C15.7796 7.4625 15.5197 7.59244 15.1991 7.59244C14.8786 7.59244 14.6187 7.4625 14.6187 7.30222C14.6187 7.14193 14.8786 7.01199 15.1991 7.01199C15.5197 7.01199 15.7796 7.14193 15.7796 7.30222ZM18.6587 10.2389C18.6128 10.625 18.7159 10.9152 18.889 10.887C19.062 10.8588 19.2367 10.5584 19.279 10.2159C19.3214 9.87349 19.2183 9.58332 19.0487 9.5678C18.8792 9.55228 18.7045 9.85273 18.6587 10.2389ZM14.2862 10.0608C14.1081 10.08 13.9528 9.86279 13.9391 9.57561C13.9254 9.28843 14.0514 9.03554 14.2206 9.0108C14.3901 8.98613 14.5459 9.20328 14.5685 9.4959C14.5909 9.78865 14.4643 10.0416 14.2862 10.0608ZM14.6289 10.2913C14.6508 10.5844 14.818 10.8102 15.0025 10.7955C15.1871 10.7808 15.3128 10.5265 15.2829 10.2275C15.2526 9.92883 15.0846 9.7034 14.9081 9.72383C14.7317 9.7443 14.6068 9.99834 14.6289 10.2913ZM15.76 11.5644C15.5698 11.5745 15.3924 11.3396 15.3634 11.04C15.334 10.7406 15.4582 10.4851 15.6411 10.469C15.8241 10.453 16.0026 10.6873 16.0393 10.9926C16.0754 11.2982 15.9501 11.5544 15.76 11.5644ZM17.1146 9.05061C17.0316 9.0888 16.9362 9.08956 16.8526 9.0527L15.1782 8.31442C15.1353 8.2955 15.085 8.31231 15.0621 8.35323C15.0376 8.39706 15.0533 8.45245 15.0971 8.47697L16.6203 9.32885C16.7151 9.3819 16.7765 9.47959 16.783 9.58807L16.891 11.3876C16.8943 11.4416 16.9377 11.4845 16.9917 11.487C17.0501 11.4898 17.0997 11.4446 17.1025 11.3862L17.1874 9.58679C17.1925 9.479 17.2518 9.3811 17.3449 9.3266L18.7966 8.47697C18.8371 8.45327 18.853 8.40273 18.8334 8.36012C18.8124 8.31436 18.7582 8.29433 18.7124 8.31538L17.1146 9.05061ZM12.7223 21.9741L15.5032 15.9349C15.5239 15.8899 15.5556 15.8517 15.5946 15.8232C15.6228 15.7915 15.6586 15.7655 15.7006 15.7484C15.7175 15.7415 15.7351 15.7362 15.753 15.7326C16.1684 15.6501 16.5627 15.6089 16.9359 15.6089C16.9603 15.6089 16.9848 15.6091 17.0094 15.6094C17.0339 15.6091 17.0584 15.6089 17.0828 15.6089C17.4561 15.6089 17.8503 15.6501 18.2657 15.7326C18.2836 15.7362 18.3012 15.7415 18.3181 15.7484C18.3601 15.7655 18.3959 15.7915 18.4241 15.8232C18.4631 15.8517 18.4948 15.8899 18.5156 15.9349L21.2964 21.9741L23.0861 13.3925C23.1088 13.2838 23.1921 13.1979 23.3001 13.172C23.7141 13.0727 24.3307 13.023 25.1498 13.023C25.8541 13.023 26.3713 13.0597 26.7012 13.1332C26.8558 13.1676 26.9533 13.3206 26.9191 13.4752L24.4189 24.7931C24.3691 25.0186 24.189 25.1923 23.9618 25.2339C23.2085 25.3719 22.4553 25.4125 21.702 25.3556C21.0988 25.3101 20.4956 25.2022 19.8923 25.0317C19.3819 24.8875 18.9664 24.516 18.7661 24.0248L17.0094 19.7175L15.2527 24.0248C15.0523 24.516 14.6368 24.8875 14.1264 25.0317C13.5232 25.2022 12.9199 25.3101 12.3167 25.3556C11.5635 25.4125 10.8102 25.3719 10.0569 25.2339C9.82975 25.1923 9.64966 25.0186 9.59984 24.7931L7.09959 13.4752C7.06544 13.3206 7.16294 13.1676 7.31749 13.1332C7.64743 13.0597 8.16457 13.023 8.86893 13.023C9.68802 13.023 10.3046 13.0727 10.7186 13.172C10.8266 13.1979 10.9099 13.2838 10.9326 13.3925L12.7223 21.9741Z" fill="#FFD000"/>
<path fill-rule="evenodd" clip-rule="evenodd" d="M25.498 13.0263C25.4222 17.7839 23.3921 22.0667 20.1752 25.107C20.0809 25.0835 19.9866 25.0583 19.8923 25.0317C19.3819 24.8875 18.9664 24.516 18.7661 24.0248L17.0094 19.7175L15.2527 24.0248C15.0523 24.516 14.6368 24.8875 14.1264 25.0317C13.5232 25.2022 12.9199 25.3101 12.3167 25.3556C11.5635 25.4125 10.8102 25.3719 10.0569 25.2339C9.82975 25.1923 9.64966 25.0186 9.59984 24.7931L7.09959 13.4752C7.06544 13.3206 7.16294 13.1676 7.31749 13.1332C7.64743 13.0597 8.16457 13.023 8.86893 13.023C9.68802 13.023 10.3046 13.0727 10.7186 13.172C10.8266 13.1979 10.9099 13.2838 10.9326 13.3925L12.7223 21.9741L15.5032 15.9349C15.5239 15.8899 15.5556 15.8517 15.5946 15.8232C15.6228 15.7915 15.6586 15.7655 15.7006 15.7484C15.7175 15.7415 15.7351 15.7362 15.753 15.7326C16.1684 15.6501 16.5627 15.6089 16.9359 15.6089C16.9603 15.6089 16.9848 15.6091 17.0094 15.6094C17.0339 15.6091 17.0584 15.6089 17.0828 15.6089C17.4561 15.6089 17.8503 15.6501 18.2657 15.7326C18.2836 15.7362 18.3012 15.7415 18.3181 15.7484C18.3601 15.7655 18.3959 15.7915 18.4241 15.8232C18.4631 15.8517 18.4948 15.8899 18.5156 15.9349L21.2964 21.9741L23.0861 13.3925C23.1088 13.2838 23.1921 13.1979 23.3001 13.172C23.7141 13.0727 24.3307 13.023 25.1498 13.023C25.2715 13.023 25.3875 13.0241 25.498 13.0263ZM17.2594 5.45477L20.2201 7.16413C20.3681 7.24958 20.4592 7.4075 20.4592 7.5784V11.0865C20.4592 11.2588 20.3666 11.4178 20.2166 11.5028L17.2548 13.1804C17.0598 13.2909 16.8211 13.2909 16.6261 13.1804L13.6643 11.5028C13.5144 11.4178 13.4217 11.2588 13.4217 11.0865V7.5784C13.4217 7.4075 13.5129 7.24958 13.6609 7.16413L16.6216 5.45477C16.8189 5.34084 17.062 5.34084 17.2594 5.45477ZM16.9405 6.72177C17.261 6.72177 17.5209 6.59183 17.5209 6.43155C17.5209 6.27126 17.261 6.14132 16.9405 6.14132C16.6199 6.14132 16.36 6.27126 16.36 6.43155C16.36 6.59183 16.6199 6.72177 16.9405 6.72177ZM17.5209 7.30222C17.5209 7.4625 17.261 7.59244 16.9405 7.59244C16.6199 7.59244 16.36 7.4625 16.36 7.30222C16.36 7.14193 16.6199 7.01199 16.9405 7.01199C17.261 7.01199 17.5209 7.14193 17.5209 7.30222ZM16.9405 8.46311C17.261 8.46311 17.5209 8.33317 17.5209 8.17289C17.5209 8.0126 17.261 7.88266 16.9405 7.88266C16.6199 7.88266 16.36 8.0126 16.36 8.17289C16.36 8.33317 16.6199 8.46311 16.9405 8.46311ZM19.2623 7.30222C19.2623 7.4625 19.0024 7.59244 18.6818 7.59244C18.3612 7.59244 18.1014 7.4625 18.1014 7.30222C18.1014 7.14193 18.3612 7.01199 18.6818 7.01199C19.0024 7.01199 19.2623 7.14193 19.2623 7.30222ZM15.1991 7.59244C15.5197 7.59244 15.7796 7.4625 15.7796 7.30222C15.7796 7.14193 15.5197 7.01199 15.1991 7.01199C14.8786 7.01199 14.6187 7.14193 14.6187 7.30222C14.6187 7.4625 14.8786 7.59244 15.1991 7.59244ZM18.889 10.887C18.7159 10.9152 18.6128 10.625 18.6587 10.2389C18.7045 9.85273 18.8792 9.55228 19.0487 9.5678C19.2183 9.58332 19.3214 9.87349 19.279 10.2159C19.2367 10.5584 19.062 10.8588 18.889 10.887ZM13.9391 9.57561C13.9528 9.86279 14.1081 10.08 14.2862 10.0608C14.4643 10.0416 14.5909 9.78865 14.5685 9.4959C14.5459 9.20328 14.3901 8.98613 14.2206 9.0108C14.0514 9.03554 13.9254 9.28843 13.9391 9.57561ZM15.0025 10.7955C14.818 10.8102 14.6508 10.5844 14.6289 10.2913C14.6068 9.99834 14.7317 9.7443 14.9081 9.72383C15.0846 9.7034 15.2526 9.92883 15.2829 10.2275C15.3128 10.5265 15.1871 10.7808 15.0025 10.7955ZM15.3634 11.04C15.3924 11.3396 15.5698 11.5745 15.76 11.5644C15.9501 11.5544 16.0754 11.2982 16.0393 10.9926C16.0026 10.6873 15.8241 10.453 15.6411 10.469C15.4582 10.4851 15.334 10.7406 15.3634 11.04ZM16.8526 9.0527C16.9362 9.08956 17.0316 9.0888 17.1146 9.05061L18.7124 8.31538C18.7582 8.29433 18.8124 8.31436 18.8334 8.36012C18.853 8.40273 18.8371 8.45327 18.7966 8.47697L17.3449 9.3266C17.2518 9.3811 17.1925 9.479 17.1874 9.58679L17.1025 11.3862C17.0997 11.4446 17.0501 11.4898 16.9917 11.487C16.9377 11.4845 16.8943 11.4416 16.891 11.3876L16.783 9.58807C16.7765 9.47959 16.7151 9.3819 16.6203 9.32885L15.0971 8.47697C15.0533 8.45245 15.0376 8.39706 15.0621 8.35323C15.085 8.31231 15.1353 8.2955 15.1782 8.31442L16.8526 9.0527Z" fill="#FFE714"/>
<path fill-rule="evenodd" clip-rule="evenodd" d="M7.74812 8.54084C7.65546 8.1967 7.38665 7.92788 7.0425 7.83522L4.60863 7.17991C4.50996 7.15334 4.50996 7.01335 4.60863 6.98678L7.0425 6.33147C7.38665 6.23881 7.65546 5.96999 7.74812 5.62585L8.40344 3.19198C8.43001 3.09331 8.56999 3.09331 8.59656 3.19198L9.25188 5.62585C9.34454 5.96999 9.61335 6.23881 9.9575 6.33147L12.3914 6.98678C12.49 7.01335 12.49 7.15334 12.3914 7.17991L9.9575 7.83522C9.61335 7.92788 9.34454 8.1967 9.25188 8.54084L8.59656 10.9747C8.56999 11.0734 8.43001 11.0734 8.40344 10.9747L7.74812 8.54084Z" fill="white"/>
</svg>
