<svg xmlns="http://www.w3.org/2000/svg" width="23" height="22" fill="none"><g clip-path="url(#chat-icon_svg__a)"><path fill="#fff" d="M11.885.077C5.84.077.923 4.995.923 11.04v10.276c0 .378.307.685.685.685h10.277c6.043 0 10.961-4.917 10.961-10.961 0-6.044-4.918-10.962-10.961-10.962Zm.685 13.702H7.089a.685.685 0 0 1 0-1.37h5.48a.685.685 0 0 1 0 1.37Zm4.11-4.11H7.09a.685.685 0 0 1 0-1.37h9.591a.685.685 0 0 1 0 1.37Z"></path></g><defs><clipPath id="chat-icon_svg__a"><path fill="#fff" d="M.923.077h21.923V22H.923z"></path></clipPath></defs></svg>