<svg xmlns="http://www.w3.org/2000/svg" width="16" height="16" fill="none"><path fill="#fff" d="M15.026 2.34v9.085a2.624 2.624 0 0 1-2.62 2.62 2.624 2.624 0 0 1-2.622-2.62 2.624 2.624 0 0 1 2.621-2.62c.593 0 1.133.204 1.573.537V2.339a.872.872 0 0 0-.998-.864l-6.988.998a.878.878 0 0 0-.75.865v9.485a2.624 2.624 0 0 1-2.621 2.62A2.624 2.624 0 0 1 0 12.823a2.624 2.624 0 0 1 2.62-2.621c.593 0 1.134.205 1.573.537V3.338c0-.95.71-1.769 1.65-1.902l6.989-.999a1.922 1.922 0 0 1 2.194 1.902Zm-2.8 1.537a.517.517 0 0 0-.594-.444l-4.193.599a.524.524 0 1 0 .148 1.037l4.194-.599a.524.524 0 0 0 .444-.593Z"></path></svg>