<svg width="50" height="67" fill="none" xmlns="http://www.w3.org/2000/svg"><path d="M12.4 33.23V12.587a4.386 4.386 0 1 1 8.772 0v20.738M21.184 31.712V6.267a4.386 4.386 0 1 1 8.772 0v25.54M29.958 31.712V11.725a4.386 4.386 0 1 1 8.772 0v20.083" stroke="#fff" stroke-width="3.051" stroke-miterlimit="10" stroke-linecap="round" stroke-linejoin="round"></path><path d="M38.715 33.325V18.507a4.386 4.386 0 0 1 8.771 0l.083 29.355" stroke="#fff" stroke-width="3.051" stroke-miterlimit="10" stroke-linecap="round" stroke-linejoin="round"></path><path d="M24.201 50.45c.848-5.965-3.3-11.488-9.265-12.335l-4.203-8.098a4.705 4.705 0 0 0-8.605 3.751l7.747 21.655a7.415 7.415 0 0 0 5.516 4.77v4.891H40.69v-5.042c3.893-.896 6.796-4.382 6.796-8.547V46.94" stroke="#fff" stroke-width="3.051" stroke-miterlimit="10" stroke-linecap="round" stroke-linejoin="round"></path></svg>