<svg width="26" height="20" fill="none" xmlns="http://www.w3.org/2000/svg"><path d="m18.43 10.541-.431-.4.431.4Zm-6.354-6.354.4.431-.4-.431Zm9.371-1.317-.583-.076.583.076Zm-1.7-1.7.076.583-.076-.583ZM7.818 10.399l.528.259-.528-.26Zm4.4 4.4-.259-.528.259.528ZM8.84 16.358a.588.588 0 0 0-.832-.832l.832.832Zm-3.374 1.71a.588.588 0 0 0 .832.832l-.832-.832Zm1.468-3.616a.588.588 0 0 0-.832-.832l.832.832Zm-2.103.439a.588.588 0 0 0 .832.832l-.832-.832Zm6.673 3.084.582-.083-.582.083Zm4.638-3.113-.582.083.582-.083Zm-11.5-3.75.083-.582-.084.583Zm3.113-4.638.083-.582-.083.582Zm2.928 7.561-2.102-2.101-.831.832 2.101 2.101.832-.832ZM18 10.141c-1.714 1.847-4.49 3.37-6.04 4.13l.518 1.056c1.563-.766 4.512-2.367 6.384-4.386l-.862-.8Zm-9.653.517c.76-1.551 2.283-4.327 4.13-6.04l-.8-.863c-2.02 1.873-3.62 4.822-4.386 6.385l1.056.518Zm12.518-7.864c-.274 2.09-1.001 5.337-2.865 7.347l.862.8c2.133-2.3 2.892-5.877 3.17-7.995l-1.167-.152Zm-8.388 1.824c2.01-1.864 5.257-2.592 7.347-2.865L19.671.587c-2.118.276-5.695 1.035-7.995 3.168l.8.863Zm9.554-1.672a2.083 2.083 0 0 0-2.36-2.36l.153 1.167a.907.907 0 0 1 1.04 1.04l1.167.153ZM8.581 11.934c-.35-.351-.44-.86-.235-1.276L7.29 10.14c-.44.896-.224 1.942.46 2.625l.831-.831Zm1.27 2.933c.684.684 1.73.9 2.626.46l-.518-1.056c-.417.204-.925.115-1.276-.236l-.832.832Zm-1.843.66-2.542 2.54.832.833 2.542-2.542-.832-.832ZM6.102 13.62 4.83 14.89l.832.833 1.27-1.271-.831-.832Zm7.782-8.26a2.385 2.385 0 0 0 0 3.373l.832-.832a1.21 1.21 0 0 1 0-1.71l-.832-.832Zm0 3.373a2.386 2.386 0 0 0 3.373 0l-.832-.832a1.21 1.21 0 0 1-1.71 0l-.831.832Zm3.373 0a2.385 2.385 0 0 0 0-3.374l-.832.832a1.209 1.209 0 0 1 0 1.71l.832.832Zm0-3.374a2.386 2.386 0 0 0-3.373 0l.832.832a1.209 1.209 0 0 1 1.71 0l.831-.832Zm-1.785 9.85-2.859 2.859.832.832 2.86-2.86-.833-.832Zm-3.386 2.683-.381-2.669-1.165.167.382 2.669 1.164-.167Zm3.22-4.726.254 1.779 1.165-.166-.254-1.78-1.165.167Zm-2.693 4.902a.31.31 0 0 1-.527-.176l-1.164.167c.173 1.212 1.656 1.707 2.523.84l-.832-.831Zm3.691-2.028c.331-.33.487-.798.42-1.261l-1.164.166a.31.31 0 0 1-.088.263l.832.832ZM6.576 6.312l-2.859 2.86.832.832 2.86-2.86-.833-.832Zm-2.018 5.383 2.669.381.166-1.164-2.668-.382-.167 1.165Zm5.06-5.549-1.78-.254-.166 1.165 1.779.254.166-1.165Zm-5.9 3.026c-.867.866-.373 2.35.84 2.523l.167-1.165a.31.31 0 0 1-.176-.526l-.832-.832Zm3.69-2.028a.31.31 0 0 1 .264-.087l.166-1.165c-.463-.066-.93.09-1.262.42l.832.832Z" fill="#fff"></path></svg>