<svg width="50" height="54" fill="none" xmlns="http://www.w3.org/2000/svg"><path d="M20.735 37.199c.788-5.548-3.066-10.752-8.614-11.54h6.95a4.647 4.647 0 1 0 0-9.295h-8.333a8.5 8.5 0 0 0-8.5 8.5v9.181a8.501 8.501 0 0 0 4.125 7.289l5.911 3.549v7.138h25.502v-7.364a8.845 8.845 0 0 0 6.851-8.616V10.104" stroke="#fff" stroke-width="3.051" stroke-miterlimit="10" stroke-linecap="round" stroke-linejoin="round"></path><path d="M40.207 5.683a4.42 4.42 0 0 0-4.42 4.42V16.2a4.42 4.42 0 1 0 8.84 0v-6.095a4.42 4.42 0 0 0-4.42-4.421ZM31.364 2.946a4.42 4.42 0 0 0-4.42 4.42V16.2a4.42 4.42 0 1 0 8.841 0V7.366a4.42 4.42 0 0 0-4.42-4.42ZM18.101 16.199V7.366a4.42 4.42 0 1 0-8.842 0V16.2" stroke="#fff" stroke-width="3.051" stroke-miterlimit="10" stroke-linecap="round" stroke-linejoin="round"></path><path d="M23.718 20.456a4.423 4.423 0 0 0 3.226-4.257V6.388a4.42 4.42 0 1 0-8.842 0v9.81" stroke="#fff" stroke-width="3.051" stroke-miterlimit="10" stroke-linecap="round" stroke-linejoin="round"></path></svg>