<svg width="208" height="140" viewBox="0 0 208 140" fill="none" xmlns="http://www.w3.org/2000/svg">
<g clip-path="url(#clip0_2364_98932)">
<path d="M-8 -10H216V150H-8V-10Z" fill="#59C52F"/>
<mask id="mask0_2364_98932" style="mask-type:alpha" maskUnits="userSpaceOnUse" x="-8" y="-10" width="224" height="160">
<path d="M-8 -10H216V150H-8V-10Z" fill="white"/>
</mask>
<g mask="url(#mask0_2364_98932)">
<path fill-rule="evenodd" clip-rule="evenodd" d="M129.848 94.2431L149.663 -69.4462H110.032L129.847 94.2444L129.847 94.2451L129.848 94.2457L129.848 94.2461L261.701 193.253L281.517 158.932L129.848 94.2461L281.516 29.5606L261.701 -4.76065L129.848 94.2457L129.848 94.2447L228.853 -37.6078L194.532 -57.4232L129.848 94.2431ZM194.532 245.916L228.854 226.1L129.847 94.2462L65.1611 -57.4232L30.8398 -37.6078L129.847 94.2462L129.846 94.2461L-30.4004 -31.9692L-21.8236 29.5606L129.846 94.2461L-33.8457 74.4308V114.062L129.847 94.2462L-21.8223 158.932L-2.00693 193.253L129.847 94.2462L30.8406 226.1L65.1619 245.915L129.847 94.2462L110.032 257.938H149.662L129.847 94.2462L194.532 245.916Z" fill="url(#paint0_radial_2364_98932)"/>
<path fill-rule="evenodd" clip-rule="evenodd" d="M150.523 208.277C202.863 208.277 245.292 165.847 245.292 113.508C245.292 61.168 202.863 18.7384 150.523 18.7384C98.1834 18.7384 55.7538 61.168 55.7538 113.508C55.7538 165.847 98.1834 208.277 150.523 208.277Z" fill="#283346"/>
<path opacity="0.3" fill-rule="evenodd" clip-rule="evenodd" d="M150.523 226.369C207.859 226.369 254.339 179.889 254.339 122.554C254.339 65.2181 207.859 18.7384 150.523 18.7384C93.1875 18.7384 46.7078 65.2181 46.7078 122.554C46.7078 179.889 93.1875 226.369 150.523 226.369Z" fill="#283346"/>
<path fill-rule="evenodd" clip-rule="evenodd" d="M150.523 208.277C202.863 208.277 245.292 165.847 245.292 113.508C245.292 61.168 202.863 18.7384 150.523 18.7384C98.1834 18.7384 55.7538 61.168 55.7538 113.508C55.7538 165.847 98.1834 208.277 150.523 208.277Z" fill="#283346"/>
<mask id="mask1_2364_98932" style="mask-type:alpha" maskUnits="userSpaceOnUse" x="55" y="18" width="191" height="191">
<path fill-rule="evenodd" clip-rule="evenodd" d="M150.523 208.277C202.863 208.277 245.292 165.847 245.292 113.508C245.292 61.168 202.863 18.7384 150.523 18.7384C98.1834 18.7384 55.7538 61.168 55.7538 113.508C55.7538 165.847 98.1834 208.277 150.523 208.277Z" fill="white"/>
</mask>
<g mask="url(#mask1_2364_98932)">
<path fill-rule="evenodd" clip-rule="evenodd" d="M150.291 113.871L153.539 17.9999L162.685 19.1437L150.291 113.871Z" fill="#2DCF7A"/>
<path fill-rule="evenodd" clip-rule="evenodd" d="M150.167 113.509L146.077 18.0614H154.258L150.167 113.509Z" fill="#D71039"/>
<path fill-rule="evenodd" clip-rule="evenodd" d="M150.747 113.351L168.232 19.4299L176.203 21.2702L150.747 113.351Z" fill="#D9113A"/>
<path fill-rule="evenodd" clip-rule="evenodd" d="M150.603 113.257L179.404 22.1666L187.092 24.9648L150.603 113.257Z" fill="#283346"/>
<path fill-rule="evenodd" clip-rule="evenodd" d="M150.405 113.173L190.092 26.2719L197.382 29.9861L150.405 113.173Z" fill="#D9113A"/>
<path fill-rule="evenodd" clip-rule="evenodd" d="M150.875 113.338L199.429 31.0613L206.29 35.5171L150.875 113.338Z" fill="#283346"/>
<path fill-rule="evenodd" clip-rule="evenodd" d="M150.578 112.965L208.113 37.9033L214.38 43.1621L150.578 112.965Z" fill="#D9113A"/>
<path fill-rule="evenodd" clip-rule="evenodd" d="M150.235 112.832L217.251 44.7454L222.83 50.7287L150.235 112.832Z" fill="#283346"/>
<path fill-rule="evenodd" clip-rule="evenodd" d="M150.59 113.664L224.356 52.9558L229.279 59.4896L150.59 113.664Z" fill="#D9113A"/>
<path fill-rule="evenodd" clip-rule="evenodd" d="M150.174 113.117L230.789 61.8504L234.88 68.9356L150.174 113.117Z" fill="#283346"/>
<path fill-rule="evenodd" clip-rule="evenodd" d="M150.411 113.173L236.673 72.1134L239.87 79.6443L150.411 113.173Z" fill="#D9113A"/>
<path fill-rule="evenodd" clip-rule="evenodd" d="M150.694 113.51L240.774 81.6922L243.166 89.516L150.694 113.51Z" fill="#283346"/>
<path fill-rule="evenodd" clip-rule="evenodd" d="M150.208 113.242L243.495 92.6395L244.915 100.696L150.208 113.242Z" fill="#D9113A"/>
<path fill-rule="evenodd" clip-rule="evenodd" d="M150.396 112.667L245.499 103.587L245.927 111.757L150.396 112.667Z" fill="#283346"/>
<path fill-rule="evenodd" clip-rule="evenodd" d="M150.396 113.145L245.926 114.056L245.498 122.226L150.396 113.145Z" fill="#D9113A"/>
<path fill-rule="evenodd" clip-rule="evenodd" d="M150.208 113.089L244.916 125.635L243.495 133.692L150.208 113.089Z" fill="#283346"/>
<path fill-rule="evenodd" clip-rule="evenodd" d="M150.693 112.972L242.481 136.282L240.09 144.79L150.693 112.972Z" fill="#D9113A"/>
<path fill-rule="evenodd" clip-rule="evenodd" d="M150.412 113.51L239.87 147.039L236.673 154.57L150.412 113.51Z" fill="#283346"/>
<path fill-rule="evenodd" clip-rule="evenodd" d="M150.174 113.287L234.879 157.468L230.789 164.553L150.174 113.287Z" fill="#D9113A"/>
<path fill-rule="evenodd" clip-rule="evenodd" d="M150.591 113.011L229.28 167.186L224.357 173.72L150.591 113.011Z" fill="#283346"/>
<path fill-rule="evenodd" clip-rule="evenodd" d="M150.234 113.42L222.83 175.524L217.25 181.507L150.234 113.42Z" fill="#D9113A"/>
<path fill-rule="evenodd" clip-rule="evenodd" d="M150.578 113.058L215.064 183.546L208.797 188.804L150.578 113.058Z" fill="#283346"/>
<path fill-rule="evenodd" clip-rule="evenodd" d="M150.875 113.341L205.943 190.822L199.101 195.27L150.875 113.341Z" fill="#D9113A"/>
<path fill-rule="evenodd" clip-rule="evenodd" d="M150.405 112.97L197.382 196.157L190.093 199.871L150.405 112.97Z" fill="#283346"/>
<path fill-rule="evenodd" clip-rule="evenodd" d="M150.605 113.196L187.093 201.488L179.406 204.286L150.605 113.196Z" fill="#D9113A"/>
<path fill-rule="evenodd" clip-rule="evenodd" d="M150.747 113.402L176.203 205.482L168.232 207.323L150.747 113.402Z" fill="#283346"/>
<path fill-rule="evenodd" clip-rule="evenodd" d="M150.137 112.98L165.829 207.217L157.709 208.214L150.137 112.98Z" fill="#D9113A"/>
<path fill-rule="evenodd" clip-rule="evenodd" d="M150.182 113.166L154.288 208.954H146.077L150.182 113.166Z" fill="#283346"/>
<path fill-rule="evenodd" clip-rule="evenodd" d="M150.822 112.98L143.25 208.214L135.13 207.217L150.822 112.98Z" fill="#D9113A"/>
<path fill-rule="evenodd" clip-rule="evenodd" d="M150.324 113.402L132.838 207.323L124.867 205.482L150.324 113.402Z" fill="#283346"/>
<path fill-rule="evenodd" clip-rule="evenodd" d="M150.408 113.196L121.607 204.286L113.92 201.488L150.408 113.196Z" fill="#D9113A"/>
<path fill-rule="evenodd" clip-rule="evenodd" d="M150.633 112.97L110.946 199.871L103.656 196.157L150.633 112.97Z" fill="#283346"/>
<path fill-rule="evenodd" clip-rule="evenodd" d="M150.177 113.341L101.623 195.618L94.7617 191.162L150.177 113.341Z" fill="#D9113A"/>
<path fill-rule="evenodd" clip-rule="evenodd" d="M150.353 113.058L92.1345 188.804L85.8673 183.546L150.353 113.058Z" fill="#283346"/>
<path fill-rule="evenodd" clip-rule="evenodd" d="M150.936 113.42L83.9203 181.507L78.3407 175.524L150.936 113.42Z" fill="#D9113A"/>
<path fill-rule="evenodd" clip-rule="evenodd" d="M150.187 113.011L76.4215 173.72L71.4979 167.186L150.187 113.011Z" fill="#283346"/>
<path fill-rule="evenodd" clip-rule="evenodd" d="M150.73 113.287L70.1153 164.553L66.0247 157.468L150.73 113.287Z" fill="#D9113A"/>
<path fill-rule="evenodd" clip-rule="evenodd" d="M150.693 113.51L64.4316 154.57L61.235 147.039L150.693 113.51Z" fill="#283346"/>
<path fill-rule="evenodd" clip-rule="evenodd" d="M148.564 112.972L58.4833 144.79L56.0914 136.966L148.564 112.972Z" fill="#D9113A"/>
<path fill-rule="evenodd" clip-rule="evenodd" d="M150.469 113.089L57.1821 133.691L55.7615 125.635L150.469 113.089Z" fill="#283346"/>
<path fill-rule="evenodd" clip-rule="evenodd" d="M150.609 113.145L55.5061 122.226L55.078 114.056L150.609 113.145Z" fill="#D9113A"/>
<path fill-rule="evenodd" clip-rule="evenodd" d="M150.608 112.667L55.0775 111.757L55.5057 103.587L150.608 112.667Z" fill="#283346"/>
<path fill-rule="evenodd" clip-rule="evenodd" d="M150.468 113.242L55.7608 100.696L57.1814 92.6395L150.468 113.242Z" fill="#D9113A"/>
<path fill-rule="evenodd" clip-rule="evenodd" d="M150.287 113.51L57.8147 89.5159L60.2066 81.6922L150.287 113.51Z" fill="#283346"/>
<path fill-rule="evenodd" clip-rule="evenodd" d="M150.694 113.173L61.2356 79.6442L64.4322 72.1134L150.694 113.173Z" fill="#D9113A"/>
<path fill-rule="evenodd" clip-rule="evenodd" d="M150.73 113.117L66.0249 68.9355L70.1155 61.8504L150.73 113.117Z" fill="#283346"/>
<path fill-rule="evenodd" clip-rule="evenodd" d="M150.188 113.664L71.4982 59.4895L76.4218 52.9557L150.188 113.664Z" fill="#D9113A"/>
<path fill-rule="evenodd" clip-rule="evenodd" d="M150.936 112.832L78.3402 50.7287L83.9198 44.7453L150.936 112.832Z" fill="#283346"/>
<path fill-rule="evenodd" clip-rule="evenodd" d="M150.353 112.965L85.8668 42.4779L92.1339 37.2191L150.353 112.965Z" fill="#D9113A"/>
<path fill-rule="evenodd" clip-rule="evenodd" d="M150.176 113.338L94.7607 35.5171L101.622 31.0613L150.176 113.338Z" fill="#283346"/>
<path fill-rule="evenodd" clip-rule="evenodd" d="M150.633 113.173L103.656 29.9861L110.945 26.2719L150.633 113.173Z" fill="#D9113A"/>
<path fill-rule="evenodd" clip-rule="evenodd" d="M150.407 113.257L113.918 24.9649L121.606 22.1667L150.407 113.257Z" fill="#283346"/>
<path fill-rule="evenodd" clip-rule="evenodd" d="M150.323 113.351L124.866 21.2703L132.838 19.4299L150.323 113.351Z" fill="#D9113A"/>
<path fill-rule="evenodd" clip-rule="evenodd" d="M150.821 113.296L135.129 19.0585L143.249 18.0614L150.821 113.296Z" fill="#283346"/>
</g>
<path fill-rule="evenodd" clip-rule="evenodd" d="M150.831 182.184C188.59 182.184 219.2 151.575 219.2 113.815C219.2 76.056 188.59 45.446 150.831 45.446C113.071 45.446 82.4615 76.056 82.4615 113.815C82.4615 151.575 113.071 182.184 150.831 182.184Z" fill="#192232"/>
<path fill-rule="evenodd" clip-rule="evenodd" d="M82.8607 115.538C83.9345 79.0924 113.817 49.8769 150.523 49.8769C187.229 49.8769 217.112 79.0924 218.186 115.538C218.205 114.864 218.215 114.187 218.215 113.508C218.215 76.1222 187.909 45.8153 150.523 45.8153C113.138 45.8153 82.8308 76.1222 82.8308 113.508C82.8308 114.187 82.8408 114.864 82.8607 115.538Z" fill="#131B29"/>
<path fill-rule="evenodd" clip-rule="evenodd" d="M164.269 74.2107L151.537 66.8597C150.688 66.3697 149.642 66.3697 148.794 66.8597L136.062 74.2107C135.425 74.5781 135.033 75.2573 135.033 75.9922V91.0788C135.033 91.8198 135.431 92.5035 136.076 92.8687L148.813 100.083C149.652 100.559 150.678 100.559 151.517 100.083L164.254 92.8687C164.899 92.5035 165.298 91.8198 165.298 91.0788L165.298 75.9922C165.298 75.2573 164.905 74.5781 164.269 74.2107ZM152.661 71.0602C152.661 71.7495 151.543 72.3083 150.165 72.3083C148.786 72.3083 147.669 71.7495 147.669 71.0602C147.669 70.3709 148.786 69.8121 150.165 69.8121C151.543 69.8121 152.661 70.3709 152.661 71.0602ZM150.165 76.0526C151.543 76.0526 152.661 75.4938 152.661 74.8045C152.661 74.1152 151.543 73.5564 150.165 73.5564C148.786 73.5564 147.669 74.1152 147.669 74.8045C147.669 75.4938 148.786 76.0526 150.165 76.0526ZM152.661 78.5488C152.661 79.2381 151.543 79.7969 150.165 79.7969C148.786 79.7969 147.669 79.2381 147.669 78.5488C147.669 77.8595 148.786 77.3007 150.165 77.3007C151.543 77.3007 152.661 77.8595 152.661 78.5488ZM157.654 76.0526C159.033 76.0526 160.15 75.4938 160.15 74.8045C160.15 74.1152 159.033 73.5564 157.654 73.5564C156.276 73.5564 155.158 74.1152 155.158 74.8045C155.158 75.4938 156.276 76.0526 157.654 76.0526ZM145.173 74.8045C145.173 75.4938 144.055 76.0526 142.677 76.0526C141.298 76.0526 140.18 75.4938 140.18 74.8045C140.18 74.1152 141.298 73.5564 142.677 73.5564C144.055 73.5564 145.173 74.1152 145.173 74.8045ZM157.554 87.4334C157.357 89.094 157.801 90.3419 158.545 90.2206C159.289 90.0994 160.04 88.8073 160.222 87.3347C160.405 85.8621 159.961 84.6143 159.232 84.5475C158.503 84.4808 157.752 85.7728 157.554 87.4334ZM138.752 86.6675C137.986 86.7501 137.318 85.8161 137.259 84.5811C137.2 83.3461 137.742 82.2585 138.47 82.1521C139.198 82.046 139.869 82.9799 139.966 84.2383C140.062 85.4972 139.518 86.585 138.752 86.6675ZM140.225 87.6589C140.319 88.9194 141.038 89.8903 141.831 89.8272C142.625 89.7641 143.166 88.6701 143.037 87.3846C142.907 86.1001 142.184 85.1306 141.425 85.2185C140.666 85.3065 140.129 86.399 140.225 87.6589ZM145.089 93.134C144.271 93.1773 143.508 92.1671 143.383 90.8787C143.257 89.5913 143.791 88.4924 144.578 88.4233C145.364 88.3544 146.132 89.3618 146.29 90.6747C146.445 91.989 145.907 93.0907 145.089 93.134ZM150.914 82.3234C150.557 82.4876 150.147 82.4909 149.787 82.3324L142.587 79.1574C142.402 79.076 142.186 79.1483 142.088 79.3243C141.982 79.5128 142.05 79.751 142.238 79.8564L148.788 83.5199C149.196 83.748 149.46 84.1682 149.488 84.6347L149.953 92.3734C149.967 92.6056 150.153 92.79 150.386 92.8009C150.637 92.8128 150.85 92.6188 150.862 92.3676L151.227 84.6292C151.249 84.1656 151.504 83.7446 151.904 83.5102L158.148 79.8564C158.322 79.7545 158.39 79.5372 158.306 79.3539C158.215 79.1571 157.982 79.071 157.786 79.1616L150.914 82.3234ZM132.025 137.9L143.984 111.929C144.073 111.736 144.209 111.571 144.377 111.449C144.498 111.312 144.652 111.201 144.833 111.127C144.906 111.097 144.981 111.074 145.058 111.059C146.844 110.704 148.54 110.527 150.145 110.527C150.25 110.527 150.355 110.528 150.461 110.529C150.567 110.528 150.672 110.527 150.777 110.527C152.382 110.527 154.078 110.704 155.864 111.059C155.941 111.074 156.017 111.097 156.089 111.127C156.27 111.201 156.424 111.312 156.545 111.449C156.713 111.571 156.849 111.736 156.938 111.929L168.897 137.9L176.594 100.995C176.691 100.528 177.05 100.159 177.514 100.047C179.295 99.6201 181.946 99.4065 185.469 99.4065C188.498 99.4065 190.722 99.5644 192.141 99.8803C192.805 100.028 193.224 100.686 193.078 101.351L182.325 150.023C182.111 150.993 181.337 151.74 180.36 151.919C177.12 152.512 173.881 152.687 170.642 152.442C168.047 152.247 165.453 151.782 162.859 151.049C160.664 150.429 158.877 148.832 158.016 146.719L150.461 128.196L142.906 146.719C142.045 148.832 140.258 150.429 138.063 151.049C135.469 151.782 132.875 152.247 130.281 152.442C127.041 152.687 123.802 152.512 120.562 151.919C119.586 151.74 118.811 150.993 118.597 150.023L107.845 101.351C107.698 100.686 108.117 100.028 108.782 99.8803C110.201 99.5644 112.425 99.4065 115.454 99.4065C118.976 99.4065 121.628 99.6201 123.408 100.047C123.872 100.159 124.231 100.528 124.328 100.995L132.025 137.9Z" fill="#2C3951"/>
<path fill-rule="evenodd" clip-rule="evenodd" d="M153.108 77.0153C153.108 78.4026 152.015 79.5347 150.643 79.5972L152.462 101.126C152.816 105.311 156.136 108.632 160.322 108.985L181.545 110.778C181.542 110.724 181.54 110.67 181.54 110.615C181.54 109.188 182.697 108.031 184.125 108.031C185.552 108.031 186.709 109.188 186.709 110.615C186.709 112.043 185.552 113.2 184.125 113.2C182.851 113.2 181.792 112.278 181.579 111.065L160.322 112.861C156.136 113.214 152.816 116.535 152.462 120.72L150.768 140.78C152.081 140.903 153.108 142.008 153.108 143.354C153.108 144.781 151.951 145.938 150.524 145.938C149.096 145.938 147.939 144.781 147.939 143.354C147.939 142.008 148.967 140.903 150.281 140.78L148.586 120.72C148.233 116.535 144.912 113.214 140.727 112.861L119.47 111.065C119.257 112.278 118.198 113.2 116.924 113.2C115.497 113.2 114.34 112.043 114.34 110.615C114.34 109.188 115.497 108.031 116.924 108.031C118.352 108.031 119.509 109.188 119.509 110.615C119.509 110.67 119.507 110.724 119.504 110.778L140.727 108.985C144.912 108.632 148.233 105.311 148.586 101.126L150.405 79.5972C149.033 79.535 147.939 78.4028 147.939 77.0153C147.939 75.5878 149.096 74.4307 150.524 74.4307C151.951 74.4307 153.108 75.5878 153.108 77.0153ZM150.426 142.498C149.996 142.546 149.662 142.911 149.662 143.354C149.662 143.83 150.048 144.215 150.524 144.215C150.999 144.215 151.385 143.83 151.385 143.354C151.385 142.911 151.052 142.547 150.622 142.498L150.524 143.661L150.426 142.498ZM149.662 77.0153C149.662 77.4911 150.048 77.8768 150.524 77.8768C150.999 77.8768 151.385 77.4911 151.385 77.0153C151.385 76.5395 150.999 76.1537 150.524 76.1537C150.048 76.1537 149.662 76.5395 149.662 77.0153ZM116.924 111.477C116.448 111.477 116.062 111.091 116.062 110.615C116.062 110.139 116.448 109.754 116.924 109.754C117.4 109.754 117.786 110.139 117.786 110.615C117.786 111.091 117.4 111.477 116.924 111.477ZM183.263 110.615C183.263 111.091 183.648 111.477 184.124 111.477C184.6 111.477 184.986 111.091 184.986 110.615C184.986 110.139 184.6 109.754 184.124 109.754C183.648 109.754 183.263 110.139 183.263 110.615Z" fill="#131B29"/>
<path fill-rule="evenodd" clip-rule="evenodd" d="M150.644 77.8741C152.016 77.8116 153.109 76.6795 153.109 75.2922C153.109 73.8648 151.952 72.7076 150.525 72.7076C149.097 72.7076 147.94 73.8648 147.94 75.2922C147.94 76.6798 149.033 77.8119 150.406 77.8741L148.587 99.4024C148.234 103.588 144.913 106.909 140.727 107.262L119.505 109.055C119.508 109.001 119.51 108.947 119.51 108.892C119.51 107.465 118.352 106.308 116.925 106.308C115.498 106.308 114.34 107.465 114.34 108.892C114.34 110.32 115.498 111.477 116.925 111.477C118.199 111.477 119.258 110.555 119.471 109.342L140.727 111.138C144.913 111.491 148.234 114.812 148.587 118.997L150.282 139.057C148.968 139.18 147.94 140.285 147.94 141.631C147.94 143.058 149.097 144.215 150.525 144.215C151.952 144.215 153.109 143.058 153.109 141.631C153.109 140.285 152.081 139.18 150.768 139.057L152.463 118.997C152.816 114.812 156.137 111.491 160.322 111.138L181.58 109.342C181.793 110.555 182.851 111.477 184.125 111.477C185.553 111.477 186.71 110.32 186.71 108.892C186.71 107.465 185.553 106.308 184.125 106.308C182.698 106.308 181.541 107.465 181.541 108.892C181.541 108.947 181.542 109.001 181.546 109.055L160.322 107.262C156.137 106.909 152.816 103.588 152.463 99.4024L150.644 77.8741ZM149.663 141.631C149.663 141.188 149.997 140.823 150.427 140.775L150.525 141.938L150.623 140.775C151.052 140.824 151.386 141.188 151.386 141.631C151.386 142.106 151 142.492 150.524 142.492C150.049 142.492 149.663 142.106 149.663 141.631ZM150.524 76.1537C150.049 76.1537 149.663 75.768 149.663 75.2922C149.663 74.8164 150.049 74.4307 150.524 74.4307C151 74.4307 151.386 74.8164 151.386 75.2922C151.386 75.768 151 76.1537 150.524 76.1537ZM116.063 108.892C116.063 109.368 116.449 109.754 116.925 109.754C117.401 109.754 117.786 109.368 117.786 108.892C117.786 108.416 117.401 108.031 116.925 108.031C116.449 108.031 116.063 108.416 116.063 108.892ZM184.125 109.754C183.649 109.754 183.263 109.368 183.263 108.892C183.263 108.416 183.649 108.031 184.125 108.031C184.601 108.031 184.986 108.416 184.986 108.892C184.986 109.368 184.601 109.754 184.125 109.754ZM146.278 108.953L149.062 110.476L150.585 113.261L152.108 110.476L154.893 108.953L152.108 107.43L150.585 104.646L149.062 107.43L146.278 108.953Z" fill="#FFE714"/>
<path opacity="0.5" d="M224.184 113.2C224.184 153.882 191.205 186.862 150.522 186.862C109.84 186.862 76.861 153.882 76.861 113.2C76.861 72.5178 109.84 39.5384 150.522 39.5384C191.205 39.5384 224.184 72.5178 224.184 113.2Z" stroke="#212B3D" stroke-width="12.9231"/>
<rect x="-15.7542" y="-20.8923" width="34.4615" height="43.0769" rx="8.61538" fill="#D9113A"/>
<rect x="-15.7542" y="26.1846" width="34.4615" height="43.0769" rx="8.61538" fill="#192232"/>
<path d="M-1.81897 53.2V51.3908L1.7478 48.16C1.9718 47.9446 2.15272 47.7249 2.29057 47.5009C2.42841 47.2769 2.49734 47.0271 2.49734 46.7514C2.49734 46.424 2.39395 46.1591 2.18718 45.9566C1.98041 45.7542 1.70472 45.6529 1.36011 45.6529C0.998257 45.6529 0.703184 45.78 0.474875 46.0342C0.246566 46.2883 0.110875 46.6222 0.0677979 47.0357L-2.01282 46.7514C-1.96112 46.2862 -1.83405 45.8726 -1.63159 45.5108C-1.42912 45.1489 -1.17282 44.8409 -0.862664 44.5868C-0.552508 44.3326 -0.197127 44.1388 0.20349 44.0052C0.604108 43.8717 1.02841 43.8049 1.47641 43.8049C1.89857 43.8049 2.3078 43.8609 2.70411 43.9729C3.10041 44.0849 3.45364 44.2572 3.7638 44.4899C4.07395 44.7225 4.32164 45.0154 4.50687 45.3686C4.69211 45.7219 4.78472 46.1354 4.78472 46.6092C4.78472 46.9366 4.74164 47.2317 4.65549 47.4945C4.56934 47.7572 4.45088 48.0006 4.30011 48.2246C4.14934 48.4486 3.97703 48.6575 3.78318 48.8514C3.58933 49.0452 3.38903 49.2369 3.18226 49.4265L1.06287 51.3132H4.79764V53.2H-1.81897Z" fill="white"/>
<rect x="-15.7542" y="73.5692" width="34.4615" height="43.0769" rx="8.61538" fill="#D9113A"/>
<path d="M0.959793 99.723V93.003L-0.746054 94.3212L-1.87036 92.7833L1.14072 90.5735H3.13087V99.723H0.959793Z" fill="white"/>
<rect x="23.0145" y="-21.2" width="34.4615" height="43.0769" rx="8.61538" fill="#192232"/>
<path fill-rule="evenodd" clip-rule="evenodd" d="M43.5536 4.99688C43.7431 4.58334 43.8379 4.11812 43.8379 3.60119C43.8379 3.15319 43.7561 2.74612 43.5924 2.37996C43.4287 2.0138 43.2111 1.69935 42.9398 1.43657C42.6684 1.1738 42.3496 0.971344 41.9834 0.82919C41.6173 0.687035 41.2361 0.615959 40.8398 0.615959C40.7364 0.615959 40.6244 0.624574 40.5038 0.641805C40.3831 0.659036 40.2798 0.684882 40.1936 0.719344L40.2324 0.654728L42.481 -2.47266H39.8576L37.6478 0.822728C37.3462 1.27935 37.1007 1.7295 36.9111 2.17319C36.7216 2.61688 36.6268 3.11011 36.6268 3.65288C36.6268 4.15258 36.7216 4.60488 36.9111 5.00981C37.1007 5.41473 37.3591 5.75934 37.6865 6.04365C38.0139 6.32796 38.3951 6.5455 38.8302 6.69627C39.2653 6.84704 39.7327 6.92242 40.2324 6.92242C40.7234 6.92242 41.1887 6.84704 41.6281 6.69627C42.0674 6.5455 42.4508 6.32796 42.7782 6.04365C43.1056 5.75934 43.3641 5.41042 43.5536 4.99688ZM41.2791 2.62548C41.5376 2.89687 41.6668 3.23933 41.6668 3.65287C41.6668 4.09226 41.5354 4.44548 41.2726 4.71256C41.0099 4.97964 40.6631 5.11318 40.2323 5.11318C39.7929 5.11318 39.444 4.97102 39.1856 4.68672C38.9271 4.40241 38.7979 4.0621 38.7979 3.66579C38.7979 3.23502 38.9314 2.8861 39.1985 2.61902C39.4656 2.35194 39.8145 2.21841 40.2452 2.21841C40.676 2.21841 41.0206 2.3541 41.2791 2.62548Z" fill="white"/>
<rect x="23.0145" y="26.4922" width="34.4615" height="43.0769" rx="8.61538" fill="#D9113A"/>
<path d="M43.5931 50.176C43.5931 50.736 43.494 51.2206 43.2958 51.6298C43.0977 52.039 42.8327 52.3772 42.5011 52.6443C42.1694 52.9113 41.7924 53.1116 41.3703 53.2452C40.9481 53.3787 40.5131 53.4455 40.0651 53.4455C39.6515 53.4455 39.2574 53.3916 38.8826 53.284C38.5078 53.1763 38.1675 53.0233 37.8617 52.8252C37.5558 52.627 37.2931 52.3836 37.0734 52.095C36.8537 51.8064 36.6921 51.4812 36.5887 51.1193L38.566 50.512C38.6607 50.8307 38.8395 51.0935 39.1023 51.3003C39.3651 51.507 39.6774 51.6104 40.0392 51.6104C40.4097 51.6104 40.7306 51.4984 41.002 51.2744C41.2734 51.0504 41.4091 50.7187 41.4091 50.2793C41.4091 50.0123 41.3531 49.7883 41.2411 49.6073C41.1291 49.4264 40.9847 49.2821 40.8081 49.1744C40.6315 49.0667 40.4312 48.9913 40.2072 48.9483C39.9832 48.9052 39.7592 48.8836 39.5352 48.8836C39.2078 48.8836 38.8352 48.9203 38.4174 48.9935C37.9995 49.0667 37.6269 49.1636 37.2995 49.2843L37.5192 44.0504H43.1278V45.9113H39.4447L39.3672 47.3587C39.5051 47.3243 39.658 47.3006 39.826 47.2876C39.994 47.2747 40.1469 47.2683 40.2847 47.2683C40.7414 47.2683 41.1721 47.3286 41.5771 47.4492C41.982 47.5698 42.3331 47.7529 42.6303 47.9984C42.9275 48.244 43.1623 48.5476 43.3346 48.9095C43.5069 49.2713 43.5931 49.6935 43.5931 50.176Z" fill="white"/>
<rect x="61.7841" y="-21.2" width="34.4615" height="43.0769" rx="8.61538" fill="#D9113A"/>
<path fill-rule="evenodd" clip-rule="evenodd" d="M82.3366 2.03103C82.5261 1.58734 82.6209 1.09411 82.6209 0.551338C82.6209 0.0516431 82.5261 -0.40066 82.3366 -0.805585C82.147 -1.21051 81.8907 -1.55512 81.5676 -1.83943C81.2446 -2.12374 80.8633 -2.34128 80.4239 -2.49205C79.9846 -2.64282 79.515 -2.7182 79.0153 -2.7182C78.5242 -2.7182 78.059 -2.64282 77.6196 -2.49205C77.1803 -2.34128 76.7969 -2.12374 76.4695 -1.83943C76.1421 -1.55512 75.8836 -1.2062 75.6941 -0.792662C75.5046 -0.379122 75.4098 0.0861044 75.4098 0.60303C75.4098 1.05103 75.4916 1.45811 75.6553 1.82426C75.819 2.19042 76.0387 2.50487 76.3144 2.76765C76.5901 3.03042 76.9089 3.23288 77.2707 3.37503C77.6326 3.51718 78.0159 3.58826 78.4209 3.58826C78.5243 3.58826 78.6341 3.57965 78.7504 3.56241C78.8667 3.54518 78.9723 3.51934 79.067 3.48488L79.0412 3.52365L76.7667 6.67688H79.3901L81.5999 3.38149C81.9015 2.92487 82.147 2.47472 82.3366 2.03103ZM80.0685 -0.501884C80.3227 -0.213267 80.4498 0.129191 80.4498 0.5255C80.4498 0.956272 80.3162 1.30519 80.0491 1.57227C79.7821 1.83935 79.4331 1.97288 79.0024 1.97288C78.5716 1.97288 78.227 1.83719 77.9685 1.56581C77.7101 1.29442 77.5808 0.951964 77.5808 0.538423C77.5808 0.0990367 77.7122 -0.256345 77.975 -0.52773C78.2378 -0.799116 78.5888 -0.934807 79.0282 -0.934807C79.4676 -0.934807 79.8144 -0.790501 80.0685 -0.501884Z" fill="white"/>
<path d="M4.83729 4.01478C4.83729 4.51448 4.73606 4.9474 4.5336 5.31355C4.33114 5.67971 4.06621 5.98125 3.73883 6.21817C3.41144 6.45509 3.04314 6.63171 2.63391 6.74802C2.22467 6.86432 1.80898 6.92248 1.38683 6.92248C0.973288 6.92248 0.570523 6.87509 0.178521 6.78032C-0.213481 6.68555 -0.571016 6.54125 -0.894094 6.3474C-1.21717 6.15355 -1.49932 5.90371 -1.74056 5.59786C-1.98179 5.29201 -2.16271 4.92371 -2.28333 4.49294L-0.267325 3.96309C-0.181171 4.26463 -0.00455737 4.52955 0.262521 4.75786C0.529599 4.98617 0.869903 5.10032 1.28344 5.10032C1.43852 5.10032 1.59575 5.07878 1.75514 5.03571C1.91452 4.99263 2.05667 4.92586 2.1816 4.8354C2.30652 4.74494 2.40991 4.62648 2.49175 4.48001C2.5736 4.33355 2.61452 4.15263 2.61452 3.93725C2.61452 3.70463 2.56068 3.51078 2.45298 3.35571C2.34529 3.20063 2.20314 3.07786 2.02652 2.9874C1.84991 2.89694 1.6496 2.83232 1.4256 2.79355C1.2016 2.75478 0.977599 2.7354 0.753598 2.7354H0.172059V1.14586H0.80529C1.01206 1.14586 1.21021 1.13078 1.39975 1.10063C1.58929 1.07048 1.75944 1.01448 1.91021 0.93263C2.06098 0.850783 2.1816 0.740938 2.27206 0.603091C2.36252 0.465245 2.40775 0.284323 2.40775 0.060322C2.40775 -0.267064 2.29145 -0.516908 2.05883 -0.689216C1.82621 -0.861525 1.55914 -0.947678 1.2576 -0.947678C0.947443 -0.947678 0.678214 -0.855063 0.449905 -0.669832C0.221597 -0.4846 0.0729828 -0.23691 0.00405931 0.0732453L-2.01194 -0.391986C-1.89994 -0.77968 -1.73194 -1.11783 -1.50794 -1.40645C-1.28394 -1.69506 -1.01902 -1.93629 -0.713171 -2.13014C-0.407324 -2.32399 -0.0734808 -2.47045 0.288367 -2.56952C0.650215 -2.6686 1.02067 -2.71814 1.39975 -2.71814C1.80468 -2.71814 2.19883 -2.66645 2.58221 -2.56306C2.9656 -2.45968 3.30806 -2.30029 3.6096 -2.08491C3.91114 -1.86952 4.15452 -1.6003 4.33975 -1.27722C4.52498 -0.954138 4.6176 -0.572911 4.6176 -0.133524C4.6176 0.374786 4.47329 0.803397 4.18468 1.15232C3.89606 1.50125 3.52775 1.73601 3.07975 1.85663V1.8954C3.33821 1.95571 3.57514 2.05263 3.79052 2.18617C4.00591 2.31971 4.19114 2.47909 4.34621 2.66432C4.50129 2.84955 4.6219 3.05632 4.70806 3.28463C4.79421 3.51294 4.83729 3.75632 4.83729 4.01478Z" fill="white"/>
</g>
<path fill-rule="evenodd" clip-rule="evenodd" d="M197.738 21.9065C202.734 21.9065 206.784 17.8564 206.784 12.8604C206.784 7.86431 202.734 3.81421 197.738 3.81421C192.742 3.81421 188.692 7.86431 188.692 12.8604C188.692 17.8564 192.742 21.9065 197.738 21.9065Z" fill="white"/>
<path fill-rule="evenodd" clip-rule="evenodd" d="M203.338 10.7065C203.338 14.9888 199.866 18.4603 195.584 18.4603C192.701 18.4603 190.186 16.8869 188.849 14.5519C189.641 18.7395 193.32 21.9065 197.738 21.9065C202.734 21.9065 206.784 17.8564 206.784 12.8604C206.784 8.44279 203.617 4.76479 199.43 3.97229C201.765 5.30854 203.338 7.82381 203.338 10.7065Z" fill="#C7CEDD"/>
<path fill-rule="evenodd" clip-rule="evenodd" d="M185.691 12.6959C185.691 12.6959 119.148 10.0828 88.9204 56.1141C85.5614 61.2293 74.4088 42.4262 70.2159 47.1162C122.668 -16.5719 185.691 12.6959 185.691 12.6959Z" fill="url(#paint1_linear_2364_98932)"/>
</g>
<defs>
<radialGradient id="paint0_radial_2364_98932" cx="0" cy="0" r="1" gradientUnits="userSpaceOnUse" gradientTransform="translate(123.835 94.2462) rotate(118.575) scale(152.489 235.549)">
<stop stop-color="#E1FFCD"/>
<stop offset="1" stop-color="#54C627"/>
</radialGradient>
<linearGradient id="paint1_linear_2364_98932" x1="94.9306" y1="82.9041" x2="177.715" y2="55.4852" gradientUnits="userSpaceOnUse">
<stop stop-color="white" stop-opacity="0.01"/>
<stop offset="0.479312" stop-color="white" stop-opacity="0.2"/>
<stop offset="1" stop-color="white"/>
</linearGradient>
<clipPath id="clip0_2364_98932">
<path d="M0 10C0 4.47716 4.47715 0 10 0H198C203.523 0 208 4.47715 208 10V140H0V10Z" fill="white"/>
</clipPath>
</defs>
</svg>
