<svg width="45" height="63" fill="none" xmlns="http://www.w3.org/2000/svg"><path d="M7.29 29.906 4.436 6.665a4.219 4.219 0 1 1 8.375-1.027l2.898 23.602M15.855 29.302l4.334-23.817a4.219 4.219 0 1 1 8.3 1.51l-4.495 24.702M38.714 19.383a4.219 4.219 0 0 0-4.219 4.219v5.816a4.219 4.219 0 0 0 8.437 0v-5.816a4.219 4.219 0 0 0-4.218-4.22Z" stroke="#fff" stroke-width="3.051" stroke-miterlimit="10" stroke-linecap="round" stroke-linejoin="round"></path><path d="M30.277 16.77a4.219 4.219 0 0 0-4.219 4.22v8.428a4.219 4.219 0 0 0 8.437 0V20.99a4.219 4.219 0 0 0-4.218-4.22Z" stroke="#fff" stroke-width="3.051" stroke-miterlimit="10" stroke-linecap="round" stroke-linejoin="round"></path><path d="M20.133 49.457c.752-5.294-2.926-10.26-8.22-11.012h6.633a4.435 4.435 0 1 0 0-8.87h-7.952a8.112 8.112 0 0 0-8.112 8.113v8.76a8.112 8.112 0 0 0 3.937 6.955l5.64 3.386v4.635h24.336v-4.85a8.44 8.44 0 0 0 6.537-8.222v-24.75" stroke="#fff" stroke-width="3.051" stroke-miterlimit="10" stroke-linecap="round" stroke-linejoin="round"></path></svg>