<svg width="34" height="34" viewBox="0 0 34 34" fill="none" xmlns="http://www.w3.org/2000/svg">
<circle cx="17" cy="17" r="17" fill="#FFD000"/>
<path fill-rule="evenodd" clip-rule="evenodd" d="M5.66667 26.9167C15.0555 26.9167 22.6667 19.3055 22.6667 9.91667C22.6667 6.3039 21.5397 2.95435 19.6182 0.200371C18.7647 0.0684495 17.8904 0 17 0C7.61116 0 0 7.61116 0 17C0 20.6128 1.12696 23.9623 3.04851 26.7163C3.90192 26.8482 4.7763 26.9167 5.66667 26.9167Z" fill="#FFE714"/>
<circle cx="17.0002" cy="17" r="14.1667" fill="#DF9D07"/>
<path fill-rule="evenodd" clip-rule="evenodd" d="M31.1494 17.7083C31.161 17.4737 31.1668 17.2375 31.1668 17C31.1668 9.17598 24.8242 2.83334 17.0002 2.83334C9.17613 2.83334 2.8335 9.17598 2.8335 17C2.8335 17.2375 2.83934 17.4737 2.8509 17.7083C3.21996 10.2134 9.41365 4.25001 17.0002 4.25001C24.5867 4.25001 30.7804 10.2134 31.1494 17.7083Z" fill="#CD8103"/>
<path fill-rule="evenodd" clip-rule="evenodd" d="M8.87344 11.9064L16.3947 7.95208C16.8037 7.73705 17.2926 7.73826 17.7005 7.95529L25.1296 11.908C25.47 12.0892 25.5992 12.512 25.418 12.8524C25.3528 12.9751 25.2523 13.0755 25.1296 13.1408L17.7005 17.0936C17.2926 17.3106 16.8037 17.3118 16.3947 17.0968L8.87344 13.1596C8.53212 12.9802 8.4009 12.5408 8.58035 12.1995C8.64613 12.0744 8.74833 11.9722 8.87344 11.9064ZM11.392 12.9244C12.2148 12.9244 12.8819 12.6385 12.8819 12.2859C12.8819 11.9332 12.2148 11.6473 11.392 11.6473C10.5691 11.6473 9.90206 11.9332 9.90206 12.2859C9.90206 12.6385 10.5691 12.9244 11.392 12.9244ZM18.4901 9.30647C18.4901 9.65912 17.8231 9.945 17.0002 9.945C16.1774 9.945 15.5103 9.65912 15.5103 9.30647C15.5103 8.95382 16.1774 8.66795 17.0002 8.66795C17.8231 8.66795 18.4901 8.95382 18.4901 9.30647ZM17.0002 12.9244C17.8231 12.9244 18.4901 12.6385 18.4901 12.2859C18.4901 11.9332 17.8231 11.6473 17.0002 11.6473C16.1774 11.6473 15.5103 11.9332 15.5103 12.2859C15.5103 12.6385 16.1774 12.9244 17.0002 12.9244ZM18.4901 15.2652C18.4901 15.6179 17.8231 15.9038 17.0002 15.9038C16.1774 15.9038 15.5103 15.6179 15.5103 15.2652C15.5103 14.9126 16.1774 14.6267 17.0002 14.6267C17.8231 14.6267 18.4901 14.9126 18.4901 15.2652ZM22.6085 12.9244C23.4313 12.9244 24.0983 12.6385 24.0983 12.2859C24.0983 11.9332 23.4313 11.6473 22.6085 11.6473C21.7856 11.6473 21.1186 11.9332 21.1186 12.2859C21.1186 12.6385 21.7856 12.9244 22.6085 12.9244ZM24.3261 20.5246C24.9654 20.6492 25.4036 21.2626 25.4263 22.1399V23.4875C25.4263 24.4953 24.7935 25.4242 23.9136 25.9156L20.1664 28.0084C19.4959 28.3829 18.6488 28.1429 18.2743 27.4724C18.1585 27.2651 18.0978 27.0317 18.0978 26.7943V22.9913V20.0077C18.0978 19.4966 18.3781 19.0267 18.8279 18.784L25.4124 15.26C25.4124 15.26 25.4497 15.9642 25.4116 16.6621C25.3328 18.1079 25.1495 19.2909 24.3261 20.5246ZM19.8026 24.0661V26.0773L22.9657 24.1541C23.3806 23.9018 23.9139 23.4533 23.7386 22.6647C23.6417 22.2287 23.0966 22.227 22.8389 22.3709L19.8026 24.0661ZM19.8026 22.1293V20.4372L23.7386 18.108C23.7386 18.108 23.651 18.7214 23.5323 19.1365C23.3455 19.7897 22.9458 20.4609 22.3454 20.7806L19.8026 22.1293ZM8.57595 15.3039L15.3811 18.7914C15.8474 19.0286 16.1411 19.5076 16.1411 20.0308V26.8436C16.1411 27.6116 15.5185 28.2342 14.7505 28.2342C14.5218 28.2342 14.2967 28.1778 14.095 28.0699L10.4135 26.102C9.28228 25.4973 8.57595 24.3188 8.57595 23.0361V20.2243L9.89585 20.9874C10.2182 21.1738 10.4168 21.5179 10.4168 21.8903V22.8292C10.4168 23.3248 10.6806 23.7829 11.1092 24.0318L14.248 25.8538V20.4372L9.7268 18.1518C9.01011 17.8022 8.58763 17.109 8.58763 16.3116C8.58763 15.8734 8.57595 15.3039 8.57595 15.3039Z" fill="#CD8103"/>
<path fill-rule="evenodd" clip-rule="evenodd" d="M8.87344 10.4898L16.3947 6.53542C16.8037 6.32039 17.2926 6.3216 17.7005 6.53864L25.1296 10.4914C25.47 10.6725 25.5992 11.0953 25.418 11.4357C25.3528 11.5584 25.2523 11.6589 25.1296 11.7242L17.7005 15.6769C17.2926 15.8939 16.8037 15.8951 16.3947 15.6801L8.87344 11.7429C8.53212 11.5635 8.4009 11.1242 8.58035 10.7828C8.64613 10.6577 8.74833 10.5555 8.87344 10.4898ZM11.392 11.5077C12.2148 11.5077 12.8819 11.2218 12.8819 10.8692C12.8819 10.5165 12.2148 10.2307 11.392 10.2307C10.5691 10.2307 9.90206 10.5165 9.90206 10.8692C9.90206 11.2218 10.5691 11.5077 11.392 11.5077ZM18.4901 7.88982C18.4901 8.24246 17.8231 8.52834 17.0002 8.52834C16.1774 8.52834 15.5103 8.24246 15.5103 7.88982C15.5103 7.53717 16.1774 7.25129 17.0002 7.25129C17.8231 7.25129 18.4901 7.53717 18.4901 7.88982ZM17.0002 11.5077C17.8231 11.5077 18.4901 11.2218 18.4901 10.8692C18.4901 10.5165 17.8231 10.2307 17.0002 10.2307C16.1774 10.2307 15.5103 10.5165 15.5103 10.8692C15.5103 11.2218 16.1774 11.5077 17.0002 11.5077ZM18.4901 13.8486C18.4901 14.2012 17.8231 14.4871 17.0002 14.4871C16.1774 14.4871 15.5103 14.2012 15.5103 13.8486C15.5103 13.4959 16.1774 13.2101 17.0002 13.2101C17.8231 13.2101 18.4901 13.4959 18.4901 13.8486ZM22.6085 11.5077C23.4313 11.5077 24.0983 11.2218 24.0983 10.8692C24.0983 10.5165 23.4313 10.2307 22.6085 10.2307C21.7856 10.2307 21.1186 10.5165 21.1186 10.8692C21.1186 11.2218 21.7856 11.5077 22.6085 11.5077ZM24.3261 19.1079C24.9654 19.2326 25.4036 19.846 25.4263 20.7233V22.0708C25.4263 23.0786 24.7935 24.0075 23.9136 24.4989L20.1664 26.5917C19.4959 26.9662 18.6488 26.7262 18.2743 26.0557C18.1585 25.8485 18.0978 25.6151 18.0978 25.3777V21.5746V18.591C18.0978 18.08 18.3781 17.6101 18.8279 17.3673L25.4124 13.8434C25.4124 13.8434 25.4497 14.5476 25.4116 15.2454C25.3328 16.6913 25.1495 17.8743 24.3261 19.1079ZM19.8026 22.6495V24.6607L22.9657 22.7374C23.3806 22.4852 23.9139 22.0367 23.7386 21.248C23.6417 20.812 23.0966 20.8103 22.8389 20.9542L19.8026 22.6495ZM19.8026 20.7126V19.0205L23.7386 16.6913C23.7386 16.6913 23.651 17.3047 23.5323 17.7199C23.3455 18.373 22.9458 19.0443 22.3454 19.364L19.8026 20.7126ZM8.57595 13.8872L15.3811 17.3747C15.8474 17.612 16.1411 18.0909 16.1411 18.6141V25.4269C16.1411 26.1949 15.5185 26.8175 14.7505 26.8175C14.5218 26.8175 14.2967 26.7611 14.095 26.6533L10.4135 24.6853C9.28228 24.0806 8.57595 22.9021 8.57595 21.6194V18.8077L9.89585 19.5707C10.2182 19.7571 10.4168 20.1012 10.4168 20.4736V21.4125C10.4168 21.9081 10.6806 22.3663 11.1092 22.6151L14.248 24.4372V19.0205L9.7268 16.7351C9.01011 16.3855 8.58763 15.6923 8.58763 14.8949C8.58763 14.4568 8.57595 13.8872 8.57595 13.8872Z" fill="#FFD000"/>
<path fill-rule="evenodd" clip-rule="evenodd" d="M7.74812 8.54084C7.65546 8.1967 7.38665 7.92788 7.0425 7.83522L4.60863 7.17991C4.50996 7.15334 4.50996 7.01335 4.60863 6.98678L7.0425 6.33147C7.38665 6.23881 7.65546 5.96999 7.74812 5.62585L8.40344 3.19198C8.43001 3.09331 8.56999 3.09331 8.59656 3.19198L9.25188 5.62585C9.34454 5.96999 9.61335 6.23881 9.9575 6.33147L12.3914 6.98678C12.49 7.01335 12.49 7.15334 12.3914 7.17991L9.9575 7.83522C9.61335 7.92788 9.34454 8.1967 9.25188 8.54084L8.59656 10.9747C8.56999 11.0734 8.43001 11.0734 8.40344 10.9747L7.74812 8.54084Z" fill="white"/>
<path fill-rule="evenodd" clip-rule="evenodd" d="M22.6638 10.2311C22.6657 10.1265 22.6667 10.0217 22.6667 9.91667C22.6667 9.66729 22.6613 9.41918 22.6507 9.17242L17.7005 6.53864C17.2926 6.3216 16.8037 6.32039 16.3947 6.53542L8.87344 10.4898C8.74833 10.5555 8.64613 10.6577 8.58035 10.7828C8.4009 11.1242 8.53212 11.5635 8.87344 11.7429L16.3947 15.6801C16.8037 15.8951 17.2926 15.8939 17.7005 15.6769L22.3492 13.2035C22.4581 12.6475 22.5399 12.0817 22.5932 11.5077C21.7774 11.5042 21.1186 11.2197 21.1186 10.8692C21.1186 10.5165 21.7856 10.2307 22.6085 10.2307C22.627 10.2307 22.6454 10.2308 22.6638 10.2311ZM21.5874 15.8904L18.8279 17.3673C18.3781 17.6101 18.0978 18.08 18.0978 18.591V21.5128C18.7216 20.8443 19.2921 20.1255 19.8026 19.3631V19.0205L20.1573 18.8106C20.7227 17.8915 21.203 16.9144 21.5874 15.8904ZM16.1411 23.3074V18.6141C16.1411 18.0909 15.8474 17.612 15.3811 17.3747L8.57595 13.8872C8.57595 13.8872 8.58763 14.4568 8.58763 14.8949C8.58763 15.6923 9.01011 16.3855 9.7268 16.7351L14.248 19.0205V24.4372L11.1092 22.6151C10.6806 22.3663 10.4168 21.9081 10.4168 21.4125V20.4736C10.4168 20.1012 10.2182 19.7571 9.89585 19.5707L8.57595 18.8077V21.6194C8.57595 22.9021 9.28228 24.0806 10.4135 24.6853L12.1743 25.6266C13.6057 25.033 14.9385 24.2494 16.1411 23.3074ZM11.392 11.5077C12.2148 11.5077 12.8819 11.2218 12.8819 10.8692C12.8819 10.5165 12.2148 10.2307 11.392 10.2307C10.5691 10.2307 9.90206 10.5165 9.90206 10.8692C9.90206 11.2218 10.5691 11.5077 11.392 11.5077ZM18.4901 7.88982C18.4901 8.24246 17.8231 8.52834 17.0002 8.52834C16.1774 8.52834 15.5103 8.24246 15.5103 7.88982C15.5103 7.53717 16.1774 7.25129 17.0002 7.25129C17.8231 7.25129 18.4901 7.53717 18.4901 7.88982ZM17.0002 11.5077C17.8231 11.5077 18.4901 11.2218 18.4901 10.8692C18.4901 10.5165 17.8231 10.2307 17.0002 10.2307C16.1774 10.2307 15.5103 10.5165 15.5103 10.8692C15.5103 11.2218 16.1774 11.5077 17.0002 11.5077ZM18.4901 13.8486C18.4901 14.2012 17.8231 14.4871 17.0002 14.4871C16.1774 14.4871 15.5103 14.2012 15.5103 13.8486C15.5103 13.4959 16.1774 13.2101 17.0002 13.2101C17.8231 13.2101 18.4901 13.4959 18.4901 13.8486Z" fill="#FFE714"/>
</svg>
