<svg width="106" height="106" fill="none" xmlns="http://www.w3.org/2000/svg"><g filter="url(#wlp-box-icon_svg__a)"><path fill-rule="evenodd" clip-rule="evenodd" d="M53 76c18.225 0 33-14.775 33-33S71.225 10 53 10 20 24.775 20 43s14.775 33 33 33Z" fill="#101827"></path></g><path fill-rule="evenodd" clip-rule="evenodd" d="m63.629 38.918-1.198-1.414-2.854.549c-.688.132-1.337-.334-1.45-1.042a1.353 1.353 0 0 1 .133-.828l1.367-2.662-1.325-2.62a1.344 1.344 0 0 1 .543-1.768c.247-.137.53-.187.803-.143l1.25.203 1.596.258 2.035-2.168c.491-.523 1.29-.546 1.786-.051.198.197.325.457.363.74l.393 2.946 2.583 1.28c.623.31.873 1.087.56 1.737-.125.259-.328.47-.579.6l-2.603 1.36-.439 2.96c-.106.713-.75 1.217-1.44 1.124-.69-.093-1.075-.53-1.524-1.06Z" fill="#D9113A"></path><path fill-rule="evenodd" clip-rule="evenodd" d="m63.705 37.194-.85-1.005-2.03.39a.877.877 0 0 1-1.03-.74.961.961 0 0 1 .095-.59l.97-1.89-.941-1.863a.956.956 0 0 1 .387-1.256.883.883 0 0 1 .57-.102l.889.144 1.134.183 1.446-1.54a.88.88 0 0 1 1.527.49l.28 2.093 1.835.91c.443.22.621.772.398 1.234a.943.943 0 0 1-.41.427l-1.851.967-.312 2.103c-.075.507-.534.865-1.023.799-.49-.066-.764-.377-1.084-.754Z" fill="#AE092B"></path><path fill-rule="evenodd" clip-rule="evenodd" d="M60.113 39.971a.63.63 0 0 0-.89.46l-1.231 6.965c-.11.625-.971.712-1.205.123l-3.038-7.663a.481.481 0 0 0-.083-.137 1.452 1.452 0 0 0-.083-.089.391.391 0 0 0-.18-.101 7.265 7.265 0 0 0-1.631-.21H51.671l-.101-.002a7.246 7.246 0 0 0-1.63.187.368.368 0 0 0-.165.087 1.003 1.003 0 0 0-.105.112.466.466 0 0 0-.07.124l-2.998 7.614c-.233.59-1.092.505-1.205-.119L43.29 35.7c-.034-.176-.148-.314-.296-.357-.573-.164-1.421-.25-2.549-.257-.972-.007-1.683.047-2.138.161-.214.054-.345.3-.299.548l3.493 18.203c.068.362.317.643.629.712 1.04.229 2.077.301 3.115.217.832-.067 1.66-.234 2.491-.502.704-.227 1.275-.82 1.55-1.606l1.81-5.202a.63.63 0 0 1 1.188-.002l1.841 5.238c.279.79.853 1.392 1.556 1.628a11.1 11.1 0 0 0 2.495.538 10.42 10.42 0 0 0 3.113-.173c.313-.065.56-.342.63-.703l2.198-11.745a.63.63 0 0 0-.348-.684l-3.657-1.742Z" fill="#FFD000"></path><path d="m59.542 39.877-.322.925a.63.63 0 0 0 .227.719l3.485 2.502a.63.63 0 0 0 .987-.404l.35-2.016a.63.63 0 0 0-.214-.59L61.92 39.22a.63.63 0 0 0-.574-.125l-1.378.383a.63.63 0 0 0-.426.4Z" fill="#FFD000"></path><path fill-rule="evenodd" clip-rule="evenodd" d="M52.696 11h-.153c-2.618 0-5.195.318-7.691.942a2.432 2.432 0 0 0 1.18 4.718 26.815 26.815 0 0 1 6.51-.797h.13A2.431 2.431 0 1 0 52.696 11Zm11.662 2.284a31.563 31.563 0 0 1 6.901 3.853 2.432 2.432 0 0 1-2.883 3.916 26.696 26.696 0 0 0-5.837-3.259 2.432 2.432 0 0 1 1.82-4.51Zm18.28 19.641a31.474 31.474 0 0 0-3.348-7.162 2.432 2.432 0 0 0-4.112 2.595 26.615 26.615 0 0 1 2.83 6.056 2.431 2.431 0 1 0 4.63-1.489Zm1.444 11.742a31.495 31.495 0 0 1-1.49 7.762 2.432 2.432 0 0 1-4.622-1.509 26.639 26.639 0 0 0 1.26-6.565 2.431 2.431 0 1 1 4.852.312ZM71.1 68.198a31.783 31.783 0 0 0 5.764-5.402 2.432 2.432 0 1 0-3.741-3.107 26.913 26.913 0 0 1-4.881 4.575 2.432 2.432 0 0 0 2.858 3.934ZM52.538 74.22c2.67 0 5.298-.331 7.84-.98a2.432 2.432 0 0 0-1.202-4.712 26.802 26.802 0 0 1-6.637.829h-.21a2.432 2.432 0 0 0-.037 4.862h.095l.108.001h.043Zm-.043 0h.044a2.431 2.431 0 0 0 .038-4.863h-.039a2.432 2.432 0 0 0-.043 4.863ZM28.313 22.305a31.78 31.78 0 0 1 5.79-5.374 2.432 2.432 0 0 1 2.84 3.948 26.916 26.916 0 0 0-4.905 4.551 2.432 2.432 0 1 1-3.725-3.125Zm-5.78 10.338a31.486 31.486 0 0 0-1.527 7.755 2.432 2.432 0 0 0 4.851.336c.156-2.25.591-4.449 1.292-6.559a2.431 2.431 0 1 0-4.615-1.532Zm3.173 26.682a31.464 31.464 0 0 1-3.311-7.178 2.431 2.431 0 1 1 4.637-1.466 26.605 26.605 0 0 0 2.8 6.07 2.431 2.431 0 0 1-4.126 2.574Zm7.99 8.666a31.562 31.562 0 0 0 6.881 3.886 2.431 2.431 0 1 0 1.842-4.501 26.703 26.703 0 0 1-5.822-3.288 2.432 2.432 0 1 0-2.902 3.903Z" fill="#161F30"></path><defs><filter id="wlp-box-icon_svg__a" x="0" y="0" width="106" height="106" filterUnits="userSpaceOnUse" color-interpolation-filters="sRGB"><feFlood flood-opacity="0" result="BackgroundImageFix"></feFlood><feColorMatrix in="SourceAlpha" values="0 0 0 0 0 0 0 0 0 0 0 0 0 0 0 0 0 0 127 0" result="hardAlpha"></feColorMatrix><feOffset dy="10"></feOffset><feGaussianBlur stdDeviation="10"></feGaussianBlur><feColorMatrix values="0 0 0 0 0.0509804 0 0 0 0 0.0862745 0 0 0 0 0.141176 0 0 0 0.4 0"></feColorMatrix><feBlend in2="BackgroundImageFix" result="effect1_dropShadow_1_54628"></feBlend><feBlend in="SourceGraphic" in2="effect1_dropShadow_1_54628" result="shape"></feBlend></filter></defs></svg>