<svg width="28" height="28" fill="none" xmlns="http://www.w3.org/2000/svg"><path fill-rule="evenodd" clip-rule="evenodd" d="M0 14c0-1.717.22-3.041.696-3.993a1 1 0 0 1 1.79.895C2.172 11.526 2 12.566 2 14c0 6.627 5.373 12 12 12s12-5.373 12-12S20.627 2 14 2c-1.227 0-2.428.184-3.575.541A1 1 0 1 1 9.83.631C11.169.216 12.57 0 14 0c7.732 0 14 6.268 14 14s-6.268 14-14 14S0 21.732 0 14ZM5.713 2.995A14.767 14.767 0 0 0 2.54 6.34a1 1 0 0 0 1.647 1.136 12.767 12.767 0 0 1 2.741-2.894 1 1 0 0 0-1.215-1.588Z" fill="#3A4D69"></path><rect x="9.088" y="12.588" width="1.882" height="9.412" rx="0.941" fill="#3A4D69"></rect><rect x="12.854" y="9.765" width="1.882" height="12.235" rx="0.941" fill="#3A4D69"></rect><rect x="16.617" y="6" width="1.882" height="16" rx="0.941" fill="#3A4D69"></rect></svg>