<svg xmlns="http://www.w3.org/2000/svg" width="28" height="28" fill="none"><g stroke="#3A4D69" stroke-linecap="round" stroke-linejoin="round" stroke-miterlimit="10" stroke-width="1.67" clip-path="url(#contest-mobile_svg__a)"><path d="M24.938 1.094H3.063M5.25 5.469h-.875a3.281 3.281 0 0 0 0 6.562h1.247"></path><path d="M22.378 12.031h1.247a3.281 3.281 0 1 0 0-6.562h-.875v4.375a6.554 6.554 0 0 1-6.563 6.562v3.938c0 1.208.98 2.187 2.188 2.187 1.203 0 2.188.985 2.188 2.188a2.194 2.194 0 0 1-2.188 2.187h-8.75a2.194 2.194 0 0 1-2.188-2.187c0-1.203.985-2.188 2.188-2.188 1.208 0 2.188-.98 2.188-2.187v-3.938A6.554 6.554 0 0 1 5.25 9.844v-8.75"></path><path d="M11.813 7.656C13.02 7.656 14 6.676 14 5.47v6.562M9.625 22.531h8.75"></path></g><defs><clipPath id="contest-mobile_svg__a"><path fill="#fff" d="M0 0h28v28H0z"></path></clipPath></defs></svg>