<svg width="28" height="29" fill="none" xmlns="http://www.w3.org/2000/svg"><path d="m21.857 15.636-.733-.68.733.68ZM13.02 6.798l.68.733-.68-.733Zm13.035-1.832.992.13-.992-.13ZM23.689 2.6l.13.992-.13-.992ZM7.096 15.44l.898.44-.898-.44Zm6.12 6.12-.44-.898.44.898Zm-4.57 2.297a1 1 0 1 0-1.414-1.414l1.414 1.414Zm-4.95 2.121a1 1 0 1 0 1.415 1.415l-1.414-1.415Zm2.299-4.772A1 1 0 1 0 4.58 19.79l1.415 1.414Zm-3.182.353a1 1 0 1 0 1.414 1.414l-1.414-1.414Zm9.41 4.42.99-.142-.99.142Zm6.452-4.331-.99.141.99-.141ZM2.678 16.432l.14-.99-.14.99Zm4.33-6.452-.141.99.141-.99Zm4.202 10.388-2.923-2.923-1.415 1.414 2.924 2.924 1.414-1.415Zm9.914-5.412c-2.358 2.543-6.192 4.648-8.348 5.705l.88 1.796c2.177-1.067 6.305-3.306 8.934-6.14l-1.466-1.36Zm-13.13.923c1.057-2.155 3.162-5.99 5.705-8.348l-1.36-1.466c-2.835 2.629-5.074 6.757-6.14 8.933l1.795.88ZM25.062 4.836c-.38 2.903-1.387 7.37-3.938 10.12l1.466 1.36c3.01-3.243 4.07-8.27 4.456-11.22l-1.984-.26ZM13.7 7.531c2.75-2.551 7.217-3.559 10.12-3.938l-.26-1.983c-2.95.385-7.976 1.446-11.22 4.455l1.36 1.466Zm13.347-2.435a3.079 3.079 0 0 0-3.487-3.486l.26 1.983c.755-.1 1.342.488 1.243 1.243l1.983.26ZM8.285 17.445c-.436-.436-.54-1.06-.292-1.566l-1.796-.88c-.647 1.32-.328 2.858.674 3.86l1.415-1.414Zm1.51 4.338c1.002 1.002 2.54 1.322 3.86.674l-.88-1.796c-.505.248-1.13.144-1.566-.293l-1.414 1.415Zm-2.564.66-3.535 3.534 1.414 1.415 3.535-3.536-1.414-1.414ZM4.58 19.79l-1.767 1.767 1.414 1.414 1.768-1.767L4.58 19.79ZM15.405 8.3a3.5 3.5 0 0 0 0 4.949l1.414-1.414a1.5 1.5 0 0 1 0-2.122L15.405 8.3Zm0 4.949a3.5 3.5 0 0 0 4.95 0l-1.414-1.414a1.5 1.5 0 0 1-2.122 0l-1.414 1.414Zm4.95 0a3.5 3.5 0 0 0 0-4.95L18.94 9.714a1.5 1.5 0 0 1 0 2.122l1.414 1.414Zm0-4.95a3.5 3.5 0 0 0-4.95 0l1.414 1.414a1.5 1.5 0 0 1 2.122 0L20.355 8.3ZM17.615 22l-3.978 3.977 1.415 1.415 3.977-3.978L17.615 22Zm-4.402 3.836-.53-3.712-1.98.283.53 3.712 1.98-.283Zm4.119-6.523.354 2.475 1.98-.283-.354-2.475-1.98.283Zm-3.695 6.665a.25.25 0 0 1-.424-.142l-1.98.283c.262 1.835 2.508 2.584 3.819 1.273l-1.415-1.415Zm5.392-2.564c.5-.5.736-1.208.636-1.909l-1.98.283a.25.25 0 0 1-.07.212l1.414 1.414ZM5.241 9.626l-3.978 3.978 1.415 1.414 3.977-3.978L5.24 9.626Zm-2.705 7.796 3.712.53.283-1.98-3.712-.53-.283 1.98Zm7.089-8.079L7.15 8.99l-.283 1.98 2.475.353.283-1.98Zm-8.362 4.26c-1.31 1.312-.562 3.557 1.273 3.819l.283-1.98a.25.25 0 0 1-.141-.424l-1.415-1.415Zm5.392-2.563a.25.25 0 0 1 .212-.07l.283-1.98a2.25 2.25 0 0 0-1.91.636l1.415 1.414Z" fill="#3A4D69"></path></svg>