<svg width="40" height="32" fill="none" xmlns="http://www.w3.org/2000/svg"><path fill-rule="evenodd" clip-rule="evenodd" d="M5.225 10.655c0-.84 0-1.26.03-1.614a8.25 8.25 0 0 1 7.51-7.51c.354-.031.775-.031 1.615-.031h11.196c.84 0 1.26 0 1.615.03a8.25 8.25 0 0 1 7.51 7.51c.03.355.03.775.03 1.615v.202a.772.772 0 0 1 .004.026l1.239 11.745c.235 2.225-1.1 4.3-3.193 4.963-2.095.664-4.37-.268-5.44-2.23L24.4 19.97a.803.803 0 0 1-.066-.16H14.38c-.84 0-1.26 0-1.615-.03a8.25 8.25 0 0 1-6.404-4.04l-.73 6.962a3.005 3.005 0 0 0 2.066 3.19 2.984 2.984 0 0 0 3.55-1.499l1.062-2.12a.807.807 0 1 1 1.443.722l-1.075 2.147c-1.033 2.008-3.34 2.98-5.468 2.308-2.083-.66-3.413-2.713-3.183-4.913l1.199-11.415v-.467ZM27.19 19.78a8.25 8.25 0 0 0 6.439-4.099l.75 7.11c.153 1.453-.719 2.808-2.086 3.242-1.368.434-2.854-.175-3.553-1.457l-2.599-4.766c.484-.001.785-.007 1.05-.03Zm-.278-12.04a1.341 1.341 0 1 1-2.683 0 1.341 1.341 0 0 1 2.683 0Zm1.34 4.256a1.341 1.341 0 1 0 0-2.682 1.341 1.341 0 0 0 0 2.682Zm-1.34 1.342a1.341 1.341 0 1 1-2.683 0 1.341 1.341 0 0 1 2.683 0Zm-4.258-1.458a1.341 1.341 0 1 0 0-2.683 1.341 1.341 0 0 0 0 2.683Zm-9.67-3.79a1.341 1.341 0 0 1 2.683 0v1.388l1.389-.01a1.341 1.341 0 1 1 .021 2.682l-1.41.011v1.41a1.341 1.341 0 1 1-2.682 0v-1.389l-1.39.012a1.341 1.341 0 0 1-.02-2.683l1.41-.011V8.09Z" fill="#3A4D69"></path></svg>