<svg width="26" height="26" fill="none" xmlns="http://www.w3.org/2000/svg"><path d="M24.992 13.232a3.518 3.518 0 0 0 .973-1.984c.264-1.89-1.004-3.66-2.857-3.94l-4.878-.737-2.189-4.616A3.435 3.435 0 0 0 14.512.367C12.824-.5 10.78.221 9.958 1.955L7.77 6.571l-4.878.738A3.353 3.353 0 0 0 .947 8.337c-1.286 1.373-1.259 3.556.06 4.895l3.554 3.605-.84 5.099a3.57 3.57 0 0 0 .333 2.188c.865 1.713 2.927 2.38 4.593 1.468l4.32-2.364 2.483 1.551a1 1 0 0 0 1.06-1.696l-2.98-1.861a1 1 0 0 0-1.01-.03l-4.833 2.645c-.665.364-1.487.098-1.848-.615a1.57 1.57 0 0 1-.145-.96l.923-5.602a1 1 0 0 0-.275-.865l-3.91-3.967a1.554 1.554 0 0 1-.025-2.123c.213-.228.489-.374.784-.419l5.404-.817a1 1 0 0 0 .754-.56l2.416-5.097c.344-.724 1.16-1.012 1.833-.666.273.14.498.374.636.666l2.417 5.097a1 1 0 0 0 .754.56l5.404.817c.753.114 1.29.864 1.175 1.686-.045.328-.193.63-.417.856l-3.91 3.967a1 1 0 0 0-.274.865l.923 5.601c.135.82-.385 1.584-1.136 1.718a1 1 0 0 0 .351 1.97c1.845-.33 3.069-2.13 2.758-4.013l-.84-5.1 3.553-3.604Z" fill="#3A4D69"></path></svg>